<?xml version="1.0" standalone="no"?>
<!DOCTYPE svg PUBLIC "-//W3C//DTD SVG 1.1//EN" "http://www.w3.org/Graphics/SVG/1.1/DTD/svg11.dtd" >
<svg>
<metadata>
Created by FontForge 20090914 at Sat Jun 13 06:27:00 2020
 By www-data
Copyright (c) 2013 by Mariya Pigoulevskaya. All rights reserved.
</metadata>
<defs>
<font id="Acrom-Thin" horiz-adv-x="653" >
  <font-face 
    font-family="Acrom Thin"
    font-weight="250"
    font-stretch="normal"
    units-per-em="1000"
    panose-1="0 0 3 0 0 0 0 0 0 0"
    ascent="750"
    descent="-250"
    x-height="500"
    cap-height="700"
    bbox="0 -337.005 1244 911"
    underline-thickness="50"
    underline-position="-150"
    unicode-range="U+0020-U+25CA"
  />
<missing-glyph horiz-adv-x="500" 
d="M0 0v700h500v-700h-500zM250 395l170 255h-340zM280 350l170 -255v510zM80 50h340l-170 255zM50 605v-510l170 255z" />
    <glyph glyph-name=".notdef" horiz-adv-x="500" 
d="M0 0v700h500v-700h-500zM250 395l170 255h-340zM280 350l170 -255v510zM80 50h340l-170 255zM50 605v-510l170 255z" />
    <glyph glyph-name="space" unicode=" " horiz-adv-x="299" 
 />
    <glyph glyph-name="exclam" unicode="!" horiz-adv-x="181" 
d="M99 700v-330l-5 -228h-8l-5 228v330h18zM90 33c5.33301 0 10 -2 14 -6s6 -8.66699 6 -14s-2 -10 -6 -14s-8.66699 -6 -14 -6s-10 2 -14 6s-6 8.66699 -6 14s2 10 6 14s8.66699 6 14 6z" />
    <glyph glyph-name="quotedbl" unicode="&#x22;" horiz-adv-x="230" 
d="M84 561h-9l-5 139h19zM155 561h-9l-5 139h19z" />
    <glyph glyph-name="numbersign" unicode="#" horiz-adv-x="703" 
d="M432 253h161l-4 -19h-161l-50 -234h-19l50 234h-165l-51 -234h-19l51 234h-155l4 19h154l37 173h-154l4 18h154l54 256h19l-54 -256h165l55 256h19l-55 -256h161l-4 -18h-161zM284 426l-36 -173h166l36 173h-166z" />
    <glyph glyph-name="dollar" unicode="$" horiz-adv-x="657" 
d="M334 379l51.002 -7.00488c69.333 -9.33301 120.166 -28.666 152.499 -57.999s48.5 -71.333 48.5 -126c0 -57.333 -24 -104.166 -72 -140.499s-105 -54.5 -171 -54.5h-5h-4v-48h-19v49c-62.667 2.66699 -115.334 18.334 -158.001 47.001s-71.667 67.334 -87 116.001l12 10
c16 -47.333 43.833 -84.666 83.5 -111.999s89.5 -42.333 149.5 -45v355l-25 3c-72.667 10 -124.334 27.667 -155.001 53s-46 60.333 -46 105c0 53.333 22.5 96.833 67.5 130.5s96.833 50.5 155.5 50.5h3v43h19v-43c49.333 -1.33301 94 -12 134 -32s70.667 -48.333 92 -85
l-12 -11c-21.333 35.333 -50.666 62.5 -87.999 81.5s-79.333 29.167 -126 30.5v-312zM315.002 381.995v308.999h-3c-55.333 0 -103.333 -15 -144 -45s-61 -70 -61 -120c0 -40 13.5 -71.167 40.5 -93.5s74.5 -38.166 142.5 -47.499zM338.002 8.99414h5.00098
c61.333 0 114.166 16.333 158.499 49s66.5 76 66.5 130c0 50 -14.333 88.167 -43 114.5s-75 43.833 -139 52.5l-52 7v-353h4z" />
    <glyph glyph-name="percent" unicode="%" horiz-adv-x="815" 
d="M236 707c46 0 85.167 -16.167 117.5 -48.5s48.5 -71.5 48.5 -117.5s-16.167 -85.167 -48.5 -117.5s-71.5 -48.5 -117.5 -48.5s-85.167 16.167 -117.5 48.5s-48.5 71.5 -48.5 117.5s16.167 85.167 48.5 117.5s71.5 48.5 117.5 48.5zM636 700l-436 -700h-23l436 700h23z
M237 689c-44 0 -79.5 -13.667 -106.5 -41s-40.5 -63 -40.5 -107s13.5 -79.667 40.5 -107s62.5 -41 106.5 -41s79.5 13.667 106.5 41s40.5 63 40.5 107s-13.5 79.667 -40.5 107s-62.5 41 -106.5 41zM578 325c46 0 85.167 -16.167 117.5 -48.5s48.5 -71.5 48.5 -117.5
s-16.167 -85.167 -48.5 -117.5s-71.5 -48.5 -117.5 -48.5s-85.167 16.167 -117.5 48.5s-48.5 71.5 -48.5 117.5s16.167 85.167 48.5 117.5s71.5 48.5 117.5 48.5zM579 308c-44 0 -79.5 -13.833 -106.5 -41.5s-40.5 -63.5 -40.5 -107.5s13.5 -79.667 40.5 -107
s62.5 -41 106.5 -41s79.5 13.667 106.5 41s40.5 63 40.5 107s-13.5 79.833 -40.5 107.5s-62.5 41.5 -106.5 41.5z" />
    <glyph glyph-name="ampersand" unicode="&#x26;" horiz-adv-x="675" 
d="M578 0l-67.001 68.0039c-42.667 -50 -109.334 -75 -200.001 -75h-6c-69.333 1.33301 -125.833 19.166 -169.5 53.499s-65.5 82.5 -65.5 144.5c0 45.333 12.167 83.666 36.5 114.999s57.833 54 100.5 68l-57 58c-26.667 28 -40 63.667 -40 107
c0 55.333 20 97.166 60 125.499s87.333 42.5 142 42.5h4c52.667 -1.33301 98.667 -15.5 138 -42.5s59 -66.167 59 -117.5v-7h-18c0 50 -18.167 87.667 -54.5 113s-79.166 38 -128.499 38s-92.166 -12.667 -128.499 -38s-54.5 -63.333 -54.5 -114
c0 -40.667 13 -73.334 39 -98.001l341 -344c16.667 26 25 57 25 93h19c0 -41.333 -10.333 -77 -31 -107l83 -83h-27zM311.999 10.0039c84.667 0 147 23.667 187 71l-277 279c-41.333 -12 -73.833 -32.5 -97.5 -61.5s-35.5 -64.833 -35.5 -107.5
c0 -58 20.667 -102.667 62 -134s95 -47 161 -47z" />
    <glyph glyph-name="quotesingle" unicode="'" horiz-adv-x="159" 
d="M84 561h-9l-5 139h19z" />
    <glyph glyph-name="parenleft" unicode="(" horiz-adv-x="378" 
d="M307 737v-17c-54.667 -28 -104.5 -80.333 -149.5 -157s-68.167 -162 -69.5 -256v-8c0 -95.333 22.333 -181.5 67 -258.5s95.334 -131.5 152.001 -163.5v-17c-60.667 31.333 -115.334 87 -164.001 167s-73 170.667 -73 272v7c1.33301 100.667 26.333 191 75 271
s102.667 133.333 162 160z" />
    <glyph glyph-name="parenright" unicode=")" horiz-adv-x="378" 
d="M70 720v17c59.333 -26.667 113.333 -80 162 -160s73.667 -170.333 75 -271v-7c0 -101.333 -24.333 -192 -73 -272s-103.334 -135.667 -164.001 -167v17c56.667 32 107.334 86.5 152.001 163.5s67 163.167 67 258.5v8c-1.33301 94 -24.5 179.333 -69.5 256
s-94.833 129 -149.5 157z" />
    <glyph glyph-name="asterisk" unicode="*" horiz-adv-x="431" 
d="M311 451l-16 -11l-80 110l-80 -110l-15 11l79 110l-129 43l6 18l129 -42l1 136h19v-136l129 42l6 -18l-129 -43z" />
    <glyph glyph-name="plus" unicode="+" horiz-adv-x="555" 
d="M286 321h198v-17h-198v-198h-18v198h-198v17h198v199h18v-199z" />
    <glyph glyph-name="comma" unicode="," horiz-adv-x="206" 
d="M135 33l-54 -125h-11l35 125h30z" />
    <glyph glyph-name="hyphen" unicode="-" horiz-adv-x="389" 
d="M318 280h-248v19h248v-19z" />
    <glyph glyph-name="period" unicode="." horiz-adv-x="181" 
d="M90 33c5.33301 0 10 -2 14 -6s6 -8.66699 6 -14s-2 -10 -6 -14s-8.66699 -6 -14 -6s-10 2 -14 6s-6 8.66699 -6 14s2 10 6 14s8.66699 6 14 6z" />
    <glyph glyph-name="slash" unicode="/" horiz-adv-x="476" 
d="M405 700l-316 -700h-19l316 700h19z" />
    <glyph glyph-name="zero" unicode="0" horiz-adv-x="860" 
d="M429 693c96.667 0 179.167 -34.167 247.5 -102.5s102.5 -150.833 102.5 -247.5s-34.167 -179.167 -102.5 -247.5s-150.833 -102.5 -247.5 -102.5s-179 34.167 -247 102.5s-102 150.833 -102 247.5s34 179.167 102 247.5s150.333 102.5 247 102.5zM429 676
c-91.333 0 -169.166 -32.333 -233.499 -97s-96.5 -143.334 -96.5 -236.001s32.167 -171.334 96.5 -236.001s142.166 -97 233.499 -97c92 0 170.333 32.333 235 97s97 143.334 97 236.001s-32.333 171.334 -97 236.001s-143 97 -235 97z" />
    <glyph glyph-name="one" unicode="1" horiz-adv-x="308" 
d="M187 0h-18v642l-104 -125l-15 12l132 156h5v-685z" />
    <glyph glyph-name="two" unicode="2" horiz-adv-x="629" 
d="M569 0h-508.998v6l327 290c56.667 50.667 94.667 90.5 114 119.5s29 61.167 29 96.5c0 49.333 -20.5 89 -61.5 119s-88.833 45 -143.5 45h-13c-48.667 0 -92.834 -9.5 -132.501 -28.5s-70.167 -46.5 -91.5 -82.5l-12 10c22 38 54 67 96 87s88.667 30 140 30h13
c59.333 0 111.333 -16.833 156 -50.5s67 -77.167 67 -130.5c0 -39.333 -11.333 -75 -34 -107s-65.334 -75.667 -128.001 -131l-290 -257h473v-16z" />
    <glyph glyph-name="three" unicode="3" horiz-adv-x="633" 
d="M555 680l-323.001 -271.001c28 8.66699 65 13.334 111 14.001c74 0 130.667 -17.667 170 -53s59 -82 59 -140c0 -70 -22.5 -126.667 -67.5 -170s-102.167 -65.666 -171.5 -66.999h-11c-67.333 0.666992 -123.666 15.5 -168.999 44.5s-76.333 68.833 -93 119.5l12 10
c16.667 -50 46.834 -88.833 90.501 -116.5s98.5 -41.5 164.5 -41.5h5c65.333 1.33301 118.666 21.666 159.999 60.999s62 92.333 62 159c0 117.333 -74 176 -222 176c-50.667 0 -95 -9.33301 -133 -28l-15 11l333 281h-397v16h435v-5z" />
    <glyph glyph-name="four" unicode="4" horiz-adv-x="631" 
d="M491 162v-162h-18v162h-423v5l435 518h6v-507h90v-16h-90zM473 641l-393 -463h393v463z" />
    <glyph glyph-name="five" unicode="5" horiz-adv-x="633" 
d="M512 669l-383 -0.00195312v-298c52 38 123.667 57 215 57c69.333 0 124.666 -19.167 165.999 -57.5s62 -90.166 62 -155.499c0 -64 -22.667 -116.667 -68 -158s-102 -62.666 -170 -63.999h-12c-67.333 0.666992 -123.666 15.5 -168.999 44.5s-76.333 68.833 -93 119.5
l12 11c16.667 -50 46.834 -89 90.501 -117s98.5 -42 164.5 -42h4c64.667 1.33301 118 20.833 160 58.5s63 86.5 63 146.5c0 64 -19.167 113 -57.5 147s-93.166 51 -164.499 51c-38.667 0 -77.334 -5.83301 -116.001 -17.5s-69.334 -28.167 -92.001 -49.5l-14 11v329h402v-16
z" />
    <glyph glyph-name="six" unicode="6" horiz-adv-x="625" 
d="M326 692l7 -0.000976562c88.667 0 157 -32 205 -96l-12 -11c-47.333 60.667 -111.666 91 -192.999 91h-7c-38.667 0 -73 -7.33301 -103 -22s-53.833 -33.5 -71.5 -56.5s-32.167 -50.5 -43.5 -82.5s-19.166 -62.833 -23.499 -92.5s-6.5 -60.834 -6.5 -93.501
c19.333 40.667 49.666 73.834 90.999 99.501s89 38.5 143 38.5c73.333 0 133.833 -22.833 181.5 -68.5s71.5 -102.167 71.5 -169.5s-23.833 -123.5 -71.5 -168.5s-108.167 -67.5 -181.5 -67.5c-78 0 -139.333 24.333 -184 73s-67 108 -67 178l-1 81
c0 34 2.33301 66.833 7 98.5s13.167 64.167 25.5 97.5s28.166 62.333 47.499 87s45 44.834 77 60.501s68.333 23.5 109 23.5zM313 449.999c-67.333 0 -123 -20.333 -167 -61s-66 -88.667 -66 -144c0 -65.333 20.667 -120.833 62 -166.5s98.333 -68.5 171 -68.5
c68 0 124 21 168 63s66 94 66 156c0 62.667 -22 115.167 -66 157.5s-100 63.5 -168 63.5z" />
    <glyph glyph-name="seven" unicode="7" horiz-adv-x="534" 
d="M484 680l-411 -680h-21l403 669h-405v16h434v-5z" />
    <glyph glyph-name="eight" unicode="8" horiz-adv-x="604" 
d="M380 368c50 -11.333 89.667 -32.8311 119 -64.498s44 -71.5 44 -119.5c0 -58.667 -22 -104.834 -66 -138.501s-100.667 -51.167 -170 -52.5h-6c-70.667 0 -128.5 16.833 -173.5 50.5s-67.5 80.5 -67.5 140.5c0 48 14.667 87.833 44 119.5s69 53.167 119 64.5
c-40 10 -72.167 28.333 -96.5 55s-36.5 61 -36.5 103c0 55.333 20.5 97.166 61.5 125.499s90.833 42.5 149.5 42.5h7c57.333 -1.33301 105.833 -16 145.5 -44s59.5 -69.333 59.5 -124c0 -42 -12.167 -76.333 -36.5 -103s-56.5 -45 -96.5 -55zM109 526.002
c0 -50.667 18.5 -88.334 55.5 -113.001s82.833 -37 137.5 -37c54 0 99.667 12.333 137 37s56 62.334 56 113.001s-18.667 88.667 -56 114s-83 38 -137 38s-99.667 -12.667 -137 -38s-56 -63.333 -56 -114zM302 10.002c66 0 119.669 15.333 161.002 46s62 73.334 62 128.001
s-20 97.167 -60 127.5s-94.333 46.166 -163 47.499c-16 0 -32.333 -1.16699 -49 -3.5s-35.834 -7.16602 -57.501 -14.499s-40.834 -17 -57.501 -29s-30.667 -29.167 -42 -51.5s-17 -47.833 -17 -76.5c0 -54.667 20.667 -97.334 62 -128.001s95 -46 161 -46z" />
    <glyph glyph-name="nine" unicode="9" horiz-adv-x="625" 
d="M299 -7l-8.00195 0.00488281c-88 0 -156 32 -204 96l12 11c46 -60.667 110 -91 192 -91h8c48 0 89 10.667 123 32s59.5 50.166 76.5 86.499s29.167 73.166 36.5 110.499s11 76.666 11 117.999c-18.667 -40.667 -48.667 -73.667 -90 -99s-89 -38 -143 -38
c-73.333 0 -133.833 22.667 -181.5 68s-71.5 101.666 -71.5 168.999s23.833 123.5 71.5 168.5s107.834 67.5 180.501 67.5c78 0 139.5 -24.333 184.5 -73s67.5 -108 67.5 -178l1 -80c0 -34 -2.33301 -67 -7 -99s-13.167 -64.667 -25.5 -98s-28.166 -62.333 -47.499 -87
s-45 -44.834 -77 -60.501s-68.333 -23.5 -109 -23.5zM311.998 235.005c67.333 0 123 20.5 167 61.5s66 89.167 66 144.5c0 65.333 -20.667 120.833 -62 166.5s-98.333 68.5 -171 68.5c-68 0 -124 -21.167 -168 -63.5s-66 -94.5 -66 -156.5c0 -62.667 22 -115.167 66 -157.5
s100 -63.5 168 -63.5z" />
    <glyph glyph-name="colon" unicode=":" horiz-adv-x="181" 
d="M90 316c5.33301 0 10 -2 14 -6s6 -8.66699 6 -14c0 -6 -2 -11 -6 -15s-8.66699 -6 -14 -6s-10 2 -14 6s-6 9 -6 15c0 5.33301 2 10 6 14s8.66699 6 14 6zM90 33c5.33301 0 10 -2 14 -6s6 -8.66699 6 -14s-2 -10 -6 -14s-8.66699 -6 -14 -6s-10 2 -14 6s-6 8.66699 -6 14
s2 10 6 14s8.66699 6 14 6z" />
    <glyph glyph-name="semicolon" unicode=";" horiz-adv-x="211" 
d="M120 316c5.33301 0 10 -2 14 -6s6 -8.66699 6 -14c0 -6 -2 -11 -6 -15s-8.66699 -6 -14 -6s-10 2 -14 6s-6 9 -6 15c0 5.33301 2 10 6 14s8.66699 6 14 6zM135 33l-54 -125h-11l35 125h30z" />
    <glyph glyph-name="less" unicode="&#x3c;" horiz-adv-x="449" 
d="M378 520l-273 -179l273 -178v-24l-308 203l308 202v-24z" />
    <glyph glyph-name="equal" unicode="=" horiz-adv-x="555" 
d="M484 362h-414v19h414v-19zM484 216h-414v19h414v-19z" />
    <glyph glyph-name="greater" unicode="&#x3e;" horiz-adv-x="449" 
d="M378 342l-308 -203v24l273 178l-273 179v24z" />
    <glyph glyph-name="question" unicode="?" 
d="M332 707h11.001c68 -1.33301 124.833 -22.666 170.5 -63.999s68.5 -93.666 68.5 -156.999c0 -64.667 -23.5 -115.834 -70.5 -153.501s-109.5 -57.167 -187.5 -58.5v-92h-18v109c81.333 0 144.666 16.667 189.999 50s68 81.666 68 144.999c0 60 -21 108.833 -63 146.5
s-95.333 57.167 -160 58.5h-4c-64.667 0 -119 -14.5 -163 -43.5s-74.667 -67.167 -92 -114.5l-12 10c17.333 48 48.833 87.167 94.5 117.5s101.5 45.833 167.5 46.5zM315.001 33c5.33301 0 10 -2 14 -6s6 -8.66699 6 -14s-2 -10 -6 -14s-8.66699 -6 -14 -6s-10 2 -14 6
s-6 8.66699 -6 14s2 10 6 14s8.66699 6 14 6z" />
    <glyph glyph-name="at" unicode="@" horiz-adv-x="952" 
d="M475 663c128 0 227.667 -38.4971 299 -115.497s107 -174.167 107 -291.5v-177c0 -56 -28.333 -84.667 -85 -86c-56 1.33301 -84 31 -84 89v69c-20 -47.333 -51.5 -85.5 -94.5 -114.5s-90.833 -43.5 -143.5 -43.5c-70.667 0 -131 25 -181 75s-75 110.667 -75 182
s25 132.166 75 182.499s110.333 75.5 181 75.5c52.667 0 100.5 -14.667 143.5 -44s74.833 -67.666 95.5 -114.999l-1 152h20v-421c0 -26.667 5.66699 -44.834 17 -54.501s27 -14.5 47 -14.5s35.667 4.83301 47 14.5s17 27.5 17 53.5v177
c0 113.333 -33.5 206.166 -100.5 278.499s-161.833 108.5 -284.5 108.5c-106.667 0 -197.167 -37.5 -271.5 -112.5s-111.5 -166.167 -111.5 -273.5c0 -108.667 37 -200.334 111 -275.001s164.667 -112 272 -112c62 0 120.333 13.667 175 41l14 -14
c-58.667 -31.333 -121.667 -47 -189 -47c-112 0 -207.5 39.667 -286.5 119s-118.5 175.333 -118.5 288c0 112 39.5 207.667 118.5 287s174.5 119 286.5 119zM475 490.003c-66.667 0 -123 -23.1709 -169 -69.5039s-69 -103.166 -69 -170.499s23 -124.166 69 -170.499
s102.333 -69.5 169 -69.5c66 0 122.333 23.333 169 70s70 103.334 70 170.001s-23.333 123.334 -70 170.001s-103 70 -169 70z" />
    <glyph glyph-name="A" unicode="A" horiz-adv-x="692" 
d="M171 244l-102 -244h-19l293 700h6l293 -700h-19l-102 244h-350zM346 662l-168 -402h337z" />
    <glyph glyph-name="B" unicode="B" horiz-adv-x="692" 
d="M120 700l238 0.000976562c45.333 0 83.5 -4.5 114.5 -13.5s54.333 -22 70 -39s26.667 -35 33 -54s9.5 -41.167 9.5 -66.5c0 -82 -40 -134.667 -120 -158c54.667 -8.66699 96.167 -28.834 124.5 -60.501s42.5 -72.167 42.5 -121.5c0 -124.667 -76 -187 -228 -187h-284v700
zM138 684.001v-311.001h220c78 0 132.333 14 163 42s46 65.667 46 113c0 23.333 -2.5 43.333 -7.5 60s-14.5 32.834 -28.5 48.501s-35.5 27.5 -64.5 35.5s-65.167 12 -108.5 12h-220zM138 357v-341h265c75.333 0 129.333 14.5 162 43.5s49 71.5 49 127.5
c0 54 -17.5 95.833 -52.5 125.5s-87.833 44.5 -158.5 44.5h-265z" />
    <glyph glyph-name="C" unicode="C" horiz-adv-x="761" 
d="M436 707c105.333 0 193.333 -39.002 264 -117.002l-12 -11c-67.333 74.667 -151.333 112 -252 112c-94 0 -173.833 -33.167 -239.5 -99.5s-98.5 -146.833 -98.5 -241.5c0 -95.333 32.833 -176 98.5 -242s145.5 -99 239.5 -99c102 0 186 37.333 252 112l12 -13
c-70 -76.667 -158 -115 -264 -115c-98.667 0 -182.667 34.833 -252 104.5s-104 153.834 -104 252.501s34.667 182.834 104 252.501s153.333 104.5 252 104.5z" />
    <glyph glyph-name="D" unicode="D" horiz-adv-x="754" 
d="M120 700h197c100.667 0 185.167 -32.333 253.5 -97s102.5 -149 102.5 -253s-34.167 -188.333 -102.5 -253s-152.833 -97 -253.5 -97h-197v700zM138 16h179c96.667 0 177.167 30.5 241.5 91.5s96.5 141.833 96.5 242.5s-32.167 181.5 -96.5 242.5
s-144.833 91.5 -241.5 91.5h-179v-668z" />
    <glyph glyph-name="E" unicode="E" horiz-adv-x="600" 
d="M138 364h384v-16h-384v-332h401v-16h-419v700h419v-16h-401v-320z" />
    <glyph glyph-name="F" unicode="F" horiz-adv-x="600" 
d="M138 364h384v-16h-384v-348h-18v700h419v-16h-401v-320z" />
    <glyph glyph-name="G" unicode="G" horiz-adv-x="811" 
d="M436 707c105.333 0 193.333 -39.002 264 -117.002l-12 -11c-67.333 74.667 -151.333 112 -252 112c-94 0 -173.833 -33.167 -239.5 -99.5s-98.5 -146.833 -98.5 -241.5c0 -95.333 32.833 -176 98.5 -242s145.5 -99 239.5 -99c98 0 180 35 246 105v217h-256v16h274v-239
c-70 -76.667 -158 -115 -264 -115c-98.667 0 -182.667 34.833 -252 104.5s-104 153.834 -104 252.501s34.667 182.834 104 252.501s153.333 104.5 252 104.5z" />
    <glyph glyph-name="H" unicode="H" horiz-adv-x="751" 
d="M630 0h-18v349h-474v-349h-18v700h18v-335h474v335h18v-700z" />
    <glyph glyph-name="I" unicode="I" horiz-adv-x="419" 
d="M218 16h80v-16h-178v16h80v668h-80v16h178v-16h-80v-668z" />
    <glyph glyph-name="J" unicode="J" horiz-adv-x="586" 
d="M505 700l0.000976562 -480c0 -67.333 -18 -122 -54 -164s-89 -63 -159 -63c-69.333 0 -122 21 -158 63s-54 96.667 -54 164v18h18v-17c0 -64 16 -115.333 48 -154s80.667 -58 146 -58s114.166 19.333 146.499 58s48.5 90 48.5 154v463h-273v16h291z" />
    <glyph glyph-name="K" unicode="K" horiz-adv-x="691" 
d="M619 0l-141.001 218c-16.667 26 -28 43.333 -34 52s-14.833 20.167 -26.5 34.5s-22.167 23.5 -31.5 27.5s-21 7.83301 -35 11.5s-30.667 5.5 -50 5.5h-163v-349h-18v700h18v-335h145c19.333 0 36.166 1.83301 50.499 5.5s26 7.5 35 11.5s19.5 13.167 31.5 27.5
s20.833 25.833 26.5 34.5l34.5 52l132 204h22l-142 -216c-36 -54.667 -61 -88.667 -75 -102c-10 -9.33301 -20.667 -16.666 -32 -21.999c12.667 -3.33301 23.667 -7.83301 33 -13.5s19.833 -15.834 31.5 -30.501s20.334 -26 26.001 -34s16.834 -25.333 33.501 -52l151 -230
h-22z" />
    <glyph glyph-name="L" unicode="L" horiz-adv-x="590" 
d="M540 0h-420v700h18v-684h402v-16z" />
    <glyph glyph-name="M" unicode="M" horiz-adv-x="889" 
d="M769 0h-18v653l-312 -402l-311 402v-653h-18v700h6l323 -418l324 418h6v-700z" />
    <glyph glyph-name="N" unicode="N" horiz-adv-x="731" 
d="M620 0h-6l-486 653v-653h-18v700h6l486 -653v653h18v-700z" />
    <glyph glyph-name="O" unicode="O" horiz-adv-x="874" 
d="M436 707c98.667 0 182.834 -34.833 252.501 -104.5s104.5 -153.834 104.5 -252.501s-34.833 -182.834 -104.5 -252.501s-153.834 -104.5 -252.501 -104.5s-182.667 34.833 -252 104.5s-104 153.834 -104 252.501s34.667 182.834 104 252.501s153.333 104.5 252 104.5z
M436 691c-94 0 -173.833 -33.167 -239.5 -99.5s-98.5 -146.833 -98.5 -241.5c0 -95.333 32.833 -176 98.5 -242s145.5 -99 239.5 -99s174 33 240 99s99 146.667 99 242c0 94.667 -33 175.167 -99 241.5s-146 99.5 -240 99.5z" />
    <glyph glyph-name="P" unicode="P" horiz-adv-x="713" 
d="M120 700h211c86.667 0 158.5 -20.667 215.5 -62s85.5 -102.333 85.5 -183c0 -80 -28.5 -140.667 -85.5 -182s-128.833 -62 -215.5 -62h-193v-211h-18v700zM138 227h193c53.333 0 100.5 7.5 141.5 22.5s74.833 40 101.5 75s40 78.5 40 130.5c0 76.667 -26.5 134 -79.5 172
s-120.833 57 -203.5 57h-193v-457z" />
    <glyph glyph-name="Q" unicode="Q" horiz-adv-x="873" 
d="M436 707c98.667 0 182.833 -34.834 252.5 -104.501s104.5 -153.834 104.5 -252.501c0 -78.667 -23 -149.167 -69 -211.5s-105.333 -105.5 -178 -129.5h246v-16h-356c-98.667 0 -182.667 34.833 -252 104.5s-104 153.834 -104 252.501s34.667 182.834 104 252.501
s153.333 104.5 252 104.5zM435.999 690.999c-94 0 -173.833 -33.167 -239.5 -99.5s-98.5 -146.833 -98.5 -241.5c0 -95.333 32.833 -176 98.5 -242s145.5 -99 239.5 -99s174 33 240 99s99 146.667 99 242c0 94.667 -33 175.167 -99 241.5s-146 99.5 -240 99.5z" />
    <glyph glyph-name="R" unicode="R" horiz-adv-x="682" 
d="M120 700l211 0.000976562c86 0 157.667 -20.333 215 -61s86 -100.334 86 -179.001c0 -62 -18.833 -112.5 -56.5 -151.5s-87.5 -65.167 -149.5 -78.5c46 -13.333 88 -49.333 126 -108l80 -122h-22l-70 109c-29.333 46 -57.833 76.167 -85.5 90.5s-63.5 21.5 -107.5 21.5
h-209v-221h-18v700zM138 684.001v-447h193c82 0 149.667 18.667 203 56s80 93 80 167c0 74.667 -26.667 130.667 -80 168s-121 56 -203 56h-193z" />
    <glyph glyph-name="S" unicode="S" horiz-adv-x="637" 
d="M302 707l13.0029 -0.00292969c51.333 0 97.833 -10 139.5 -30s73.5 -49 95.5 -87l-12 -11c-22 36 -52.5 63.667 -91.5 83s-82.833 29 -131.5 29h-13c-55.333 0 -103.333 -15 -144 -45s-61 -70 -61 -120c0 -40 13.5 -71.167 40.5 -93.5s74.5 -38.166 142.5 -47.499l95 -13
c69.333 -9.33301 120.166 -28.666 152.499 -57.999s48.5 -71.333 48.5 -126c0 -57.333 -24 -104.166 -72 -140.499s-105 -54.5 -171 -54.5h-5c-68.667 0 -126.334 14.5 -173.001 43.5s-78.334 69.167 -95.001 120.5l12 10c16.667 -50 46.834 -88.833 90.501 -116.5
s98.834 -41.5 165.501 -41.5h5c61.333 0 114.166 16.333 158.499 49s66.5 76 66.5 130c0 50 -14.333 88.167 -43 114.5s-75 43.833 -139 52.5l-96 13c-72.667 10 -124.334 27.667 -155.001 53s-46 60.333 -46 105c0 53.333 22.5 96.833 67.5 130.5s96.833 50.5 155.5 50.5z
" />
    <glyph glyph-name="T" unicode="T" horiz-adv-x="601" 
d="M309 684v-684h-18v684h-241v16h500v-16h-241z" />
    <glyph glyph-name="U" unicode="U" horiz-adv-x="804" 
d="M693 700v-391c0 -94 -25 -170.167 -75 -228.5s-120.667 -87.5 -212 -87.5s-161.833 29.167 -211.5 87.5s-74.5 134.5 -74.5 228.5v391h18v-391c0 -90.667 23 -163.334 69 -218.001s112.333 -82 199 -82s153.167 27.333 199.5 82s69.5 127.334 69.5 218.001v391h18z" />
    <glyph glyph-name="V" unicode="V" horiz-adv-x="702" 
d="M354 0h-6l-298 700h19l282 -662l282 662h19z" />
    <glyph glyph-name="W" unicode="W" horiz-adv-x="1202" 
d="M879 0h-6l-272 661l-272 -661h-6l-273 700h19l257 -661l272 661h6l272 -661l257 661h19z" />
    <glyph glyph-name="X" unicode="X" horiz-adv-x="650" 
d="M324 343l-251 -343h-23l263 358l-253 342h23l243 -329l241 329h23l-253 -344l263 -356h-23z" />
    <glyph glyph-name="Y" unicode="Y" horiz-adv-x="685" 
d="M351 0h-18v245l-283 455h21l272 -436l271 436h21l-284 -454v-246z" />
    <glyph glyph-name="Z" unicode="Z" horiz-adv-x="630" 
d="M570 0h-510v4l473 680h-433v16h464v-4l-474 -680h480v-16z" />
    <glyph glyph-name="bracketleft" unicode="[" horiz-adv-x="223" 
d="M88 -124h65v-16h-83v890h83v-16h-65v-858z" />
    <glyph glyph-name="backslash" unicode="\" horiz-adv-x="476" 
d="M405 0h-19l-316 700h19z" />
    <glyph glyph-name="bracketright" unicode="]" horiz-adv-x="223" 
d="M70 734v16h83v-890h-83v16h65v858h-65z" />
    <glyph glyph-name="asciicircum" unicode="^" horiz-adv-x="543" 
d="M472 375h-23l-178 271l-178 -271h-23l201 307z" />
    <glyph glyph-name="underscore" unicode="_" horiz-adv-x="554" 
d="M484 -100h-414v19h414v-19z" />
    <glyph glyph-name="grave" unicode="`" horiz-adv-x="240" 
d="M110 699l60 -87h-21l-79 87h40z" />
    <glyph glyph-name="a" unicode="a" horiz-adv-x="684" 
d="M584 0h-19v154c-19.333 -47.333 -50.666 -85.833 -93.999 -115.5s-91.666 -44.5 -144.999 -44.5c-70.667 0 -131 25 -181 75s-75 110.333 -75 181s25 131.167 75 181.5s110.333 75.5 181 75.5c53.333 0 101.666 -14.833 144.999 -44.5s74.666 -68.5 93.999 -116.5v154h19
v-500zM327 11c66 0 122.167 23.165 168.5 69.498s69.5 102.833 69.5 169.5s-23.167 123.334 -69.5 170.001s-102.5 70 -168.5 70c-66.667 0 -123 -23.167 -169 -69.5s-69 -103.166 -69 -170.499c0 -66.667 23 -123.167 69 -169.5s102.333 -69.5 169 -69.5z" />
    <glyph glyph-name="b" unicode="b" horiz-adv-x="684" 
d="M118 700l-0.000976562 -354c20 48 51.667 86.833 95 116.5s91.666 44.5 144.999 44.5c70.667 0 131 -25.167 181 -75.5s75 -110.833 75 -181.5s-25 -131 -75 -181s-110.333 -75 -181 -75c-53.333 0 -101.666 14.833 -144.999 44.5s-74.666 68.167 -93.999 115.5v-154h-19
v700h18zM357.999 490c-66 0 -122.167 -23.3311 -168.5 -69.998s-69.5 -103.334 -69.5 -170.001s23.167 -123.167 69.5 -169.5s102.5 -69.5 168.5 -69.5c66.667 0 123 23.167 169 69.5s69 102.833 69 169.5c0 67.333 -23 124.166 -69 170.499s-102.333 69.5 -169 69.5z" />
    <glyph glyph-name="c" unicode="c" horiz-adv-x="589" 
d="M326 507c80 0 146.001 -30.999 198.001 -92.999l-13 -12c-48 58.667 -109.667 88 -185 88c-66 0 -122.167 -23.333 -168.5 -70s-69.5 -103.334 -69.5 -170.001s23.167 -123.167 69.5 -169.5s102.5 -69.5 168.5 -69.5c76 0 137.667 29 185 87l12 -12
c-50.667 -61.333 -116.334 -92 -197.001 -92c-70.667 0 -131 25 -181 75s-75 110.333 -75 181c0 71.333 25 132 75 182s110.333 75 181 75z" />
    <glyph glyph-name="d" unicode="d" horiz-adv-x="684" 
d="M584 0h-19.001v154c-19.333 -47.333 -50.666 -85.833 -93.999 -115.5s-91.666 -44.5 -144.999 -44.5c-70.667 0 -131 25 -181 75s-75 110.333 -75 181s25 131.167 75 181.5s110.333 75.5 181 75.5c53.333 0 101.666 -14.833 144.999 -44.5s75 -68.5 95 -116.5v354h18
v-700zM326.999 11c66 0 122.167 23.165 168.5 69.498s69.5 102.833 69.5 169.5s-23.167 123.334 -69.5 170.001s-102.5 70 -168.5 70c-66.667 0 -123 -23.167 -169 -69.5s-69 -103.166 -69 -170.499c0 -66.667 23 -123.167 69 -169.5s102.333 -69.5 169 -69.5z" />
    <glyph glyph-name="e" unicode="e" horiz-adv-x="634" 
d="M326 507c54.667 0 102.167 -14.332 142.5 -42.999s69.5 -66.667 87.5 -114c5.33301 -15.333 9 -33 11 -53s1.66699 -35.333 -1 -46h-478c0 -74 22.833 -132.5 68.5 -175.5s106.167 -64.5 181.5 -64.5c72.667 -0.666992 138 23 196 71l12 -13
c-60.667 -50 -130 -75 -208 -75c-80 0.666992 -144.667 24.167 -194 70.5s-74 108.166 -74 185.499c0 72 24.333 132.833 73 182.5s109.667 74.5 183 74.5zM326 490.001c-66 0 -120.999 -21.167 -164.999 -63.5s-68 -95.166 -72 -158.499h461
c1.33301 27.333 -2.33398 52.666 -11.001 75.999c-16.667 44.667 -43.5 80.167 -80.5 106.5s-81.167 39.5 -132.5 39.5z" />
    <glyph glyph-name="f" unicode="f" horiz-adv-x="392" 
d="M342 705l-2 -15.001h-10c-44.667 0 -82.667 -12.333 -114 -37s-47.333 -65.667 -48 -123v-30h172v-16h-172v-484h-18v484h-80v16h80v29c0 62 17.833 107.833 53.5 137.5s77.5 42.834 125.5 39.501z" />
    <glyph glyph-name="g" unicode="g" horiz-adv-x="678" 
d="M321 507c52.667 0 100.5 -14.668 143.5 -44.001s74.5 -67.666 94.5 -114.999v152h19v-439c0 -79.333 -19.833 -141 -59.5 -185s-98.167 -66.333 -175.5 -67c-78 0 -147.333 25 -208 75l12 13c58.667 -48 124 -71.667 196 -71c144.667 0 217 78.667 217 236v90
c-20 -47.333 -51.5 -85.5 -94.5 -114.5s-91.167 -43.5 -144.5 -43.5c-70.667 0 -131 25 -181 75s-75 110.333 -75 181s25 131.167 75 181.5s110.333 75.5 181 75.5zM322 489.999c-66.667 0 -123 -23.1709 -169 -69.5039s-69 -103.166 -69 -170.499s23 -124.166 69 -170.499
s102.333 -69.5 169 -69.5c66 0 122.167 23.333 168.5 70s69.5 103.334 69.5 170.001s-23.167 123.334 -69.5 170.001s-102.5 70 -168.5 70z" />
    <glyph glyph-name="h" unicode="h" horiz-adv-x="661" 
d="M349 507c66 0 118.666 -20.001 157.999 -60.001s59 -97.667 59 -173v-274h-19v275c0 70.667 -17.667 124.167 -53 160.5s-83.666 54.5 -144.999 54.5c-68 0 -122.667 -23.333 -164 -70s-62 -109.667 -62 -189v-231h-18v700h18v-349c20 52.667 51.333 91.834 94 117.501
s86.667 38.5 132 38.5z" />
    <glyph glyph-name="i" unicode="i" horiz-adv-x="236" 
d="M120 580c-4 0 -7.5 1.5 -10.5 4.5s-4.5 6.83301 -4.5 11.5c0 4 1.5 7.5 4.5 10.5s6.5 4.5 10.5 4.5c4.66699 0 8.5 -1.5 11.5 -4.5s4.5 -6.5 4.5 -10.5c0 -10.667 -5.33301 -16 -16 -16zM112 0v500h18v-500h-18z" />
    <glyph glyph-name="j" unicode="j" horiz-adv-x="236" 
d="M120 611c4.66699 0 8.5 -1.5 11.5 -4.5s4.5 -6.5 4.5 -10.5c0 -10.667 -5.33301 -16 -16 -16c-4 0 -7.5 1.5 -10.5 4.5s-4.5 6.83301 -4.5 11.5c0 4 1.5 7.5 4.5 10.5s6.5 4.5 10.5 4.5zM130 -184h-18v684h18v-684z" />
    <glyph glyph-name="k" unicode="k" horiz-adv-x="558" 
d="M495 0l-76 120l-34.5 52c-5.66699 8.66699 -14.5 20.167 -26.5 34.5s-22.5 23.5 -31.5 27.5s-20.667 7.83301 -35 11.5s-31.166 5.5 -50.499 5.5h-118v-251h-18v700h18v-433h101c16 0 29.833 0.666992 41.5 2s23 5.16602 34 11.499s19.333 11.333 25 15
s14 12.834 25 27.501s18.667 25.167 23 31.5s13.833 21.166 28.5 44.499l67 101h22l-76 -114c-2 -3.33301 -6.5 -10.166 -13.5 -20.499l-13.5 -20l-11.5 -16.5l-11.5 -16l-10 -13c-4.66699 -6 -8.5 -10.167 -11.5 -12.5s-6.66699 -5.5 -11 -9.5s-8.5 -7.16699 -12.5 -9.5
s-8.33301 -4.5 -13 -6.5c10 -2.66699 19.667 -7 29 -13s16.833 -11.333 22.5 -16s13.667 -14 24 -28s17.666 -24.167 21.999 -30.5s13.5 -20.5 27.5 -42.5l86 -132h-22z" />
    <glyph glyph-name="l" unicode="l" horiz-adv-x="224" 
d="M105 0v700h18v-700h-18z" />
    <glyph glyph-name="m" unicode="m" horiz-adv-x="1099" 
d="M786 507c66 0 118.666 -19.999 157.999 -59.999s59 -97.667 59 -173v-274h-18v275c0 70.667 -17.667 124.167 -53 160.5s-83.666 54.5 -144.999 54.5c-68.667 0 -123.5 -23.333 -164.5 -70s-61.5 -109.667 -61.5 -189v-231h-19v275c0 70.667 -17.667 124.167 -53 160.5
s-83.666 54.5 -144.999 54.5c-68 0 -122.667 -23.333 -164 -70s-62 -109.667 -62 -189v-231h-18v500h19v-149c20 53.333 51.167 92.666 93.5 117.999s86.166 38 131.499 38c56 0 102.833 -14.667 140.5 -44s61.5 -72 71.5 -128c18 58.667 49 102 93 130s89.667 42 137 42z
" />
    <glyph glyph-name="n" unicode="n" horiz-adv-x="656" 
d="M344 507c66 0 118.667 -19.999 158 -59.999s59 -97.667 59 -173v-274h-19v275c0 70.667 -17.667 124.167 -53 160.5s-83.666 54.5 -144.999 54.5c-68 0 -122.667 -23.333 -164 -70s-62 -109.667 -62 -189v-231h-18v500h19v-149c20 53.333 51.167 92.666 93.5 117.999
s86.166 38 131.499 38z" />
    <glyph glyph-name="o" unicode="o" 
d="M326 507c70.667 0 131.167 -25.167 181.5 -75.5s75.5 -110.833 75.5 -181.5s-25 -131 -75 -181s-110.667 -75 -182 -75c-70.667 0 -131 25 -181 75s-75 110.333 -75 181c0 71.333 25 132 75 182s110.333 75 181 75zM327 490c-66.667 0 -123 -23.1689 -169 -69.502
s-69 -103.166 -69 -170.499c0 -66.667 23 -123.167 69 -169.5s102.333 -69.5 169 -69.5c66 0 122.167 23.167 168.5 69.5s69.5 102.833 69.5 169.5s-23.167 123.334 -69.5 170.001s-102.5 70 -168.5 70z" />
    <glyph glyph-name="p" unicode="p" horiz-adv-x="644" 
d="M318 507c70.667 0 131.002 -25.167 181.002 -75.5s75 -110.833 75 -181.5s-25 -131 -75 -181s-110.333 -75 -181 -75c-54 0 -102.5 14.833 -145.5 44.5s-74.5 68.5 -94.5 116.5v-339h-18v684h19v-154c19.333 48 50.666 86.833 93.999 116.5s91.666 44.5 144.999 44.5z
M317.002 490c-66 0 -122.167 -23.3311 -168.5 -69.998s-69.5 -103.334 -69.5 -170.001s23.167 -123.167 69.5 -169.5s102.5 -69.5 168.5 -69.5c66.667 0 123 23.167 169 69.5s69 102.833 69 169.5c0 67.333 -23 124.166 -69 170.499s-102.333 69.5 -169 69.5z" />
    <glyph glyph-name="q" unicode="q" horiz-adv-x="684" 
d="M584 -184h-17.999v339c-20 -48 -51.667 -86.833 -95 -116.5s-91.666 -44.5 -144.999 -44.5c-70.667 0 -131 25 -181 75s-75 110.333 -75 181s25 131.167 75 181.5s110.333 75.5 181 75.5c53.333 0 101.666 -14.833 144.999 -44.5s74.666 -68.5 93.999 -116.5v154h19v-684
zM327.001 11c66 0 122.167 23.165 168.5 69.498s69.5 102.833 69.5 169.5s-23.167 123.334 -69.5 170.001s-102.5 70 -168.5 70c-66.667 0 -123 -23.167 -169 -69.5s-69 -103.166 -69 -170.499c0 -66.667 23 -123.167 69 -169.5s102.333 -69.5 169 -69.5z" />
    <glyph glyph-name="r" unicode="r" horiz-adv-x="421" 
d="M380 490l-6.00098 -0.000976562c-89.333 0 -154.333 -26.5 -195 -79.5s-61 -122.167 -61 -207.5v-203h-18v500h19v-161c19.333 56.667 51.333 98.834 96 126.501s98.334 41.5 161.001 41.5h4v-17z" />
    <glyph glyph-name="s" unicode="s" horiz-adv-x="546" 
d="M265 507l15.0049 -0.00195312c34 0 68.667 -8.66699 104 -26s62 -39.666 80 -66.999l-13 -12c-16.667 26 -41.334 47.167 -74.001 63.5s-65 24.5 -97 24.5h-9c-46.667 0 -85.5 -10.167 -116.5 -30.5s-46.5 -47.166 -46.5 -80.499c0 -27.333 8.66699 -49.5 26 -66.5
s52.666 -28.5 105.999 -34.5l84 -9c20.667 -2.66699 38.167 -5.83398 52.5 -9.50098s30 -10.167 47 -19.5s29.833 -23 38.5 -41s13 -40 13 -66c0 -44 -18.333 -78.333 -55 -103s-81.334 -37 -134.001 -37h-10c-45.333 0 -87.333 9.83301 -126 29.5
s-65.334 44.834 -80.001 75.501l13 12c12.667 -29.333 37.167 -53.333 73.5 -72s76.166 -28 119.499 -28h4c50 0 92 10.5 126 31.5s51 51.5 51 91.5c0 24 -3.83301 44 -11.5 60s-19 27.667 -34 35s-28.5 12.5 -40.5 15.5s-27.333 5.5 -46 7.5l-85 10
c-56.667 6.66699 -96 20.167 -118 40.5s-33 46.5 -33 78.5c0 38.667 17 69.5 51 92.5s75.667 34.5 125 34.5z" />
    <glyph glyph-name="t" unicode="t" horiz-adv-x="310" 
d="M168 484v-484h-18v484h-80v16h80v168h18v-168h81v-16h-81z" />
    <glyph glyph-name="u" unicode="u" horiz-adv-x="651" 
d="M556 0l-18.999 0.000976562v149c-20 -52.667 -51.333 -91.834 -94 -117.501s-86.334 -38.5 -131.001 -38.5c-66 0 -118.667 20 -158 60s-59 97.667 -59 173v274h18v-275c0 -70.667 17.667 -124.167 53 -160.5s84 -54.5 146 -54.5c68 0 122.667 23.333 164 70
s62 109.667 62 189v231h18v-500z" />
    <glyph glyph-name="v" unicode="v" horiz-adv-x="545" 
d="M275 0h-6l-229 500h19l213 -462l214 462h19z" />
    <glyph glyph-name="w" unicode="w" horiz-adv-x="935" 
d="M680 0h-5l-208 462l-207 -462h-6l-214 500h19l198 -462l209 462h3l208 -462l199 462h19z" />
    <glyph glyph-name="x" unicode="x" horiz-adv-x="552" 
d="M275 244l-212 -244h-23l223 257l-213 243h23l204 -233l202 233h22l-213 -245l223 -255h-23z" />
    <glyph glyph-name="y" unicode="y" horiz-adv-x="656" 
d="M561 500v-438.999c0 -79.333 -19.833 -141 -59.5 -185s-98.167 -66.333 -175.5 -67c-78 0 -147.333 25 -208 75l12 13c58.667 -48 124 -71.667 196 -71c144.667 0 217 78.667 217 236v87c-20 -52.667 -51.333 -91.834 -94 -117.501s-86.667 -38.5 -132 -38.5
c-66 0 -118.667 20 -158 60s-59 97.333 -59 172v275h18v-275c0 -70.667 17.667 -124.167 53 -160.5s84 -54.5 146 -54.5c68 0 122.667 23.333 164 70s62 109.667 62 189v231h18z" />
    <glyph glyph-name="z" unicode="z" horiz-adv-x="582" 
d="M512 0h-442v3l395 481h-360v16h393v-3l-395 -481h409v-16z" />
    <glyph glyph-name="braceleft" unicode="{" horiz-adv-x="358" 
d="M288 734l-36 -0.00195312c-14 0 -26 -5.33301 -36 -16s-15 -24 -15 -40v-260c0 -25.333 -7.16699 -48.166 -21.5 -68.499s-33.5 -35.166 -57.5 -44.499c24 -9.33301 43.167 -24.333 57.5 -45s21.5 -43.667 21.5 -69v-259c0 -16 5 -29.333 15 -40s22 -16 36 -16h36v-16
h-35c-19.333 0 -35.833 7 -49.5 21s-20.5 31.667 -20.5 53v259c0 28 -10.333 52 -31 72s-46.334 30.667 -77.001 32h-5v16h5c30.667 0.666992 56.334 11 77.001 31s31 44.333 31 73v259c0 21.333 6.83301 39 20.5 53s30.167 21 49.5 21h35v-16z" />
    <glyph glyph-name="bar" unicode="|" horiz-adv-x="159" 
d="M89 -60h-19v760h19v-760z" />
    <glyph glyph-name="braceright" unicode="}" horiz-adv-x="358" 
d="M70 750l35 0.00292969c18.667 0 34.834 -7 48.501 -21s20.5 -31.667 20.5 -53v-259c0 -28.667 10.5 -53 31.5 -73s46.833 -30.333 77.5 -31h5v-16h-5c-30.667 -1.33301 -56.5 -12 -77.5 -32s-31.5 -44 -31.5 -72v-259c0 -21.333 -6.83301 -39 -20.5 -53
s-29.834 -21 -48.501 -21h-35v16h35c14 0 26 5.33301 36 16s15 24 15 40v259c0 26 7.33301 49.167 22 69.5s34 35.166 58 44.499c-24 9.33301 -43.333 24.166 -58 44.499s-22 43.166 -22 68.499v260c0 16 -5 29.333 -15 40s-22 16 -36 16h-35v16z" />
    <glyph glyph-name="asciitilde" unicode="~" horiz-adv-x="543" 
d="M473 325l-44 -52c-16 -19.333 -36.5 -29 -61.5 -29s-49.167 6.66699 -72.5 20l-61 36c-15.333 10.667 -34 15.834 -56 15.501s-39 -8.5 -51 -24.5l-29 -39h-28l43 53c16.667 19.333 37.5 29 62.5 29s49.167 -7 72.5 -21l61 -36
c15.333 -10.667 33.833 -15.834 55.5 -15.501s38.5 8.5 50.5 24.5l30 39h28z" />
    <glyph glyph-name="exclamdown" unicode="&#xa1;" horiz-adv-x="181" 
d="M90 550c5.33301 0 10 -2 14 -6s6 -8.66699 6 -14s-2 -10 -6 -14s-8.66699 -6 -14 -6s-10 2 -14 6s-6 8.66699 -6 14s2 10 6 14s8.66699 6 14 6zM81 -157v330l5 228h8l5 -228v-330h-18z" />
    <glyph glyph-name="cent" unicode="&#xa2;" horiz-adv-x="594" 
d="M326 490l0.000976562 -479.001c76 0 137.667 29 185 87l12 -12c-50.667 -61.333 -116.334 -92 -197.001 -92v-92h-19v93c-66.667 4.66699 -122.834 31.334 -168.501 80.001s-68.5 107 -68.5 175s22.833 126.5 68.5 175.5s101.834 75.833 168.501 80.5v95h19v-94
c80 0 146 -31 198 -93l-13 -12c-48 58.667 -109.667 88 -185 88zM88.001 249.999c0 -63.333 21 -117.667 63 -163s94 -70.333 156 -75v477c-62 -4.66699 -114 -29.667 -156 -75s-63 -100 -63 -164z" />
    <glyph glyph-name="sterling" unicode="&#xa3;" horiz-adv-x="670" 
d="M601 16l-0.00292969 -15.9971h-531v20c24 4 42.333 7.66699 55 11s24.5 9.83301 35.5 19.5s18.333 20.5 22 32.5s5.66699 30.667 6 56s-1.5 53 -5.5 83s-10 70.333 -18 121h-95v16h92l-22 133c-6.66699 41.333 -5 76.666 5 105.999s26.333 51.5 49 66.5
s46.834 25.833 72.501 32.5s53.167 10 82.5 10h13c51.333 0 97.833 -10 139.5 -30s73.5 -49 95.5 -87l-11 -11c-22 36 -52.667 63.667 -92 83s-83.333 29 -132 29h-13c-26.667 0 -51.667 -3 -75 -9s-45.5 -15.833 -66.5 -29.5s-36.167 -34.334 -45.5 -62.001
s-10.666 -60.834 -3.99902 -99.501l23 -132h237v-16h-235c10.667 -64.667 17.834 -115 21.501 -151s3.66699 -66.667 0 -92s-10.667 -43.5 -21 -54.5s-25.833 -20.833 -46.5 -29.5h464z" />
    <glyph glyph-name="currency" unicode="&#xa4;" horiz-adv-x="552" 
d="M477 486l-48.999 -49c36 -39.333 54 -85.666 54 -138.999s-18 -99.666 -54 -138.999l50 -49l-14 -14l-49 50c-39.333 -36 -85.833 -54 -139.5 -54s-99.834 18 -138.501 54l-50 -50l-13 14l49 49c-35.333 39.333 -53 85.666 -53 138.999s18 99.666 54 138.999l-50 49
l14 14l49 -50c39.333 35.333 85.5 53 138.5 53s99.167 -17.667 138.5 -53l50 50zM143.001 166c36.667 -36.667 80.8311 -55.165 132.498 -55.498s95.834 17.834 132.501 54.501c36.667 36 55.167 80 55.5 132s-17.834 96.333 -54.501 133s-80.667 55.167 -132 55.5
s-95.666 -17.834 -132.999 -54.501c-36.667 -36.667 -55.167 -80.834 -55.5 -132.501s17.834 -95.834 54.501 -132.501z" />
    <glyph glyph-name="yen" unicode="&#xa5;" horiz-adv-x="725" 
d="M377 256h195v-19h-201v-89h201v-19h-201v-129h-18v129h-200v19h200v89h-200v19h193l-276 444h21l272 -436l271 436h21z" />
    <glyph glyph-name="brokenbar" unicode="&#xa6;" horiz-adv-x="159" 
d="M89 380h-19v319h19v-319zM89 -60h-19v319h19v-319z" />
    <glyph glyph-name="section" unicode="&#xa7;" horiz-adv-x="546" 
d="M265 624h15c34 0 68.667 -8.66699 104 -26s62 -39.666 80 -66.999l-13 -12c-16.667 26 -41.334 47.167 -74.001 63.5s-65 24.5 -97 24.5h-9c-46.667 0 -85.5 -10.167 -116.5 -30.5s-46.5 -47.166 -46.5 -80.499c0 -27.333 8.83301 -49.5 26.5 -66.5
s52.834 -28.5 105.501 -34.5l85 -9c41.333 -4.66699 76.666 -17.667 105.999 -39s44 -53.666 44 -96.999c0 -46.667 -20 -82.334 -60 -107.001c27.333 -18.667 41 -46.667 41 -84c0 -38.667 -16.833 -69.667 -50.5 -93s-75.5 -35 -125.5 -35h-15
c-34 0 -68.5 8.66699 -103.5 26s-61.5 39.666 -79.5 66.999l13 12c16 -26 40.333 -47 73 -63s65 -24 97 -24h9c46.667 0 85.5 10 116.5 30s46.5 46.667 46.5 80c0 27.333 -8.66699 49.5 -26 66.5s-52.666 28.5 -105.999 34.5l-84 9
c-41.333 4.66699 -76.833 17.667 -106.5 39s-44.5 53.666 -44.5 96.999c0 46 20 81.667 60 107c-27.333 19.333 -41 47.333 -41 84c0 38.667 16.833 69.667 50.5 93s75.5 35 125.5 35zM148 401c-39.333 -22 -59 -54 -59 -96c0 -38.667 13 -67 39 -85s57 -29 93 -33l84 -10
c38 -4 69 -11.667 93 -23c39.333 22 59 54 59 96c0 38.667 -13 67 -39 85s-57 29 -93 33l-84 10c-38 4 -69 11.667 -93 23z" />
    <glyph glyph-name="dieresis" unicode="&#xa8;" horiz-adv-x="371" 
d="M85 676c-4 0 -7.5 1.5 -10.5 4.5s-4.5 6.5 -4.5 10.5c0 10 5 15 15 15c10.667 0 16 -5 16 -15c0 -4 -1.5 -7.5 -4.5 -10.5s-6.83301 -4.5 -11.5 -4.5zM285 676c-4 0 -7.5 1.5 -10.5 4.5s-4.5 6.5 -4.5 10.5c0 10 5 15 15 15c10.667 0 16 -5 16 -15
c0 -4 -1.5 -7.5 -4.5 -10.5s-6.83301 -4.5 -11.5 -4.5z" />
    <glyph glyph-name="copyright" unicode="&#xa9;" horiz-adv-x="670" 
d="M335 700c75.333 0 138.333 -26.5 189 -79.5s76 -116.5 76 -190.5s-25.333 -137.5 -76 -190.5s-113.667 -79.5 -189 -79.5s-138.333 26.5 -189 79.5s-76 116.5 -76 190.5s25.333 137.5 76 190.5s113.667 79.5 189 79.5zM335 683c-70.667 0 -129.167 -24.667 -175.5 -74
s-69.5 -109 -69.5 -179s23.167 -129.667 69.5 -179s104.833 -74 175.5 -74s129.334 24.667 176.001 74s70 109 70 179s-23.333 129.667 -70 179s-105.334 74 -176.001 74zM337 608c55.333 0 100.667 -21.333 136 -64l-11 -11c-36 38.667 -77.667 58 -125 58
c-42.667 0 -79.667 -16 -111 -48s-47 -69.667 -47 -113s15.667 -80.833 47 -112.5s68.333 -47.5 111 -47.5c44.667 0 86 19.667 124 59l12 -13c-36 -42.667 -81.333 -64 -136 -64c-49.333 0 -91.333 17.333 -126 52s-52 76.667 -52 126s17.333 91.333 52 126
s76.667 52 126 52z" />
    <glyph glyph-name="guillemotleft" unicode="&#xab;" horiz-adv-x="384" 
d="M201 357l-101 -79l101 -78v-24l-131 103l131 103v-25zM314 357l-101 -79l101 -78v-24l-131 103l131 103v-25z" />
    <glyph glyph-name="logicalnot" unicode="&#xac;" horiz-adv-x="555" 
d="M467 303h-397v19h414v-145h-17v126z" />
    <glyph glyph-name="registered" unicode="&#xae;" horiz-adv-x="670" 
d="M335 700c75.333 0 138.333 -26.5 189 -79.5s76 -116.5 76 -190.5s-25.333 -137.5 -76 -190.5s-113.667 -79.5 -189 -79.5s-138.333 26.5 -189 79.5s-76 116.5 -76 190.5s25.333 137.5 76 190.5s113.667 79.5 189 79.5zM335 683c-70.667 0 -129.167 -24.667 -175.5 -74
s-69.5 -109 -69.5 -179s23.167 -129.667 69.5 -179s104.833 -74 175.5 -74s129.334 24.667 176.001 74s70 109 70 179s-23.333 129.667 -70 179s-105.334 74 -176.001 74zM190 601l187 -0.00195312c38.667 0 67.5 -9.16699 86.5 -27.5s28.5 -43.166 28.5 -74.499
c0 -30 -8.83301 -54.167 -26.5 -72.5s-44.5 -28.166 -80.5 -29.499l114 -138h-24l-115 138h-150v-138h-20v342zM209 582.998l0.000976562 -168h167c32 0 56 7.83301 72 23.5s24 35.834 24 60.501c0 25.333 -7.83301 45.666 -23.5 60.999s-39.834 23 -72.501 23h-167z" />
    <glyph glyph-name="macron" unicode="&#xaf;" horiz-adv-x="386" 
d="M316 683h-246v16h246v-16z" />
    <glyph glyph-name="degree" unicode="&#xb0;" horiz-adv-x="377" 
d="M188 707c33.333 0 61.5 -11.5 84.5 -34.5s34.5 -51.167 34.5 -84.5c0 -32.667 -11.667 -60.5 -35 -83.5s-51.333 -34.5 -84 -34.5s-60.5 11.5 -83.5 34.5s-34.5 50.833 -34.5 83.5s11.5 60.667 34.5 84s50.833 35 83.5 35zM188 689c-27.333 0 -50.5 -9.66699 -69.5 -29
s-28.5 -43.333 -28.5 -72c0 -28 9.5 -51.667 28.5 -71s42.167 -29 69.5 -29s50.666 9.66699 69.999 29s29 43 29 71c0 28.667 -9.66699 52.667 -29 72s-42.666 29 -69.999 29z" />
    <glyph glyph-name="plusminus" unicode="&#xb1;" horiz-adv-x="555" 
d="M286 368h198v-17h-198v-149h-18v149h-198v17h198v149h18v-149zM484 129h-414v19h414v-19z" />
    <glyph glyph-name="acute" unicode="&#xb4;" horiz-adv-x="240" 
d="M91 612h-21l60 87h40z" />
    <glyph glyph-name="paragraph" unicode="&#xb6;" horiz-adv-x="576" 
d="M505 681l-38 -0.000976562v-844h-18v844h-118v-844h-19v471c-72 0 -130.333 15.333 -175 46s-67 79.334 -67 146.001c0 67.333 22.667 117.5 68 150.5s104 49.5 176 49.5h191v-19z" />
    <glyph glyph-name="periodcentered" unicode="&#xb7;" horiz-adv-x="181" 
d="M90 317c5.33301 0 10 -2 14 -6s6 -8.66699 6 -14s-2 -10 -6 -14s-8.66699 -6 -14 -6s-10 2 -14 6s-6 8.66699 -6 14s2 10 6 14s8.66699 6 14 6z" />
    <glyph glyph-name="cedilla" unicode="&#xb8;" horiz-adv-x="249" 
d="M116 0l-11.001 -50.998c20.667 5.33301 38.167 2.66602 52.5 -8.00098s21.5 -27 21.5 -49c0 -24.667 -11.833 -41.667 -35.5 -51s-48.167 -6 -73.5 10v20c20.667 -16 40.834 -21.333 60.501 -16s29.5 17.666 29.5 36.999c0 18.667 -7.16699 31.167 -21.5 37.5
s-33.5 4.83301 -57.5 -4.5l16 75h19z" />
    <glyph glyph-name="guillemotright" unicode="&#xbb;" horiz-adv-x="384" 
d="M201 279l-131 -103v24l100 78l-100 79v25zM314 279l-131 -103v24l100 78l-100 79v25z" />
    <glyph glyph-name="onequarter" unicode="&#xbc;" horiz-adv-x="705" 
d="M154 657l-69 -83l-15 11l97 115h6v-318h-19v275zM181 0h-19l314 700h19zM587 72v-72h-19v72h-213v7l225 239h7v-228h47v-18h-47zM568 277l-175 -187h175v187z" />
    <glyph glyph-name="onehalf" unicode="&#xbd;" horiz-adv-x="790" 
d="M173 382h-19v275l-69 -83l-15 11l97 115h6v-318zM181 0h-19l314 700h19zM720 0l-304.002 0.00292969v6l198 123c26 15.333 45 30.166 57 44.499s18 31.166 18 50.499c0 20 -10.167 39 -30.5 57s-47.166 27 -80.499 27h-7c-29.333 0 -55.666 -6.83301 -78.999 -20.5
s-41 -28.834 -53 -45.501l-13 13c13.333 19.333 33 36 59 50s54.333 21 85 21h8c40 0 71.667 -10.5 95 -31.5s35 -44.833 35 -71.5c0 -24.667 -7.66699 -45.167 -23 -61.5s-39 -34.833 -71 -55.5l-143 -89h249v-17z" />
    <glyph glyph-name="threequarters" unicode="&#xbe;" horiz-adv-x="841" 
d="M341 694l-165.998 -131c9.33301 4.66699 26.333 7 51 7c43.333 0 76.5 -8.33301 99.5 -25s34.5 -38.667 34.5 -66c0 -30 -12.833 -54.833 -38.5 -74.5s-58.834 -29.5 -99.501 -29.5h-6c-38 0.666992 -69.5 8.33398 -94.5 23.001s-42.167 30 -51.5 46l14 13
c5.33301 -8.66699 12.166 -17.334 20.499 -26.001s23 -17.334 44 -26.001s44.5 -13 70.5 -13c34 0.666992 62.833 9.33398 86.5 26.001s35.5 37 35.5 61c0 20.667 -10 38 -30 52s-48 21 -84 21c-31.333 0 -56 -3.66699 -74 -11l-17 13l164 129h-193v17h234v-6zM317.002 0
h-19l314 700h19zM723.002 72v-72h-19v72h-213v7l225 239h7v-228h47v-18h-47zM704.002 277l-175 -187h175v187z" />
    <glyph glyph-name="questiondown" unicode="&#xbf;" 
d="M337 516c-5.33301 0 -10 2 -14 6s-6 8.66699 -6 14s2 10 6 14s8.66699 6 14 6s10 -2 14 -6s6 -8.66699 6 -14s-2 -10 -6 -14s-8.66699 -6 -14 -6zM321 -159l-12 -0.00292969c-68.667 2 -125.667 23.667 -171 65s-68 93.666 -68 156.999
c0 64.667 23.667 115.834 71 153.501s109.666 57.167 186.999 58.5v92h18v-109c-81.333 0 -144.666 -16.667 -189.999 -50s-68 -81.666 -68 -144.999c0 -60 21 -109 63 -147s95.333 -57.667 160 -59h4c65.333 0.666992 120 15.5 164 44.5s74.667 67.167 92 114.5l11 -11
c-16.667 -47.333 -48 -86.166 -94 -116.499s-101.667 -46.166 -167 -47.499z" />
    <glyph glyph-name="Agrave" unicode="&#xc0;" horiz-adv-x="692" 
d="M371 750h-21l-79 87h40zM642 0h-19l-102 244h-350l-102 -244h-19l293 700h6zM178 260h337l-169 402z" />
    <glyph glyph-name="Aacute" unicode="&#xc1;" horiz-adv-x="692" 
d="M342 750h-21l60 87h40zM642 0h-19l-102 244h-350l-102 -244h-19l293 700h6zM178 260h337l-169 402z" />
    <glyph glyph-name="Acircumflex" unicode="&#xc2;" horiz-adv-x="692" 
d="M473 750h-29l-98 76l-99 -76h-29l123 94h9zM642 0h-19l-102 244h-350l-102 -244h-19l293 700h6zM178 260h337l-169 402z" />
    <glyph glyph-name="Atilde" unicode="&#xc3;" horiz-adv-x="692" 
d="M482 840l-10.001 -34c-13.333 -42 -34.333 -63 -63 -63c-17.333 0 -33.333 8 -48 24l-38 43c-11.333 11.333 -23 17 -35 17s-21.333 -4 -28 -12s-12.667 -20.667 -18 -38l-7 -27h-20l10 33c13.333 42 34.333 63 63 63c18 0 34 -8 48 -24l38 -43
c10.667 -10.667 22.334 -16 35.001 -16c12 0 21.333 3.83301 28 11.5s12.667 20.5 18 38.5l7 27h20zM170.999 244l-102 -244h-19l293 700h6l293 -700h-19l-102 244h-350zM345.999 662l-168 -402h337z" />
    <glyph glyph-name="Adieresis" unicode="&#xc4;" horiz-adv-x="692" 
d="M247 750c-4 0 -7.5 1.5 -10.5 4.5s-4.5 6.5 -4.5 10.5c0 4.66699 1.5 8.5 4.5 11.5s6.5 4.5 10.5 4.5c10.667 0 16 -5.33301 16 -16c0 -4 -1.5 -7.5 -4.5 -10.5s-6.83301 -4.5 -11.5 -4.5zM447 750c-4 0 -7.5 1.5 -10.5 4.5s-4.5 6.5 -4.5 10.5
c0 4.66699 1.5 8.5 4.5 11.5s6.5 4.5 10.5 4.5c10.667 0 16 -5.33301 16 -16c0 -4 -1.5 -7.5 -4.5 -10.5s-6.83301 -4.5 -11.5 -4.5zM171 244l-102 -244h-19l293 700h6l293 -700h-19l-102 244h-350zM346 662l-168 -402h337z" />
    <glyph glyph-name="Aring" unicode="&#xc5;" horiz-adv-x="692" 
d="M345 892c19.333 0 36 -7 50 -21s21 -30.333 21 -49c0 -20 -7 -37 -21 -51s-30.667 -21 -50 -21c-20 0 -36.667 7 -50 21s-20 31 -20 51c0 18.667 6.83301 35 20.5 49s30.167 21 49.5 21zM345 874c-14.667 0 -26.667 -5.16895 -36 -15.502s-14 -22.5 -14 -36.5
c0 -15.333 4.5 -28.166 13.5 -38.499s21.167 -15.5 36.5 -15.5s27.833 5.33301 37.5 16s14.5 23.334 14.5 38.001c0 14 -4.83301 26.167 -14.5 36.5s-22.167 15.5 -37.5 15.5zM171 243.998l-102 -244h-19l293 700h6l293 -700h-19l-102 244h-350zM346 661.998l-168 -402h337z
" />
    <glyph glyph-name="AE" unicode="&#xc6;" horiz-adv-x="822" 
d="M360 364h384v-16h-384v-332h402v-16h-420v244h-171l-102 -244h-19l293 700h419v-16h-402v-320zM343 654l-165 -394h165v394z" />
    <glyph glyph-name="Ccedilla" unicode="&#xc7;" horiz-adv-x="761" 
d="M436 9c102 0 185.999 37.333 251.999 112l12 -13c-70 -76.667 -158 -115 -264 -115h-4l-9 -44c20.667 5.33301 38.167 2.66602 52.5 -8.00098s21.5 -27 21.5 -49c0 -24.667 -11.833 -41.667 -35.5 -51s-48.167 -6 -73.5 10v20c20.667 -16 40.834 -21.333 60.501 -16
s29.5 17.666 29.5 36.999c0 18.667 -7.16699 31.167 -21.5 37.5s-33.5 4.83301 -57.5 -4.5l15 69c-94 5.33301 -173.167 42.333 -237.5 111s-96.5 150.334 -96.5 245.001c0 98.667 34.667 182.834 104 252.501s153.333 104.5 252 104.5c105.333 0 193.333 -39 264 -117
l-12 -11c-67.333 74.667 -151.333 112 -252 112c-94 0 -173.833 -33.167 -239.5 -99.5s-98.5 -146.833 -98.5 -241.5c0 -95.333 32.833 -176 98.5 -242s145.5 -99 239.5 -99z" />
    <glyph glyph-name="Egrave" unicode="&#xc8;" horiz-adv-x="600" 
d="M359 750h-21l-79 87h40zM539 684h-401v-320h384v-16h-384v-332h401v-16h-419v700h419v-16z" />
    <glyph glyph-name="Eacute" unicode="&#xc9;" horiz-adv-x="600" 
d="M318 750h-21l60 87h40zM539 684h-401v-320h384v-16h-384v-332h401v-16h-419v700h419v-16z" />
    <glyph glyph-name="Ecircumflex" unicode="&#xca;" horiz-adv-x="600" 
d="M457 750h-29l-98 76l-99 -76h-29l123 94h9zM539 684h-401v-320h384v-16h-384v-332h401v-16h-419v700h419v-16z" />
    <glyph glyph-name="Edieresis" unicode="&#xcb;" horiz-adv-x="600" 
d="M225 781c4.66699 0 8.5 -1.5 11.5 -4.5s4.5 -6.5 4.5 -10.5c0 -10.667 -5.33301 -16 -16 -16c-4 0 -7.5 1.5 -10.5 4.5s-4.5 6.83301 -4.5 11.5c0 4 1.5 7.5 4.5 10.5s6.5 4.5 10.5 4.5zM425 781c4.66699 0 8.5 -1.5 11.5 -4.5s4.5 -6.5 4.5 -10.5
c0 -10.667 -5.33301 -16 -16 -16c-4 0 -7.5 1.5 -10.5 4.5s-4.5 6.83301 -4.5 11.5c0 4 1.5 7.5 4.5 10.5s6.5 4.5 10.5 4.5zM539 684h-401v-320h384v-16h-384v-332h401v-16h-419v700h419v-16z" />
    <glyph glyph-name="Igrave" unicode="&#xcc;" horiz-adv-x="419" 
d="M181 837l60 -87h-21l-79 87h40zM218 16h80v-16h-178v16h80v668h-80v16h178v-16h-80v-668z" />
    <glyph glyph-name="Iacute" unicode="&#xcd;" horiz-adv-x="419" 
d="M201 750h-21l60 87h40zM298 684h-80v-668h80v-16h-178v16h80v668h-80v16h178v-16z" />
    <glyph glyph-name="Icircumflex" unicode="&#xce;" horiz-adv-x="495" 
d="M375 750h-29l-98 76l-99 -76h-29l123 94h9zM336 684h-80v-668h80v-16h-178v16h80v668h-80v16h178v-16z" />
    <glyph glyph-name="Idieresis" unicode="&#xcf;" horiz-adv-x="471" 
d="M135 781c10.667 0 16 -5.33301 16 -16c0 -4 -1.5 -7.5 -4.5 -10.5s-6.83301 -4.5 -11.5 -4.5c-4 0 -7.5 1.5 -10.5 4.5s-4.5 6.5 -4.5 10.5c0 4.66699 1.5 8.5 4.5 11.5s6.5 4.5 10.5 4.5zM335 781c10.667 0 16 -5.33301 16 -16c0 -4 -1.5 -7.5 -4.5 -10.5
s-6.83301 -4.5 -11.5 -4.5c-4 0 -7.5 1.5 -10.5 4.5s-4.5 6.5 -4.5 10.5c0 4.66699 1.5 8.5 4.5 11.5s6.5 4.5 10.5 4.5zM324 684h-80v-668h80v-16h-178v16h80v668h-80v16h178v-16z" />
    <glyph glyph-name="Eth" unicode="&#xd0;" horiz-adv-x="840" 
d="M206 700h197c100.667 0 185.167 -32.333 253.5 -97s102.5 -149 102.5 -253s-34.167 -188.333 -102.5 -253s-152.833 -97 -253.5 -97h-197v343h-86v17h86v340zM224 16h179c96.667 0 177.167 30.5 241.5 91.5s96.5 141.833 96.5 242.5s-32.167 181.5 -96.5 242.5
s-144.833 91.5 -241.5 91.5h-179v-324h144v-17h-144v-327z" />
    <glyph glyph-name="Ntilde" unicode="&#xd1;" horiz-adv-x="731" 
d="M303 846c18 0 33.999 -8 47.999 -24l38 -43c10.667 -10.667 22.334 -16 35.001 -16c12 0 21.333 3.83301 28 11.5s12.667 20.5 18 38.5l7 27h20l-10 -34c-13.333 -42 -34.333 -63 -63 -63c-17.333 0 -33.333 8 -48 24l-38 43c-11.333 11.333 -23 17 -35 17
s-21.333 -4 -28 -12s-12.667 -20.667 -18 -38l-7 -27h-20l10 33c13.333 42 34.333 63 63 63zM619.999 0h-6l-486 653v-653h-18v700h6l486 -653v653h18v-700z" />
    <glyph glyph-name="Ograve" unicode="&#xd2;" horiz-adv-x="874" 
d="M397 837l60 -87h-21l-79 87h40zM436 707c98.667 0 182.834 -34.833 252.501 -104.5s104.5 -153.834 104.5 -252.501s-34.833 -182.834 -104.5 -252.501s-153.834 -104.5 -252.501 -104.5s-182.667 34.833 -252 104.5s-104 153.834 -104 252.501
s34.667 182.834 104 252.501s153.333 104.5 252 104.5zM436 691c-94 0 -173.833 -33.167 -239.5 -99.5s-98.5 -146.833 -98.5 -241.5c0 -95.333 32.833 -176 98.5 -242s145.5 -99 239.5 -99s174 33 240 99s99 146.667 99 242c0 94.667 -33 175.167 -99 241.5
s-146 99.5 -240 99.5z" />
    <glyph glyph-name="Oacute" unicode="&#xd3;" horiz-adv-x="874" 
d="M436 750h-21l60 87h40zM436 707c98.667 0 182.834 -34.833 252.501 -104.5s104.5 -153.834 104.5 -252.501s-34.833 -182.834 -104.5 -252.501s-153.834 -104.5 -252.501 -104.5s-182.667 34.833 -252 104.5s-104 153.834 -104 252.501s34.667 182.834 104 252.501
s153.333 104.5 252 104.5zM436 691c-94 0 -173.833 -33.167 -239.5 -99.5s-98.5 -146.833 -98.5 -241.5c0 -95.333 32.833 -176 98.5 -242s145.5 -99 239.5 -99s174 33 240 99s99 146.667 99 242c0 94.667 -33 175.167 -99 241.5s-146 99.5 -240 99.5z" />
    <glyph glyph-name="Ocircumflex" unicode="&#xd4;" horiz-adv-x="874" 
d="M564 750h-29l-98 76l-99 -76h-29l123 94h9zM436 707c98.667 0 182.834 -34.833 252.501 -104.5s104.5 -153.834 104.5 -252.501s-34.833 -182.834 -104.5 -252.501s-153.834 -104.5 -252.501 -104.5s-182.667 34.833 -252 104.5s-104 153.834 -104 252.501
s34.667 182.834 104 252.501s153.333 104.5 252 104.5zM436 691c-94 0 -173.833 -33.167 -239.5 -99.5s-98.5 -146.833 -98.5 -241.5c0 -95.333 32.833 -176 98.5 -242s145.5 -99 239.5 -99s174 33 240 99s99 146.667 99 242c0 94.667 -33 175.167 -99 241.5
s-146 99.5 -240 99.5z" />
    <glyph glyph-name="Otilde" unicode="&#xd5;" horiz-adv-x="874" 
d="M568 840l-10.001 -34c-13.333 -42 -34.333 -63 -63 -63c-17.333 0 -33.333 8 -48 24l-38 43c-11.333 11.333 -23 17 -35 17s-21.333 -4 -28 -12s-12.667 -20.667 -18 -38l-7 -27h-20l10 33c13.333 42 34.333 63 63 63c18 0 34 -8 48 -24l38 -43
c10.667 -10.667 22.334 -16 35.001 -16c12 0 21.333 3.83301 28 11.5s12.667 20.5 18 38.5l7 27h20zM435.999 707c98.667 0 182.834 -34.833 252.501 -104.5s104.5 -153.834 104.5 -252.501s-34.833 -182.834 -104.5 -252.501s-153.834 -104.5 -252.501 -104.5
s-182.667 34.833 -252 104.5s-104 153.834 -104 252.501s34.667 182.834 104 252.501s153.333 104.5 252 104.5zM435.999 691c-94 0 -173.833 -33.167 -239.5 -99.5s-98.5 -146.833 -98.5 -241.5c0 -95.333 32.833 -176 98.5 -242s145.5 -99 239.5 -99s174 33 240 99
s99 146.667 99 242c0 94.667 -33 175.167 -99 241.5s-146 99.5 -240 99.5z" />
    <glyph glyph-name="Odieresis" unicode="&#xd6;" horiz-adv-x="874" 
d="M337 750c-4 0 -7.5 1.5 -10.5 4.5s-4.5 6.5 -4.5 10.5c0 4.66699 1.5 8.5 4.5 11.5s6.5 4.5 10.5 4.5c10.667 0 16 -5.33301 16 -16c0 -4 -1.5 -7.5 -4.5 -10.5s-6.83301 -4.5 -11.5 -4.5zM537 750c-4 0 -7.5 1.5 -10.5 4.5s-4.5 6.5 -4.5 10.5
c0 4.66699 1.5 8.5 4.5 11.5s6.5 4.5 10.5 4.5c10.667 0 16 -5.33301 16 -16c0 -4 -1.5 -7.5 -4.5 -10.5s-6.83301 -4.5 -11.5 -4.5zM436 707c98.667 0 182.834 -34.833 252.501 -104.5s104.5 -153.834 104.5 -252.501s-34.833 -182.834 -104.5 -252.501
s-153.834 -104.5 -252.501 -104.5s-182.667 34.833 -252 104.5s-104 153.834 -104 252.501s34.667 182.834 104 252.501s153.333 104.5 252 104.5zM436 691c-94 0 -173.833 -33.167 -239.5 -99.5s-98.5 -146.833 -98.5 -241.5c0 -95.333 32.833 -176 98.5 -242
s145.5 -99 239.5 -99s174 33 240 99s99 146.667 99 242c0 94.667 -33 175.167 -99 241.5s-146 99.5 -240 99.5z" />
    <glyph glyph-name="multiply" unicode="&#xd7;" horiz-adv-x="446" 
d="M375 452l-139 -139l139 -140l-13 -13l-139 139l-140 -139l-13 13l139 140l-139 139l13 13l140 -139l139 139z" />
    <glyph glyph-name="Oslash" unicode="&#xd8;" horiz-adv-x="874" 
d="M793 700l-99.999 -102c66.667 -68.667 100 -151.334 100 -248.001c0 -98.667 -34.833 -182.834 -104.5 -252.501s-153.834 -104.5 -252.501 -104.5c-94.667 0 -175.667 32 -243 96l-88 -89h-25l100 102c-66.667 68.667 -100 151.334 -100 248.001
c0 98.667 34.667 182.834 104 252.501s153.333 104.5 252 104.5c94 0 175.333 -32.333 244 -97l88 90h25zM98.001 350c0 -92.667 31 -171.667 93 -237l478 486c-65.333 61.333 -143 92 -233 92c-94 0 -173.833 -33.167 -239.5 -99.5s-98.5 -146.833 -98.5 -241.5z
M775.001 350c0 91.333 -31.333 170 -94 236l-477 -485c64.667 -61.333 142 -92 232 -92c94 0 174 33 240 99s99 146.667 99 242z" />
    <glyph glyph-name="Ugrave" unicode="&#xd9;" horiz-adv-x="804" 
d="M367 837l60 -87h-21l-79 87h40zM693 700v-391c0 -94 -25 -170.167 -75 -228.5s-120.667 -87.5 -212 -87.5s-161.833 29.167 -211.5 87.5s-74.5 134.5 -74.5 228.5v391h18v-391c0 -90.667 23 -163.334 69 -218.001s112.333 -82 199 -82s153.167 27.333 199.5 82
s69.5 127.334 69.5 218.001v391h18z" />
    <glyph glyph-name="Uacute" unicode="&#xda;" horiz-adv-x="804" 
d="M406 750h-21l60 87h40zM693 700v-391c0 -94 -25 -170.167 -75 -228.5s-120.667 -87.5 -212 -87.5s-161.833 29.167 -211.5 87.5s-74.5 134.5 -74.5 228.5v391h18v-391c0 -90.667 23 -163.334 69 -218.001s112.333 -82 199 -82s153.167 27.333 199.5 82
s69.5 127.334 69.5 218.001v391h18z" />
    <glyph glyph-name="Ucircumflex" unicode="&#xdb;" horiz-adv-x="804" 
d="M505 750l-98 76l-99 -76h-29l123 94h9l123 -94h-29zM693 700v-391c0 -94 -25 -170.167 -75 -228.5s-120.667 -87.5 -212 -87.5s-161.833 29.167 -211.5 87.5s-74.5 134.5 -74.5 228.5v391h18v-391c0 -90.667 23 -163.334 69 -218.001s112.333 -82 199 -82
s153.167 27.333 199.5 82s69.5 127.334 69.5 218.001v391h18z" />
    <glyph glyph-name="Udieresis" unicode="&#xdc;" horiz-adv-x="804" 
d="M308 750c-4 0 -7.5 1.5 -10.5 4.5s-4.5 6.5 -4.5 10.5c0 4.66699 1.5 8.5 4.5 11.5s6.5 4.5 10.5 4.5c10.667 0 16 -5.33301 16 -16c0 -4 -1.5 -7.5 -4.5 -10.5s-6.83301 -4.5 -11.5 -4.5zM508 750c-4 0 -7.5 1.5 -10.5 4.5s-4.5 6.5 -4.5 10.5
c0 4.66699 1.5 8.5 4.5 11.5s6.5 4.5 10.5 4.5c10.667 0 16 -5.33301 16 -16c0 -4 -1.5 -7.5 -4.5 -10.5s-6.83301 -4.5 -11.5 -4.5zM693 700v-391c0 -94 -25 -170.167 -75 -228.5s-120.667 -87.5 -212 -87.5s-161.833 29.167 -211.5 87.5s-74.5 134.5 -74.5 228.5v391h18
v-391c0 -90.667 23 -163.334 69 -218.001s112.333 -82 199 -82s153.167 27.333 199.5 82s69.5 127.334 69.5 218.001v391h18z" />
    <glyph glyph-name="Yacute" unicode="&#xdd;" horiz-adv-x="685" 
d="M343 750h-21l60 87h40zM351 0h-18v245l-283 455h21l272 -436l271 436h21l-284 -454v-246z" />
    <glyph glyph-name="Thorn" unicode="&#xde;" horiz-adv-x="713" 
d="M138 605h193c86.667 0 158.5 -20.667 215.5 -62s85.5 -102 85.5 -182c0 -80.667 -28.5 -141.667 -85.5 -183s-128.833 -62 -215.5 -62h-193v-116h-18v700h18v-95zM138 132h193c82 0 149.667 19 203 57s80 95.333 80 172c0 52 -13.333 95.5 -40 130.5s-60.5 60 -101.5 75
s-88.167 22.5 -141.5 22.5h-193v-457z" />
    <glyph glyph-name="germandbls" unicode="&#xdf;" horiz-adv-x="664" 
d="M322 707h32.999c74 0 129.5 -16.833 166.5 -50.5s55.5 -76.834 55.5 -129.501c0 -84.667 -42.667 -138 -128 -160c50.667 -10.667 89 -31.5 115 -62.5s39 -70.167 39 -117.5c0 -60 -22.333 -107.333 -67 -142s-104.334 -52 -179.001 -52h-160v16h160
c70.667 0 126.334 15.667 167.001 47s61 75 61 131c0 54.667 -17.333 96.667 -52 126s-87.334 44 -158.001 44h-97v16h72c78 0 132.333 13.833 163 41.5s46 65.167 46 112.5c0 49.333 -16.667 89 -50 119s-84.666 45 -153.999 45h-33c-69.333 0 -120.666 -15 -153.999 -45
s-50 -69.333 -50 -118v-528h-18v527c0 52.667 18.5 95.834 55.5 129.501s92.5 50.5 166.5 50.5z" />
    <glyph glyph-name="agrave" unicode="&#xe0;" horiz-adv-x="684" 
d="M288 668l60 -88h-21l-79 88h40zM584 0h-19v154c-19.333 -47.333 -50.666 -85.833 -93.999 -115.5s-91.666 -44.5 -144.999 -44.5c-70.667 0 -131 25 -181 75s-75 110.333 -75 181s25 131.167 75 181.5s110.333 75.5 181 75.5c53.333 0 101.666 -14.833 144.999 -44.5
s74.666 -68.5 93.999 -116.5v154h19v-500zM327 11c66 0 122.167 23.165 168.5 69.498s69.5 102.833 69.5 169.5s-23.167 123.334 -69.5 170.001s-102.5 70 -168.5 70c-66.667 0 -123 -23.167 -169 -69.5s-69 -103.166 -69 -170.499c0 -66.667 23 -123.167 69 -169.5
s102.333 -69.5 169 -69.5z" />
    <glyph glyph-name="aacute" unicode="&#xe1;" horiz-adv-x="684" 
d="M328 580h-21l60 88h40zM584 0h-19v154c-19.333 -47.333 -50.666 -85.833 -93.999 -115.5s-91.666 -44.5 -144.999 -44.5c-70.667 0 -131 25 -181 75s-75 110.333 -75 181s25 131.167 75 181.5s110.333 75.5 181 75.5c53.333 0 101.666 -14.833 144.999 -44.5
s74.666 -68.5 93.999 -116.5v154h19v-500zM327 11c66 0 122.167 23.165 168.5 69.498s69.5 102.833 69.5 169.5s-23.167 123.334 -69.5 170.001s-102.5 70 -168.5 70c-66.667 0 -123 -23.167 -169 -69.5s-69 -103.166 -69 -170.499c0 -66.667 23 -123.167 69 -169.5
s102.333 -69.5 169 -69.5z" />
    <glyph glyph-name="acircumflex" unicode="&#xe2;" horiz-adv-x="684" 
d="M425 580l-98 76l-99 -76h-29l123 94h9l123 -94h-29zM584 0h-19v154c-19.333 -47.333 -50.666 -85.833 -93.999 -115.5s-91.666 -44.5 -144.999 -44.5c-70.667 0 -131 25 -181 75s-75 110.333 -75 181s25 131.167 75 181.5s110.333 75.5 181 75.5
c53.333 0 101.666 -14.833 144.999 -44.5s74.666 -68.5 93.999 -116.5v154h19v-500zM327 11c66 0 122.167 23.165 168.5 69.498s69.5 102.833 69.5 169.5s-23.167 123.334 -69.5 170.001s-102.5 70 -168.5 70c-66.667 0 -123 -23.167 -169 -69.5s-69 -103.166 -69 -170.499
c0 -66.667 23 -123.167 69 -169.5s102.333 -69.5 169 -69.5z" />
    <glyph glyph-name="atilde" unicode="&#xe3;" horiz-adv-x="684" 
d="M456 670l-10 -33c-13.333 -42.667 -34.333 -64 -63 -64c-18 0.666992 -34 8.66699 -48 24l-38 44c-12 10.667 -23.667 16 -35 16c-12 0 -21.333 -4 -28 -12s-12.667 -20.667 -18 -38l-7 -27h-20l10 33c13.333 42.667 34.333 64 63 64c17.333 0 33.333 -8 48 -24l38 -44
c12 -10.667 23.667 -16 35 -16c12 0 21.333 4 28 12s12.667 20.667 18 38l7 27h20zM584 0h-19v154c-19.333 -47.333 -50.666 -85.833 -93.999 -115.5s-91.666 -44.5 -144.999 -44.5c-70.667 0 -131 25 -181 75s-75 110.333 -75 181s25 131.167 75 181.5
s110.333 75.5 181 75.5c53.333 0 101.666 -14.833 144.999 -44.5s74.666 -68.5 93.999 -116.5v154h19v-500zM327 11c66 0 122.167 23.165 168.5 69.498s69.5 102.833 69.5 169.5s-23.167 123.334 -69.5 170.001s-102.5 70 -168.5 70c-66.667 0 -123 -23.167 -169 -69.5
s-69 -103.166 -69 -170.499c0 -66.667 23 -123.167 69 -169.5s102.333 -69.5 169 -69.5z" />
    <glyph glyph-name="adieresis" unicode="&#xe4;" horiz-adv-x="684" 
d="M227 580c-4 0 -7.5 1.5 -10.5 4.5s-4.5 6.83301 -4.5 11.5c0 4 1.5 7.5 4.5 10.5s6.5 4.5 10.5 4.5c4.66699 0 8.5 -1.5 11.5 -4.5s4.5 -6.5 4.5 -10.5c0 -10.667 -5.33301 -16 -16 -16zM427 580c-4 0 -7.5 1.5 -10.5 4.5s-4.5 6.83301 -4.5 11.5c0 4 1.5 7.5 4.5 10.5
s6.5 4.5 10.5 4.5c4.66699 0 8.5 -1.5 11.5 -4.5s4.5 -6.5 4.5 -10.5c0 -10.667 -5.33301 -16 -16 -16zM584 0h-19v154c-19.333 -47.333 -50.666 -85.833 -93.999 -115.5s-91.666 -44.5 -144.999 -44.5c-70.667 0 -131 25 -181 75s-75 110.333 -75 181s25 131.167 75 181.5
s110.333 75.5 181 75.5c53.333 0 101.666 -14.833 144.999 -44.5s74.666 -68.5 93.999 -116.5v154h19v-500zM327 11c66 0 122.167 23.165 168.5 69.498s69.5 102.833 69.5 169.5s-23.167 123.334 -69.5 170.001s-102.5 70 -168.5 70c-66.667 0 -123 -23.167 -169 -69.5
s-69 -103.166 -69 -170.499c0 -66.667 23 -123.167 69 -169.5s102.333 -69.5 169 -69.5z" />
    <glyph glyph-name="aring" unicode="&#xe5;" horiz-adv-x="684" 
d="M326 722c19.333 0 36 -6.83301 50 -20.5s21 -30.167 21 -49.5c0 -20 -7 -37 -21 -51s-30.667 -21 -50 -21c-20 0 -36.667 7 -50 21s-20 31 -20 51c0 19.333 6.66699 35.833 20 49.5s30 20.5 50 20.5zM326 705c-14.667 0 -26.667 -5.33496 -36 -16.002s-14 -23 -14 -37
c0 -15.333 4.5 -28.166 13.5 -38.499s21.167 -15.5 36.5 -15.5s27.833 5.33301 37.5 16s14.5 23.334 14.5 38.001c0 14 -5 26.333 -15 37s-22.333 16 -37 16zM584 -0.00195312h-19v154c-19.333 -47.333 -50.666 -85.833 -93.999 -115.5s-91.666 -44.5 -144.999 -44.5
c-70.667 0 -131 25 -181 75s-75 110.333 -75 181s25 131.167 75 181.5s110.333 75.5 181 75.5c53.333 0 101.666 -14.833 144.999 -44.5s74.666 -68.5 93.999 -116.5v154h19v-500zM327 10.998c66 0 122.167 23.165 168.5 69.498s69.5 102.833 69.5 169.5
s-23.167 123.334 -69.5 170.001s-102.5 70 -168.5 70c-66.667 0 -123 -23.167 -169 -69.5s-69 -103.166 -69 -170.499c0 -66.667 23 -123.167 69 -169.5s102.333 -69.5 169 -69.5z" />
    <glyph glyph-name="ae" unicode="&#xe6;" horiz-adv-x="1129" 
d="M326 507c53.333 0 101.668 -14.8311 145.001 -44.498s74.666 -68.5 93.999 -116.5v154h19v-149c18.667 47.333 49.167 85.166 91.5 113.499s91.166 42.5 146.499 42.5c54.667 0 102.167 -14.333 142.5 -43s69.166 -66.667 86.499 -114c5.33301 -15.333 9 -33 11 -53
s1.66699 -35.333 -1 -46h-477c0 -74 22.833 -132.5 68.5 -175.5s106.167 -64.5 181.5 -64.5c72.667 -0.666992 137.667 23 195 71l12 -13c-60.667 -50 -129.667 -75 -207 -75c-59.333 0.666992 -111 14.167 -155 40.5s-75.667 63.166 -95 110.499v-145h-19v154
c-19.333 -47.333 -50.666 -85.833 -93.999 -115.5s-91.666 -44.5 -144.999 -44.5c-70.667 0 -131 25 -181 75s-75 110.333 -75 181s25 131.167 75 181.5s110.333 75.5 181 75.5zM327.002 490.002c-66.667 0 -123 -23.1689 -169 -69.502s-69 -103.166 -69 -170.499
c0 -66.667 23 -123.167 69 -169.5s102.333 -69.5 169 -69.5c66 0 122.167 23.167 168.5 69.5s69.5 102.833 69.5 169.5s-23.167 123.334 -69.5 170.001s-102.5 70 -168.5 70zM822.002 490c-66 0 -120.999 -21.167 -164.999 -63.5s-68 -95.166 -72 -158.499h461
c1.33301 27.333 -2.33398 52.666 -11.001 75.999c-16.667 44.667 -43.5 80.167 -80.5 106.5s-81.167 39.5 -132.5 39.5z" />
    <glyph glyph-name="ccedilla" unicode="&#xe7;" horiz-adv-x="589" 
d="M326 11c76 0 137.667 29.0029 185 87.0029l12 -12c-50.667 -61.333 -116.334 -92 -197.001 -92h-1l-10 -45c20.667 5.33301 38.167 2.66602 52.5 -8.00098s21.5 -27 21.5 -49c0 -24.667 -11.833 -41.667 -35.5 -51s-48.167 -6 -73.5 10v20
c20.667 -16 40.834 -21.333 60.501 -16s29.5 17.666 29.5 36.999c0 18.667 -7.16699 31.167 -21.5 37.5s-33.5 4.83301 -57.5 -4.5l15 70c-66.667 5.33301 -122.667 32.333 -168 81s-68 106.667 -68 174c0 71.333 25 132 75 182s110.333 75 181 75c80 0 146 -31 198 -93
l-13 -12c-48 58.667 -109.667 88 -185 88c-66 0 -122.167 -23.333 -168.5 -70s-69.5 -103.334 -69.5 -170.001s23.167 -123.167 69.5 -169.5s102.5 -69.5 168.5 -69.5z" />
    <glyph glyph-name="egrave" unicode="&#xe8;" horiz-adv-x="634" 
d="M347 580h-21l-79 88h40zM326 507c54.667 0 102.167 -14.332 142.5 -42.999s69.5 -66.667 87.5 -114c5.33301 -15.333 9 -33 11 -53s1.66699 -35.333 -1 -46h-478c0 -74 22.833 -132.5 68.5 -175.5s106.167 -64.5 181.5 -64.5c72.667 -0.666992 138 23 196 71l12 -13
c-60.667 -50 -130 -75 -208 -75c-80 0.666992 -144.667 24.167 -194 70.5s-74 108.166 -74 185.499c0 72 24.333 132.833 73 182.5s109.667 74.5 183 74.5zM326 490.001c-66 0 -120.999 -21.167 -164.999 -63.5s-68 -95.166 -72 -158.499h461
c1.33301 27.333 -2.33398 52.666 -11.001 75.999c-16.667 44.667 -43.5 80.167 -80.5 106.5s-81.167 39.5 -132.5 39.5z" />
    <glyph glyph-name="eacute" unicode="&#xe9;" horiz-adv-x="634" 
d="M326 580h-21l60 88h40zM326 507c54.667 0 102.167 -14.332 142.5 -42.999s69.5 -66.667 87.5 -114c5.33301 -15.333 9 -33 11 -53s1.66699 -35.333 -1 -46h-478c0 -74 22.833 -132.5 68.5 -175.5s106.167 -64.5 181.5 -64.5c72.667 -0.666992 138 23 196 71l12 -13
c-60.667 -50 -130 -75 -208 -75c-80 0.666992 -144.667 24.167 -194 70.5s-74 108.166 -74 185.499c0 72 24.333 132.833 73 182.5s109.667 74.5 183 74.5zM326 490.001c-66 0 -120.999 -21.167 -164.999 -63.5s-68 -95.166 -72 -158.499h461
c1.33301 27.333 -2.33398 52.666 -11.001 75.999c-16.667 44.667 -43.5 80.167 -80.5 106.5s-81.167 39.5 -132.5 39.5z" />
    <glyph glyph-name="ecircumflex" unicode="&#xea;" horiz-adv-x="634" 
d="M454 580h-29l-98 76l-99 -76h-29l123 94h9zM326 507c54.667 0 102.167 -14.332 142.5 -42.999s69.5 -66.667 87.5 -114c5.33301 -15.333 9 -33 11 -53s1.66699 -35.333 -1 -46h-478c0 -74 22.833 -132.5 68.5 -175.5s106.167 -64.5 181.5 -64.5
c72.667 -0.666992 138 23 196 71l12 -13c-60.667 -50 -130 -75 -208 -75c-80 0.666992 -144.667 24.167 -194 70.5s-74 108.166 -74 185.499c0 72 24.333 132.833 73 182.5s109.667 74.5 183 74.5zM326 490.001c-66 0 -120.999 -21.167 -164.999 -63.5
s-68 -95.166 -72 -158.499h461c1.33301 27.333 -2.33398 52.666 -11.001 75.999c-16.667 44.667 -43.5 80.167 -80.5 106.5s-81.167 39.5 -132.5 39.5z" />
    <glyph glyph-name="edieresis" unicode="&#xeb;" horiz-adv-x="634" 
d="M229 611c4.66699 0 8.5 -1.5 11.5 -4.5s4.5 -6.5 4.5 -10.5c0 -10.667 -5.33301 -16 -16 -16c-4 0 -7.5 1.5 -10.5 4.5s-4.5 6.83301 -4.5 11.5c0 4 1.5 7.5 4.5 10.5s6.5 4.5 10.5 4.5zM429 611c4.66699 0 8.5 -1.5 11.5 -4.5s4.5 -6.5 4.5 -10.5
c0 -10.667 -5.33301 -16 -16 -16c-4 0 -7.5 1.5 -10.5 4.5s-4.5 6.83301 -4.5 11.5c0 4 1.5 7.5 4.5 10.5s6.5 4.5 10.5 4.5zM326 507c54.667 0 102.167 -14.332 142.5 -42.999s69.5 -66.667 87.5 -114c5.33301 -15.333 9 -33 11 -53s1.66699 -35.333 -1 -46h-478
c0 -74 22.833 -132.5 68.5 -175.5s106.167 -64.5 181.5 -64.5c72.667 -0.666992 138 23 196 71l12 -13c-60.667 -50 -130 -75 -208 -75c-80 0.666992 -144.667 24.167 -194 70.5s-74 108.166 -74 185.499c0 72 24.333 132.833 73 182.5s109.667 74.5 183 74.5zM326 490.001
c-66 0 -120.999 -21.167 -164.999 -63.5s-68 -95.166 -72 -158.499h461c1.33301 27.333 -2.33398 52.666 -11.001 75.999c-16.667 44.667 -43.5 80.167 -80.5 106.5s-81.167 39.5 -132.5 39.5z" />
    <glyph glyph-name="igrave" unicode="&#xec;" horiz-adv-x="306" 
d="M146 668l59 -88h-20l-80 88h41zM188 0v500h18v-500h-18z" />
    <glyph glyph-name="iacute" unicode="&#xed;" horiz-adv-x="305" 
d="M126 580h-21l60 88h40zM127 0v500h18v-500h-18z" />
    <glyph glyph-name="icircumflex" unicode="&#xee;" horiz-adv-x="461" 
d="M237 674l123 -94h-29l-98 76l-98 -76h-30l123 94h9zM241 0h-18v500h18v-500z" />
    <glyph glyph-name="idieresis" unicode="&#xef;" horiz-adv-x="436" 
d="M120 580c-4 0 -7.5 1.5 -10.5 4.5s-4.5 6.83301 -4.5 11.5c0 4 1.5 7.5 4.5 10.5s6.5 4.5 10.5 4.5s7.5 -1.5 10.5 -4.5s4.5 -6.5 4.5 -10.5c0 -4.66699 -1.5 -8.5 -4.5 -11.5s-6.5 -4.5 -10.5 -4.5zM320 580c-4 0 -7.5 1.5 -10.5 4.5s-4.5 6.83301 -4.5 11.5
c0 4 1.5 7.5 4.5 10.5s6.5 4.5 10.5 4.5c4.66699 0 8.5 -1.5 11.5 -4.5s4.5 -6.5 4.5 -10.5c0 -10.667 -5.33301 -16 -16 -16zM213 0v500h18v-500h-18z" />
    <glyph glyph-name="eth" unicode="&#xf0;" horiz-adv-x="683" 
d="M575 687l-52 -46c40 -44 60 -106 60 -186v-206c0 -71.333 -24.5 -131.833 -73.5 -181.5s-110.167 -74.5 -183.5 -74.5c-72.667 0 -133.5 25 -182.5 75s-73.5 110.667 -73.5 182c0 70.667 25 131 75 181s110.333 75 181 75c53.333 0 101.5 -14.5 144.5 -43.5
s74.5 -67.167 94.5 -114.5l-1 107c0 77.333 -18 135.333 -54 174l-88 -80l-14 13l89 80c-35.333 31.333 -85 47 -149 47c-72 2 -137.333 -21.333 -196 -70l-12 13c60.667 50 130 75 208 75c68.667 0 122.667 -17.667 162 -53l52 46zM327 10
c68.667 0 125.5 22.9971 170.5 68.9971s67.5 103 67.5 171c0 66.667 -23.167 123.334 -69.5 170.001s-102.5 70 -168.5 70c-66.667 0 -123 -23.167 -169 -69.5s-69 -103.166 -69 -170.499s22.5 -124.166 67.5 -170.499s101.833 -69.5 170.5 -69.5z" />
    <glyph glyph-name="ntilde" unicode="&#xf1;" horiz-adv-x="656" 
d="M461 670l-10 -33c-13.333 -42.667 -34.333 -64 -63 -64c-18 0.666992 -34 8.66699 -48 24l-38 44c-12 10.667 -23.667 16 -35 16c-12 0 -21.333 -4 -28 -12s-12.667 -20.667 -18 -38l-7 -27h-20l10 33c13.333 42.667 34.333 64 63 64c17.333 0 33.333 -8 48 -24l38 -44
c12 -10.667 23.667 -16 35 -16c12 0 21.333 4 28 12s12.667 20.667 18 38l7 27h20zM344 507c66 0 118.667 -19.999 158 -59.999s59 -97.667 59 -173v-274h-19v275c0 70.667 -17.667 124.167 -53 160.5s-83.666 54.5 -144.999 54.5c-68 0 -122.667 -23.333 -164 -70
s-62 -109.667 -62 -189v-231h-18v500h19v-149c20 53.333 51.167 92.666 93.5 117.999s86.166 38 131.499 38z" />
    <glyph glyph-name="ograve" unicode="&#xf2;" 
d="M287 668l60 -88h-21l-79 88h40zM326 507c70.667 0 131.167 -25.167 181.5 -75.5s75.5 -110.833 75.5 -181.5s-25 -131 -75 -181s-110.667 -75 -182 -75c-70.667 0 -131 25 -181 75s-75 110.333 -75 181c0 71.333 25 132 75 182s110.333 75 181 75zM327 490
c-66.667 0 -123 -23.1689 -169 -69.502s-69 -103.166 -69 -170.499c0 -66.667 23 -123.167 69 -169.5s102.333 -69.5 169 -69.5c66 0 122.167 23.167 168.5 69.5s69.5 102.833 69.5 169.5s-23.167 123.334 -69.5 170.001s-102.5 70 -168.5 70z" />
    <glyph glyph-name="oacute" unicode="&#xf3;" 
d="M326 580h-21l60 88h40zM326 507c70.667 0 131.167 -25.167 181.5 -75.5s75.5 -110.833 75.5 -181.5s-25 -131 -75 -181s-110.667 -75 -182 -75c-70.667 0 -131 25 -181 75s-75 110.333 -75 181c0 71.333 25 132 75 182s110.333 75 181 75zM327 490
c-66.667 0 -123 -23.1689 -169 -69.502s-69 -103.166 -69 -170.499c0 -66.667 23 -123.167 69 -169.5s102.333 -69.5 169 -69.5c66 0 122.167 23.167 168.5 69.5s69.5 102.833 69.5 169.5s-23.167 123.334 -69.5 170.001s-102.5 70 -168.5 70z" />
    <glyph glyph-name="ocircumflex" unicode="&#xf4;" 
d="M425 580l-98 76l-99 -76h-29l123 94h9l123 -94h-29zM326 507c70.667 0 131.167 -25.167 181.5 -75.5s75.5 -110.833 75.5 -181.5s-25 -131 -75 -181s-110.667 -75 -182 -75c-70.667 0 -131 25 -181 75s-75 110.333 -75 181c0 71.333 25 132 75 182s110.333 75 181 75z
M327 490c-66.667 0 -123 -23.1689 -169 -69.502s-69 -103.166 -69 -170.499c0 -66.667 23 -123.167 69 -169.5s102.333 -69.5 169 -69.5c66 0 122.167 23.167 168.5 69.5s69.5 102.833 69.5 169.5s-23.167 123.334 -69.5 170.001s-102.5 70 -168.5 70z" />
    <glyph glyph-name="otilde" unicode="&#xf5;" 
d="M460 670l-10 -33c-13.333 -42.667 -34.333 -64 -63 -64c-18 0.666992 -34 8.66699 -48 24l-38 44c-12 10.667 -23.667 16 -35 16c-12 0 -21.333 -4 -28 -12s-12.667 -20.667 -18 -38l-7 -27h-20l10 33c13.333 42.667 34.333 64 63 64c17.333 0 33.333 -8 48 -24l38 -44
c12 -10.667 23.667 -16 35 -16c12 0 21.333 4 28 12s12.667 20.667 18 38l7 27h20zM326 507c70.667 0 131.167 -25.167 181.5 -75.5s75.5 -110.833 75.5 -181.5s-25 -131 -75 -181s-110.667 -75 -182 -75c-70.667 0 -131 25 -181 75s-75 110.333 -75 181
c0 71.333 25 132 75 182s110.333 75 181 75zM327 490c-66.667 0 -123 -23.1689 -169 -69.502s-69 -103.166 -69 -170.499c0 -66.667 23 -123.167 69 -169.5s102.333 -69.5 169 -69.5c66 0 122.167 23.167 168.5 69.5s69.5 102.833 69.5 169.5s-23.167 123.334 -69.5 170.001
s-102.5 70 -168.5 70z" />
    <glyph glyph-name="odieresis" unicode="&#xf6;" 
d="M229 580c-4 0 -7.5 1.5 -10.5 4.5s-4.5 6.83301 -4.5 11.5c0 4 1.5 7.5 4.5 10.5s6.5 4.5 10.5 4.5c4.66699 0 8.5 -1.5 11.5 -4.5s4.5 -6.5 4.5 -10.5c0 -10.667 -5.33301 -16 -16 -16zM429 580c-4 0 -7.5 1.5 -10.5 4.5s-4.5 6.83301 -4.5 11.5c0 4 1.5 7.5 4.5 10.5
s6.5 4.5 10.5 4.5c4.66699 0 8.5 -1.5 11.5 -4.5s4.5 -6.5 4.5 -10.5c0 -10.667 -5.33301 -16 -16 -16zM326 507c70.667 0 131.167 -25.167 181.5 -75.5s75.5 -110.833 75.5 -181.5s-25 -131 -75 -181s-110.667 -75 -182 -75c-70.667 0 -131 25 -181 75s-75 110.333 -75 181
c0 71.333 25 132 75 182s110.333 75 181 75zM327 490c-66.667 0 -123 -23.1689 -169 -69.502s-69 -103.166 -69 -170.499c0 -66.667 23 -123.167 69 -169.5s102.333 -69.5 169 -69.5c66 0 122.167 23.167 168.5 69.5s69.5 102.833 69.5 169.5s-23.167 123.334 -69.5 170.001
s-102.5 70 -168.5 70z" />
    <glyph glyph-name="divide" unicode="&#xf7;" horiz-adv-x="555" 
d="M278 442c5.33301 0 10 -2 14 -6s6 -8.66699 6 -14c0 -6 -2 -10.833 -6 -14.5s-8.66699 -5.5 -14 -5.5s-10 1.83301 -14 5.5s-6 8.5 -6 14.5c0 5.33301 2 10 6 14s8.66699 6 14 6zM484 250h-414v16h414v-16zM278 109c5.33301 0 10 -2 14 -6s6 -8.66699 6 -14
s-2 -10 -6 -14s-8.66699 -6 -14 -6s-10 2 -14 6s-6 8.66699 -6 14s2 10 6 14s8.66699 6 14 6z" />
    <glyph glyph-name="oslash" unicode="&#xf8;" 
d="M583 500l-71 -73c47.333 -49.333 71 -108.333 71 -177c0 -70.667 -25 -131 -75 -181s-110.667 -75 -182 -75c-66.667 0 -124 22 -172 66l-59 -60h-25l71 73c-47.333 49.333 -71 108.333 -71 177c0 71.333 25 132 75 182s110.333 75 181 75c67.333 0 125 -22.333 173 -67
l59 60h25zM89 250c0 -64 21.333 -119.001 64 -165.001l335 343c-45.333 41.333 -99 62 -161 62c-66.667 0 -123 -23.167 -169 -69.5s-69 -103.166 -69 -170.499zM565 249.999c0 63.333 -21.668 118.333 -65.001 165l-334 -342c44.667 -41.333 98.334 -62 161.001 -62
c66 0 122.167 23.167 168.5 69.5s69.5 102.833 69.5 169.5z" />
    <glyph glyph-name="ugrave" unicode="&#xf9;" horiz-adv-x="651" 
d="M333 580h-21l-79 88h40zM556 0l-18.999 0.000976562v149c-20 -52.667 -51.333 -91.834 -94 -117.501s-86.334 -38.5 -131.001 -38.5c-66 0 -118.667 20 -158 60s-59 97.667 -59 173v274h18v-275c0 -70.667 17.667 -124.167 53 -160.5s84 -54.5 146 -54.5
c68 0 122.667 23.333 164 70s62 109.667 62 189v231h18v-500z" />
    <glyph glyph-name="uacute" unicode="&#xfa;" horiz-adv-x="651" 
d="M391 668l-79 -88h-21l60 88h40zM556 0l-18.999 0.000976562v149c-20 -52.667 -51.333 -91.834 -94 -117.501s-86.334 -38.5 -131.001 -38.5c-66 0 -118.667 20 -158 60s-59 97.667 -59 173v274h18v-275c0 -70.667 17.667 -124.167 53 -160.5s84 -54.5 146 -54.5
c68 0 122.667 23.333 164 70s62 109.667 62 189v231h18v-500z" />
    <glyph glyph-name="ucircumflex" unicode="&#xfb;" horiz-adv-x="651" 
d="M410 580l-98 76l-99 -76h-29l123 94h9l123 -94h-29zM556 0l-18.999 0.000976562v149c-20 -52.667 -51.333 -91.834 -94 -117.501s-86.334 -38.5 -131.001 -38.5c-66 0 -118.667 20 -158 60s-59 97.667 -59 173v274h18v-275c0 -70.667 17.667 -124.167 53 -160.5
s84 -54.5 146 -54.5c68 0 122.667 23.333 164 70s62 109.667 62 189v231h18v-500z" />
    <glyph glyph-name="udieresis" unicode="&#xfc;" horiz-adv-x="651" 
d="M220 611c4.66699 0 8.5 -1.5 11.5 -4.5s4.5 -6.5 4.5 -10.5c0 -10.667 -5.33301 -16 -16 -16c-4 0 -7.5 1.5 -10.5 4.5s-4.5 6.83301 -4.5 11.5c0 4 1.5 7.5 4.5 10.5s6.5 4.5 10.5 4.5zM420 611c4.66699 0 8.5 -1.5 11.5 -4.5s4.5 -6.5 4.5 -10.5
c0 -10.667 -5.33301 -16 -16 -16c-4 0 -7.5 1.5 -10.5 4.5s-4.5 6.83301 -4.5 11.5c0 4 1.5 7.5 4.5 10.5s6.5 4.5 10.5 4.5zM556 0l-18.999 0.000976562v149c-20 -52.667 -51.333 -91.834 -94 -117.501s-86.334 -38.5 -131.001 -38.5c-66 0 -118.667 20 -158 60
s-59 97.667 -59 173v274h18v-275c0 -70.667 17.667 -124.167 53 -160.5s84 -54.5 146 -54.5c68 0 122.667 23.333 164 70s62 109.667 62 189v231h18v-500z" />
    <glyph glyph-name="yacute" unicode="&#xfd;" horiz-adv-x="656" 
d="M317 580h-21l60 88h40zM561 500v-438.999c0 -79.333 -19.833 -141 -59.5 -185s-98.167 -66.333 -175.5 -67c-78 0 -147.333 25 -208 75l12 13c58.667 -48 124 -71.667 196 -71c144.667 0 217 78.667 217 236v87c-20 -52.667 -51.333 -91.834 -94 -117.501
s-86.667 -38.5 -132 -38.5c-66 0 -118.667 20 -158 60s-59 97.333 -59 172v275h18v-275c0 -70.667 17.667 -124.167 53 -160.5s84 -54.5 146 -54.5c68 0 122.667 23.333 164 70s62 109.667 62 189v231h18z" />
    <glyph glyph-name="thorn" unicode="&#xfe;" horiz-adv-x="689" 
d="M123 700l0.000976562 -354c20 48 51.667 86.833 95 116.5s91.666 44.5 144.999 44.5c70.667 0 131 -25.167 181 -75.5s75 -110.833 75 -181.5s-25 -131 -75 -181s-110.333 -75 -181 -75c-54 0 -102.5 14.833 -145.5 44.5s-74.5 68.5 -94.5 116.5v-339h-18v884h18z
M363.001 490c-66 0 -122.167 -23.3311 -168.5 -69.998s-69.5 -103.334 -69.5 -170.001s23.167 -123.167 69.5 -169.5s102.5 -69.5 168.5 -69.5c66.667 0 123 23.167 169 69.5s69 102.833 69 169.5c0 67.333 -23 124.166 -69 170.499s-102.333 69.5 -169 69.5z" />
    <glyph glyph-name="ydieresis" unicode="&#xff;" horiz-adv-x="656" 
d="M218 611c4.66699 0 8.5 -1.5 11.5 -4.5s4.5 -6.5 4.5 -10.5c0 -10.667 -5.33301 -16 -16 -16c-4 0 -7.5 1.5 -10.5 4.5s-4.5 6.83301 -4.5 11.5c0 4 1.5 7.5 4.5 10.5s6.5 4.5 10.5 4.5zM418 611c4.66699 0 8.5 -1.5 11.5 -4.5s4.5 -6.5 4.5 -10.5
c0 -10.667 -5.33301 -16 -16 -16c-4 0 -7.5 1.5 -10.5 4.5s-4.5 6.83301 -4.5 11.5c0 4 1.5 7.5 4.5 10.5s6.5 4.5 10.5 4.5zM118 500v-274.999c0 -70.667 17.667 -124.167 53 -160.5s84 -54.5 146 -54.5c68 0 122.667 23.333 164 70s62 109.667 62 189v231h18v-439
c0 -79.333 -19.833 -141 -59.5 -185s-98.167 -66.333 -175.5 -67c-78 0 -147.333 25 -208 75l12 13c58.667 -48 124 -71.667 196 -71c144.667 0 217 78.667 217 236v87c-20 -52.667 -51.333 -91.834 -94 -117.501s-86.667 -38.5 -132 -38.5c-66 0 -118.667 20 -158 60
s-59 97.333 -59 172v275h18z" />
    <glyph glyph-name="Amacron" unicode="&#x100;" horiz-adv-x="692" 
d="M468 750h-246v17h246v-17zM171 244l-102 -244h-19l293 700h6l293 -700h-19l-102 244h-350zM346 662l-168 -402h337z" />
    <glyph glyph-name="amacron" unicode="&#x101;" horiz-adv-x="684" 
d="M448 580h-246v17h246v-17zM584 0h-19v154c-19.333 -47.333 -50.666 -85.833 -93.999 -115.5s-91.666 -44.5 -144.999 -44.5c-70.667 0 -131 25 -181 75s-75 110.333 -75 181s25 131.167 75 181.5s110.333 75.5 181 75.5c53.333 0 101.666 -14.833 144.999 -44.5
s74.666 -68.5 93.999 -116.5v154h19v-500zM327 11c66 0 122.167 23.165 168.5 69.498s69.5 102.833 69.5 169.5s-23.167 123.334 -69.5 170.001s-102.5 70 -168.5 70c-66.667 0 -123 -23.167 -169 -69.5s-69 -103.166 -69 -170.499c0 -66.667 23 -123.167 69 -169.5
s102.333 -69.5 169 -69.5z" />
    <glyph glyph-name="Abreve" unicode="&#x102;" horiz-adv-x="692" 
d="M458 858h17.001c0 -30.667 -12.5 -56.334 -37.5 -77.001s-55.5 -31 -91.5 -31c-36.667 0 -67.334 10.333 -92.001 31s-37 46.334 -37 77.001h17c0 -26 10.667 -47.5 32 -64.5s48 -25.5 80 -25.5s58.667 8.5 80 25.5s32 38.5 32 64.5zM642.001 0h-19l-102 244h-350
l-102 -244h-19l293 700h6zM178.001 260h337l-169 402z" />
    <glyph glyph-name="abreve" unicode="&#x103;" horiz-adv-x="684" 
d="M438 688h17.001c0 -30.667 -12.5 -56.334 -37.5 -77.001s-55.5 -31 -91.5 -31c-36.667 0 -67.334 10.333 -92.001 31s-37 46.334 -37 77.001h17c0 -26 10.667 -47.5 32 -64.5s48 -25.5 80 -25.5s58.667 8.5 80 25.5s32 38.5 32 64.5zM326.001 507
c53.333 0 101.666 -14.833 144.999 -44.5s74.666 -68.5 93.999 -116.5v154h19v-500h-19v154c-19.333 -47.333 -50.666 -85.833 -93.999 -115.5s-91.666 -44.5 -144.999 -44.5c-70.667 0 -131 25 -181 75s-75 110.333 -75 181s25 131.167 75 181.5s110.333 75.5 181 75.5z
M327.001 490c-66.667 0 -123 -23.1689 -169 -69.502s-69 -103.166 -69 -170.499c0 -66.667 23 -123.167 69 -169.5s102.333 -69.5 169 -69.5c66 0 122.167 23.167 168.5 69.5s69.5 102.833 69.5 169.5s-23.167 123.334 -69.5 170.001s-102.5 70 -168.5 70z" />
    <glyph glyph-name="Aogonek" unicode="&#x104;" horiz-adv-x="692" 
d="M562 -82c0 -21.333 7.5 -37.667 22.5 -49s32.5 -17 52.5 -17h2v-17h-2c-25.333 0 -47.333 7.16699 -66 21.5s-28 34.833 -28 61.5c0 39.333 26.333 66.666 79 81.999h1l-102 244h-350l-102 -244h-19l293 700h6l293 -700c-53.333 -17.333 -80 -44.666 -80 -81.999z
M515 259.999l-169 402l-168 -402h337z" />
    <glyph glyph-name="aogonek" unicode="&#x105;" horiz-adv-x="684" 
d="M584 500v-500.001c-53.333 -17.333 -80 -44.666 -80 -81.999c0 -21.333 7.5 -37.666 22.5 -48.999s32.5 -17 52.5 -17h2v-17h-2c-25.333 0 -47.333 7.16699 -66 21.5s-28 34.833 -28 61.5c0 39.333 26.333 66.666 79 81.999h1v154
c-19.333 -47.333 -50.666 -85.833 -93.999 -115.5s-91.666 -44.5 -144.999 -44.5c-70.667 0 -131 25 -181 75s-75 110.333 -75 181s25 131.167 75 181.5s110.333 75.5 181 75.5c53.333 0 101.666 -14.833 144.999 -44.5s74.666 -68.5 93.999 -116.5v154h19zM327 10.999
c66 0 122.167 23.165 168.5 69.498s69.5 102.833 69.5 169.5s-23.167 123.334 -69.5 170.001s-102.5 70 -168.5 70c-66.667 0 -123 -23.167 -169 -69.5s-69 -103.166 -69 -170.499c0 -66.667 23 -123.167 69 -169.5s102.333 -69.5 169 -69.5z" />
    <glyph glyph-name="Cacute" unicode="&#x106;" horiz-adv-x="761" 
d="M437 750h-21l60 87h40zM436 707c105.333 0 193.333 -39.002 264 -117.002l-12 -11c-67.333 74.667 -151.333 112 -252 112c-94 0 -173.833 -33.167 -239.5 -99.5s-98.5 -146.833 -98.5 -241.5c0 -95.333 32.833 -176 98.5 -242s145.5 -99 239.5 -99
c102 0 186 37.333 252 112l12 -13c-70 -76.667 -158 -115 -264 -115c-98.667 0 -182.667 34.833 -252 104.5s-104 153.834 -104 252.501s34.667 182.834 104 252.501s153.333 104.5 252 104.5z" />
    <glyph glyph-name="cacute" unicode="&#x107;" horiz-adv-x="589" 
d="M299 580h-21l60 88h40zM326 507c80 0 146.001 -30.999 198.001 -92.999l-13 -12c-48 58.667 -109.667 88 -185 88c-66 0 -122.167 -23.333 -168.5 -70s-69.5 -103.334 -69.5 -170.001s23.167 -123.167 69.5 -169.5s102.5 -69.5 168.5 -69.5c76 0 137.667 29 185 87
l12 -12c-50.667 -61.333 -116.334 -92 -197.001 -92c-70.667 0 -131 25 -181 75s-75 110.333 -75 181c0 71.333 25 132 75 182s110.333 75 181 75z" />
    <glyph glyph-name="Cdotaccent" unicode="&#x10a;" horiz-adv-x="761" 
d="M436 781c10.667 0 16 -5.33301 16 -16c0 -4 -1.5 -7.5 -4.5 -10.5s-6.83301 -4.5 -11.5 -4.5c-4 0 -7.5 1.5 -10.5 4.5s-4.5 6.5 -4.5 10.5c0 4.66699 1.5 8.5 4.5 11.5s6.5 4.5 10.5 4.5zM436 707c105.333 0 193.333 -39.002 264 -117.002l-12 -11
c-67.333 74.667 -151.333 112 -252 112c-94 0 -173.833 -33.167 -239.5 -99.5s-98.5 -146.833 -98.5 -241.5c0 -95.333 32.833 -176 98.5 -242s145.5 -99 239.5 -99c102 0 186 37.333 252 112l12 -13c-70 -76.667 -158 -115 -264 -115c-98.667 0 -182.667 34.833 -252 104.5
s-104 153.834 -104 252.501s34.667 182.834 104 252.501s153.333 104.5 252 104.5z" />
    <glyph glyph-name="cdotaccent" unicode="&#x10b;" horiz-adv-x="589" 
d="M326 611c4.66699 0 8.5 -1.5 11.5 -4.5s4.5 -6.5 4.5 -10.5c0 -10.667 -5.33301 -16 -16 -16c-4 0 -7.5 1.5 -10.5 4.5s-4.5 6.83301 -4.5 11.5c0 4 1.5 7.5 4.5 10.5s6.5 4.5 10.5 4.5zM326 507c80 0 146.001 -30.999 198.001 -92.999l-13 -12
c-48 58.667 -109.667 88 -185 88c-66 0 -122.167 -23.333 -168.5 -70s-69.5 -103.334 -69.5 -170.001s23.167 -123.167 69.5 -169.5s102.5 -69.5 168.5 -69.5c76 0 137.667 29 185 87l12 -12c-50.667 -61.333 -116.334 -92 -197.001 -92c-70.667 0 -131 25 -181 75
s-75 110.333 -75 181c0 71.333 25 132 75 182s110.333 75 181 75z" />
    <glyph glyph-name="Ccaron" unicode="&#x10c;" horiz-adv-x="761" 
d="M441 750h-9l-123 94h29l99 -76l98 76h29zM436 707c105.333 0 193.333 -39.002 264 -117.002l-12 -11c-67.333 74.667 -151.333 112 -252 112c-94 0 -173.833 -33.167 -239.5 -99.5s-98.5 -146.833 -98.5 -241.5c0 -95.333 32.833 -176 98.5 -242s145.5 -99 239.5 -99
c102 0 186 37.333 252 112l12 -13c-70 -76.667 -158 -115 -264 -115c-98.667 0 -182.667 34.833 -252 104.5s-104 153.834 -104 252.501s34.667 182.834 104 252.501s153.333 104.5 252 104.5z" />
    <glyph glyph-name="ccaron" unicode="&#x10d;" horiz-adv-x="589" 
d="M331 580h-9l-123 94h29l99 -75l98 75h29zM326 507c80 0 146.001 -30.999 198.001 -92.999l-13 -12c-48 58.667 -109.667 88 -185 88c-66 0 -122.167 -23.333 -168.5 -70s-69.5 -103.334 -69.5 -170.001s23.167 -123.167 69.5 -169.5s102.5 -69.5 168.5 -69.5
c76 0 137.667 29 185 87l12 -12c-50.667 -61.333 -116.334 -92 -197.001 -92c-70.667 0 -131 25 -181 75s-75 110.333 -75 181c0 71.333 25 132 75 182s110.333 75 181 75z" />
    <glyph glyph-name="Dcaron" unicode="&#x10e;" horiz-adv-x="754" 
d="M352 750h-9l-123 94h29l99 -76l98 76h29zM120 700h197c100.667 0 185.167 -32.333 253.5 -97s102.5 -149 102.5 -253s-34.167 -188.333 -102.5 -253s-152.833 -97 -253.5 -97h-197v700zM138 684v-668h179c96.667 0 177.167 30.5 241.5 91.5s96.5 141.833 96.5 242.5
s-32.167 181.5 -96.5 242.5s-144.833 91.5 -241.5 91.5h-179z" />
    <glyph glyph-name="dcaron" unicode="&#x10f;" horiz-adv-x="816" 
d="M584 0h-19.001v154c-19.333 -47.333 -50.666 -85.833 -93.999 -115.5s-91.666 -44.5 -144.999 -44.5c-70.667 0 -131 25 -181 75s-75 110.333 -75 181s25 131.167 75 181.5s110.333 75.5 181 75.5c53.333 0 101.666 -14.833 144.999 -44.5s75 -68.5 95 -116.5v354h18
v-700zM636.999 613h-21l60 87h40zM326.999 11c66 0 122.167 23.165 168.5 69.498s69.5 102.833 69.5 169.5s-23.167 123.334 -69.5 170.001s-102.5 70 -168.5 70c-66.667 0 -123 -23.167 -169 -69.5s-69 -103.166 -69 -170.499c0 -66.667 23 -123.167 69 -169.5
s102.333 -69.5 169 -69.5z" />
    <glyph glyph-name="Dcroat" unicode="&#x110;" horiz-adv-x="840" 
d="M206 700h197c100.667 0 185.167 -32.333 253.5 -97s102.5 -149 102.5 -253s-34.167 -188.333 -102.5 -253s-152.833 -97 -253.5 -97h-197v343h-86v17h86v340zM224 16h179c96.667 0 177.167 30.5 241.5 91.5s96.5 141.833 96.5 242.5s-32.167 181.5 -96.5 242.5
s-144.833 91.5 -241.5 91.5h-179v-324h144v-17h-144v-327z" />
    <glyph glyph-name="dcroat" unicode="&#x111;" horiz-adv-x="775" 
d="M675 571h-91.001v-571h-19v154c-19.333 -47.333 -50.666 -85.833 -93.999 -115.5s-91.666 -44.5 -144.999 -44.5c-70.667 0 -131 25 -181 75s-75 110.333 -75 181s25 131.167 75 181.5s110.333 75.5 181 75.5c53.333 0 101.666 -14.833 144.999 -44.5s75 -68.5 95 -116.5
v225h-91v16h91v113h18v-113h91v-16zM326.999 11c66 0 122.167 23.165 168.5 69.498s69.5 102.833 69.5 169.5s-23.167 123.334 -69.5 170.001s-102.5 70 -168.5 70c-66.667 0 -123 -23.167 -169 -69.5s-69 -103.166 -69 -170.499c0 -66.667 23 -123.167 69 -169.5
s102.333 -69.5 169 -69.5z" />
    <glyph glyph-name="Emacron" unicode="&#x112;" horiz-adv-x="600" 
d="M447 750h-246v17h246v-17zM539 684h-401v-320h384v-16h-384v-332h401v-16h-419v700h419v-16z" />
    <glyph glyph-name="emacron" unicode="&#x113;" horiz-adv-x="634" 
d="M448 580h-246v17h246v-17zM326 507c54.667 0 102.167 -14.332 142.5 -42.999s69.5 -66.667 87.5 -114c5.33301 -15.333 9 -33 11 -53s1.66699 -35.333 -1 -46h-478c0 -74 22.833 -132.5 68.5 -175.5s106.167 -64.5 181.5 -64.5c72.667 -0.666992 138 23 196 71l12 -13
c-60.667 -50 -130 -75 -208 -75c-80 0.666992 -144.667 24.167 -194 70.5s-74 108.166 -74 185.499c0 72 24.333 132.833 73 182.5s109.667 74.5 183 74.5zM326 490.001c-66 0 -120.999 -21.167 -164.999 -63.5s-68 -95.166 -72 -158.499h461
c1.33301 27.333 -2.33398 52.666 -11.001 75.999c-16.667 44.667 -43.5 80.167 -80.5 106.5s-81.167 39.5 -132.5 39.5z" />
    <glyph glyph-name="Edotaccent" unicode="&#x116;" horiz-adv-x="600" 
d="M322 781c10.667 0 16 -5.33301 16 -16c0 -4 -1.5 -7.5 -4.5 -10.5s-6.83301 -4.5 -11.5 -4.5c-4 0 -7.5 1.5 -10.5 4.5s-4.5 6.5 -4.5 10.5c0 4.66699 1.5 8.5 4.5 11.5s6.5 4.5 10.5 4.5zM539 684h-401v-320h384v-16h-384v-332h401v-16h-419v700h419v-16z" />
    <glyph glyph-name="edotaccent" unicode="&#x117;" horiz-adv-x="634" 
d="M326 611c4.66699 0 8.5 -1.5 11.5 -4.5s4.5 -6.5 4.5 -10.5c0 -10.667 -5.33301 -16 -16 -16c-4 0 -7.5 1.5 -10.5 4.5s-4.5 6.83301 -4.5 11.5c0 4 1.5 7.5 4.5 10.5s6.5 4.5 10.5 4.5zM326 507c54.667 0 102.167 -14.332 142.5 -42.999s69.5 -66.667 87.5 -114
c5.33301 -15.333 9 -33 11 -53s1.66699 -35.333 -1 -46h-478c0 -74 22.833 -132.5 68.5 -175.5s106.167 -64.5 181.5 -64.5c72.667 -0.666992 138 23 196 71l12 -13c-60.667 -50 -130 -75 -208 -75c-80 0.666992 -144.667 24.167 -194 70.5s-74 108.166 -74 185.499
c0 72 24.333 132.833 73 182.5s109.667 74.5 183 74.5zM326 490.001c-66 0 -120.999 -21.167 -164.999 -63.5s-68 -95.166 -72 -158.499h461c1.33301 27.333 -2.33398 52.666 -11.001 75.999c-16.667 44.667 -43.5 80.167 -80.5 106.5s-81.167 39.5 -132.5 39.5z" />
    <glyph glyph-name="Eogonek" unicode="&#x118;" horiz-adv-x="600" 
d="M460 -82c0 -21.333 7.5 -37.667 22.5 -49s32.5 -17 52.5 -17h2v-17h-2c-25.333 0 -47.333 7.16699 -66 21.5s-28 34.833 -28 61.5c0 39.333 26.333 66.666 79 81.999h-400v700h419v-16h-401v-320h384v-16h-384v-332h401v-16h1c-53.333 -17.333 -80 -44.666 -80 -81.999z
" />
    <glyph glyph-name="eogonek" unicode="&#x119;" horiz-adv-x="634" 
d="M556 350c5.33301 -15.333 9 -33.001 11 -53.001s1.66699 -35.333 -1 -46h-478c0 -74 22.833 -132.5 68.5 -175.5s106.167 -64.5 181.5 -64.5c72.667 -0.666992 138 23 196 71l12 -13c-46 -37.333 -96.333 -60.666 -151 -69.999c-50.667 -17.333 -76 -44.333 -76 -81
c0 -21.333 7.5 -37.666 22.5 -48.999s32.5 -17 52.5 -17h2v-17h-2c-25.333 0 -47.333 7.16699 -66 21.5s-28 34.833 -28 61.5c0 35.333 21.333 61 64 77c-6 -0.666992 -14.667 -1 -26 -1c-80 0.666992 -144.667 24.167 -194 70.5s-74 108.166 -74 185.499
c0 72 24.333 132.833 73 182.5s109.667 74.5 183 74.5c54.667 0 102.167 -14.333 142.5 -43s69.5 -66.667 87.5 -114zM89 267.999h461.001c1.33301 27.333 -2.33398 52.666 -11.001 75.999c-16.667 44.667 -43.5 80.167 -80.5 106.5s-81.167 39.5 -132.5 39.5
c-66 0 -121 -21.167 -165 -63.5s-68 -95.166 -72 -158.499z" />
    <glyph glyph-name="Ecaron" unicode="&#x11a;" horiz-adv-x="600" 
d="M338 750h-9l-123 94h29l99 -76l98 76h29zM539 684h-401v-320h384v-16h-384v-332h401v-16h-419v700h419v-16z" />
    <glyph glyph-name="ecaron" unicode="&#x11b;" horiz-adv-x="634" 
d="M331 580h-9l-123 94h29l99 -75l98 75h29zM326 507c54.667 0 102.167 -14.332 142.5 -42.999s69.5 -66.667 87.5 -114c5.33301 -15.333 9 -33 11 -53s1.66699 -35.333 -1 -46h-478c0 -74 22.833 -132.5 68.5 -175.5s106.167 -64.5 181.5 -64.5
c72.667 -0.666992 138 23 196 71l12 -13c-60.667 -50 -130 -75 -208 -75c-80 0.666992 -144.667 24.167 -194 70.5s-74 108.166 -74 185.499c0 72 24.333 132.833 73 182.5s109.667 74.5 183 74.5zM326 490.001c-66 0 -120.999 -21.167 -164.999 -63.5
s-68 -95.166 -72 -158.499h461c1.33301 27.333 -2.33398 52.666 -11.001 75.999c-16.667 44.667 -43.5 80.167 -80.5 106.5s-81.167 39.5 -132.5 39.5z" />
    <glyph glyph-name="Gbreve" unicode="&#x11e;" horiz-adv-x="811" 
d="M548 858h17.001c0 -30.667 -12.5 -56.334 -37.5 -77.001s-55.5 -31 -91.5 -31c-36.667 0 -67.334 10.333 -92.001 31s-37 46.334 -37 77.001h17c0 -26 10.667 -47.5 32 -64.5s48 -25.5 80 -25.5s58.667 8.5 80 25.5s32 38.5 32 64.5zM436.001 707
c105.333 0 193.333 -39.002 264 -117.002l-12 -11c-67.333 74.667 -151.333 112 -252 112c-94 0 -173.833 -33.167 -239.5 -99.5s-98.5 -146.833 -98.5 -241.5c0 -95.333 32.833 -176 98.5 -242s145.5 -99 239.5 -99c98 0 180 35 246 105v217h-256v16h274v-239
c-70 -76.667 -158 -115 -264 -115c-98.667 0 -182.667 34.833 -252 104.5s-104 153.834 -104 252.501s34.667 182.834 104 252.501s153.333 104.5 252 104.5z" />
    <glyph glyph-name="gbreve" unicode="&#x11f;" horiz-adv-x="678" 
d="M433 688h17.001c0 -30.667 -12.5 -56.334 -37.5 -77.001s-55.5 -31 -91.5 -31c-36.667 0 -67.334 10.333 -92.001 31s-37 46.334 -37 77.001h17c0 -26 10.667 -47.5 32 -64.5s48 -25.5 80 -25.5s58.667 8.5 80 25.5s32 38.5 32 64.5zM321.001 507
c52.667 0 100.5 -14.668 143.5 -44.001s74.5 -67.666 94.5 -114.999v152h19v-439c0 -79.333 -19.833 -141 -59.5 -185s-98.167 -66.333 -175.5 -67c-78 0 -147.333 25 -208 75l12 13c58.667 -48 124 -71.667 196 -71c144.667 0 217 78.667 217 236v90
c-20 -47.333 -51.5 -85.5 -94.5 -114.5s-91.167 -43.5 -144.5 -43.5c-70.667 0 -131 25 -181 75s-75 110.333 -75 181s25 131.167 75 181.5s110.333 75.5 181 75.5zM322.001 489.999c-66.667 0 -123 -23.1709 -169 -69.5039s-69 -103.166 -69 -170.499
s23 -124.166 69 -170.499s102.333 -69.5 169 -69.5c66 0 122.167 23.333 168.5 70s69.5 103.334 69.5 170.001s-23.167 123.334 -69.5 170.001s-102.5 70 -168.5 70z" />
    <glyph glyph-name="Gdotaccent" unicode="&#x120;" horiz-adv-x="811" 
d="M436 781c10.667 0 16 -5.33301 16 -16c0 -4 -1.5 -7.5 -4.5 -10.5s-6.83301 -4.5 -11.5 -4.5c-4 0 -7.5 1.5 -10.5 4.5s-4.5 6.5 -4.5 10.5c0 4.66699 1.5 8.5 4.5 11.5s6.5 4.5 10.5 4.5zM436 707c105.333 0 193.333 -39.002 264 -117.002l-12 -11
c-67.333 74.667 -151.333 112 -252 112c-94 0 -173.833 -33.167 -239.5 -99.5s-98.5 -146.833 -98.5 -241.5c0 -95.333 32.833 -176 98.5 -242s145.5 -99 239.5 -99c98 0 180 35 246 105v217h-256v16h274v-239c-70 -76.667 -158 -115 -264 -115
c-98.667 0 -182.667 34.833 -252 104.5s-104 153.834 -104 252.501s34.667 182.834 104 252.501s153.333 104.5 252 104.5z" />
    <glyph glyph-name="gdotaccent" unicode="&#x121;" horiz-adv-x="678" 
d="M321 611c4.66699 0 8.5 -1.5 11.5 -4.5s4.5 -6.5 4.5 -10.5c0 -10.667 -5.33301 -16 -16 -16c-4 0 -7.5 1.5 -10.5 4.5s-4.5 6.83301 -4.5 11.5c0 4 1.5 7.5 4.5 10.5s6.5 4.5 10.5 4.5zM321 507c52.667 0 100.5 -14.668 143.5 -44.001s74.5 -67.666 94.5 -114.999v152
h19v-439c0 -79.333 -19.833 -141 -59.5 -185s-98.167 -66.333 -175.5 -67c-78 0 -147.333 25 -208 75l12 13c58.667 -48 124 -71.667 196 -71c144.667 0 217 78.667 217 236v90c-20 -47.333 -51.5 -85.5 -94.5 -114.5s-91.167 -43.5 -144.5 -43.5c-70.667 0 -131 25 -181 75
s-75 110.333 -75 181s25 131.167 75 181.5s110.333 75.5 181 75.5zM322 489.999c-66.667 0 -123 -23.1709 -169 -69.5039s-69 -103.166 -69 -170.499s23 -124.166 69 -170.499s102.333 -69.5 169 -69.5c66 0 122.167 23.333 168.5 70s69.5 103.334 69.5 170.001
s-23.167 123.334 -69.5 170.001s-102.5 70 -168.5 70z" />
    <glyph glyph-name="Gcommaaccent" unicode="&#x122;" horiz-adv-x="811" 
d="M436 707c105.333 0 193.333 -39.002 264 -117.002l-12 -11c-67.333 74.667 -151.333 112 -252 112c-94 0 -173.833 -33.167 -239.5 -99.5s-98.5 -146.833 -98.5 -241.5c0 -95.333 32.833 -176 98.5 -242s145.5 -99 239.5 -99c98 0 180 35 246 105v217h-256v16h274v-239
c-70 -76.667 -158 -115 -264 -115c-98.667 0 -182.667 34.833 -252 104.5s-104 153.834 -104 252.501s34.667 182.834 104 252.501s153.333 104.5 252 104.5zM399 -156.002h-21l60 87h40z" />
    <glyph glyph-name="gcommaaccent" unicode="&#x123;" horiz-adv-x="678" 
d="M321 507c52.667 0 100.5 -14.668 143.5 -44.001s74.5 -67.666 94.5 -114.999v152h19v-439c0 -79.333 -19.833 -141 -59.5 -185s-98.167 -66.333 -175.5 -67c-78 0 -147.333 25 -208 75l12 13c58.667 -48 124 -71.667 196 -71c144.667 0 217 78.667 217 236v90
c-20 -47.333 -51.5 -85.5 -94.5 -114.5s-91.167 -43.5 -144.5 -43.5c-70.667 0 -131 25 -181 75s-75 110.333 -75 181s25 131.167 75 181.5s110.333 75.5 181 75.5zM322 489.999c-66.667 0 -123 -23.1709 -169 -69.5039s-69 -103.166 -69 -170.499s23 -124.166 69 -170.499
s102.333 -69.5 169 -69.5c66 0 122.167 23.333 168.5 70s69.5 103.334 69.5 170.001s-23.167 123.334 -69.5 170.001s-102.5 70 -168.5 70zM284 -337.005h-21l60 87h40z" />
    <glyph glyph-name="Hbar" unicode="&#x126;" horiz-adv-x="952" 
d="M831 500h-100v-500h-18v349h-474v-349h-18v500h-101v17h101v183h18v-183h474v183h18v-183h100v-17zM713 500h-474v-135h474v135z" />
    <glyph glyph-name="hbar" unicode="&#x127;" horiz-adv-x="753" 
d="M441 507c66 0 118.666 -20.001 157.999 -60.001s59 -97.667 59 -173v-274h-19v275c0 70.667 -17.667 124.167 -53 160.5s-83.666 54.5 -144.999 54.5c-68 0 -122.667 -23.333 -164 -70s-62 -109.667 -62 -189v-231h-18v571h-92v17h92v112h18v-112h90v-17h-90v-220
c20 52.667 51.333 91.834 94 117.501s86.667 38.5 132 38.5z" />
    <glyph glyph-name="Imacron" unicode="&#x12a;" horiz-adv-x="485" 
d="M366 750h-246v17h246v-17zM253 16h80v-16h-178v16h80v668h-80v16h178v-16h-80v-668z" />
    <glyph glyph-name="imacron" unicode="&#x12b;" horiz-adv-x="452" 
d="M351 580h-246v17h246v-17zM220 0v500h18v-500h-18z" />
    <glyph glyph-name="Iogonek" unicode="&#x12e;" horiz-adv-x="419" 
d="M219 -82c0 -21.333 7.5 -37.667 22.5 -49s32.5 -17 52.5 -17h2v-17h-2c-25.333 0 -47.333 7.16699 -66 21.5s-28 34.833 -28 61.5c0 39.333 26.333 66.666 79 81.999h-159v16h80v668h-80v16h178v-16h-80v-668h80v-16h1c-53.333 -17.333 -80 -44.666 -80 -81.999z" />
    <glyph glyph-name="iogonek" unicode="&#x12f;" horiz-adv-x="310" 
d="M194 611c4.66699 0 8.5 -1.5 11.5 -4.5s4.5 -6.5 4.5 -10.5c0 -10.667 -5.33301 -16 -16 -16c-4 0 -7.5 1.5 -10.5 4.5s-4.5 6.83301 -4.5 11.5c0 4 1.5 7.5 4.5 10.5s6.5 4.5 10.5 4.5zM203 0l1 -0.000976562c-53.333 -17.333 -80 -44.666 -80 -81.999
c0 -21.333 7.5 -37.666 22.5 -48.999s32.5 -17 52.5 -17h3v-17h-3c-25.333 0 -47.333 7.16699 -66 21.5s-28 34.833 -28 61.5c0 39.333 26.333 66.666 79 81.999h1v500h18v-500z" />
    <glyph glyph-name="Idotaccent" unicode="&#x130;" horiz-adv-x="419" 
d="M210 750c-4 0 -7.5 1.5 -10.5 4.5s-4.5 6.5 -4.5 10.5c0 4.66699 1.5 8.5 4.5 11.5s6.5 4.5 10.5 4.5c10.667 0 16 -5.33301 16 -16c0 -4 -1.5 -7.5 -4.5 -10.5s-6.83301 -4.5 -11.5 -4.5zM218 16h80v-16h-178v16h80v668h-80v16h178v-16h-80v-668z" />
    <glyph glyph-name="dotlessi" unicode="&#x131;" horiz-adv-x="224" 
d="M105 0v500h18v-500h-18z" />
    <glyph glyph-name="IJ" unicode="&#x132;" horiz-adv-x="832" 
d="M298 684h-80v-668h80v-16h-178v16h80v668h-80v16h178v-16zM752 700l0.000976562 -480c0 -67.333 -18 -122 -54 -164s-89 -63 -159 -63c-69.333 0 -122 21 -158 63s-54 96.667 -54 164v18h18v-17c0 -64 16 -115.333 48 -154s80.667 -58 146 -58s114.166 19.333 146.499 58
s48.5 90 48.5 154v463h-273v16h291z" />
    <glyph glyph-name="ij" unicode="&#x133;" horiz-adv-x="367" 
d="M120 611c4.66699 0 8.5 -1.5 11.5 -4.5s4.5 -6.5 4.5 -10.5c0 -10.667 -5.33301 -16 -16 -16c-4 0 -7.5 1.5 -10.5 4.5s-4.5 6.83301 -4.5 11.5c0 4 1.5 7.5 4.5 10.5s6.5 4.5 10.5 4.5zM251 611c4.66699 0 8.5 -1.5 11.5 -4.5s4.5 -6.5 4.5 -10.5
c0 -10.667 -5.33301 -16 -16 -16c-4 0 -7.5 1.5 -10.5 4.5s-4.5 6.83301 -4.5 11.5c0 4 1.5 7.5 4.5 10.5s6.5 4.5 10.5 4.5zM130 0h-18v500h18v-500zM261 -184h-18v684h18v-684z" />
    <glyph glyph-name="Kcommaaccent" unicode="&#x136;" horiz-adv-x="691" 
d="M615 700l-142.001 -216c-36 -54.667 -61 -88.667 -75 -102c-10 -9.33301 -20.667 -16.666 -32 -21.999c12.667 -3.33301 23.667 -7.83301 33 -13.5s19.833 -15.834 31.5 -30.501s20.334 -26 26.001 -34s16.834 -25.333 33.501 -52l151 -230h-22l-141 218
c-16.667 26 -28 43.333 -34 52s-14.833 20.167 -26.5 34.5s-22.167 23.5 -31.5 27.5s-21 7.83301 -35 11.5s-30.667 5.5 -50 5.5h-163v-349h-18v700h18v-335h145c19.333 0 36.166 1.83301 50.499 5.5s26 7.5 35 11.5s19.5 13.167 31.5 27.5s20.833 25.833 26.5 34.5l34.5 52
l132 204h22zM303.999 -156h-21l60 87h40z" />
    <glyph glyph-name="kcommaaccent" unicode="&#x137;" horiz-adv-x="558" 
d="M495 0l-76 120l-34.5 52c-5.66699 8.66699 -14.5 20.167 -26.5 34.5s-22.5 23.5 -31.5 27.5s-20.667 7.83301 -35 11.5s-31.166 5.5 -50.499 5.5h-118v-251h-18v700h18v-433h101c16 0 29.833 0.666992 41.5 2s23 5.16602 34 11.499s19.333 11.333 25 15
s14 12.834 25 27.501s18.667 25.167 23 31.5s13.833 21.166 28.5 44.499l67 101h22l-76 -114c-2 -3.33301 -6.5 -10.166 -13.5 -20.499l-13.5 -20l-11.5 -16.5l-11.5 -16l-10 -13c-4.66699 -6 -8.5 -10.167 -11.5 -12.5s-6.66699 -5.5 -11 -9.5s-8.5 -7.16699 -12.5 -9.5
s-8.33301 -4.5 -13 -6.5c10 -2.66699 19.667 -7 29 -13s16.833 -11.333 22.5 -16s13.667 -14 24 -28s17.666 -24.167 21.999 -30.5s13.5 -20.5 27.5 -42.5l86 -132h-22zM239 -156h-21l60 87h40z" />
    <glyph glyph-name="Lacute" unicode="&#x139;" horiz-adv-x="590" 
d="M331 750h-21l60 87h40zM540 0h-420v700h18v-684h402v-16z" />
    <glyph glyph-name="lacute" unicode="&#x13a;" horiz-adv-x="306" 
d="M126 750h-21l60 87h40zM127 700h18v-700h-18v700z" />
    <glyph glyph-name="Lcommaaccent" unicode="&#x13b;" horiz-adv-x="590" 
d="M540 0h-420v700h18v-684h402v-16zM281 -156h-21l60 87h40z" />
    <glyph glyph-name="lcommaaccent" unicode="&#x13c;" horiz-adv-x="306" 
d="M165 700h18v-700h-18v700zM126 -156h-21l60 87h40z" />
    <glyph glyph-name="Lcaron" unicode="&#x13d;" horiz-adv-x="590" 
d="M540 0h-420v700h18v-684h402v-16zM461 613h-21l60 87h40z" />
    <glyph glyph-name="lcaron" unicode="&#x13e;" horiz-adv-x="354" 
d="M105 700h18v-700h-18v700zM175 613h-21l60 87h40z" />
    <glyph glyph-name="Ldot" unicode="&#x13f;" horiz-adv-x="590" 
d="M540 0h-420v700h18v-684h402v-16zM520 276c-5.33301 0 -10 2 -14 6s-6 8.66699 -6 14s2 10 6 14s8.66699 6 14 6s10 -2 14 -6s6 -8.66699 6 -14s-2 -10 -6 -14s-8.66699 -6 -14 -6z" />
    <glyph glyph-name="ldot" unicode="&#x140;" horiz-adv-x="301" 
d="M105 700h18v-700h-18v700zM180 317c5.33301 0 10 -2 14 -6s6 -8.66699 6 -14s-2 -10 -6 -14s-8.66699 -6 -14 -6s-10 2 -14 6s-6 8.66699 -6 14s2 10 6 14s8.66699 6 14 6z" />
    <glyph glyph-name="Lslash" unicode="&#x141;" horiz-adv-x="648" 
d="M598 16v-16h-420v446l-58 -26v21l58 26v233h18v-226l58 26v-21l-58 -26v-437h402z" />
    <glyph glyph-name="lslash" unicode="&#x142;" horiz-adv-x="340" 
d="M239 479l-57 -25v-454h-18v446l-59 -26v21l59 26v233h18v-225l57 25v-21z" />
    <glyph glyph-name="Nacute" unicode="&#x143;" horiz-adv-x="731" 
d="M361 750h-21l60 87h40zM620 0h-6l-486 653v-653h-18v700h6l486 -653v653h18v-700z" />
    <glyph glyph-name="nacute" unicode="&#x144;" horiz-adv-x="656" 
d="M344 580h-21l60 88h40zM344 507c66 0 118.667 -19.999 158 -59.999s59 -97.667 59 -173v-274h-19v275c0 70.667 -17.667 124.167 -53 160.5s-83.666 54.5 -144.999 54.5c-68 0 -122.667 -23.333 -164 -70s-62 -109.667 -62 -189v-231h-18v500h19v-149
c20 53.333 51.167 92.666 93.5 117.999s86.166 38 131.499 38z" />
    <glyph glyph-name="Ncommaaccent" unicode="&#x145;" horiz-adv-x="731" 
d="M620 0h-6l-486 653v-653h-18v700h6l486 -653v653h18v-700zM316 -156h-21l60 87h40z" />
    <glyph glyph-name="ncommaaccent" unicode="&#x146;" horiz-adv-x="656" 
d="M344 507c66 0 118.667 -19.999 158 -59.999s59 -97.667 59 -173v-274h-19v275c0 70.667 -17.667 124.167 -53 160.5s-83.666 54.5 -144.999 54.5c-68 0 -122.667 -23.333 -164 -70s-62 -109.667 -62 -189v-231h-18v500h19v-149c20 53.333 51.167 92.666 93.5 117.999
s86.166 38 131.499 38zM306 -155.999h-21l60 87h40z" />
    <glyph glyph-name="Ncaron" unicode="&#x147;" horiz-adv-x="731" 
d="M354 768l98 76h29l-123 -94h-9l-123 94h29zM620 0h-6l-486 653v-653h-18v700h6l486 -653v653h18v-700z" />
    <glyph glyph-name="ncaron" unicode="&#x148;" horiz-adv-x="656" 
d="M349 580h-9l-123 94h29l99 -75l98 75h29zM344 507c66 0 118.667 -19.999 158 -59.999s59 -97.667 59 -173v-274h-19v275c0 70.667 -17.667 124.167 -53 160.5s-83.666 54.5 -144.999 54.5c-68 0 -122.667 -23.333 -164 -70s-62 -109.667 -62 -189v-231h-18v500h19v-149
c20 53.333 51.167 92.666 93.5 117.999s86.166 38 131.499 38z" />
    <glyph glyph-name="Eng" unicode="&#x14a;" horiz-adv-x="731" 
d="M620 700l-0.000976562 -714c0 -62 -17.833 -107.5 -53.5 -136.5s-77.5 -42.167 -125.5 -39.5l-12 1l1 15h10c44.667 0 82.834 12.5 114.501 37.5s47.5 65.833 47.5 122.5v31l-474 636v-653h-18v700h6l486 -653v653h18z" />
    <glyph glyph-name="eng" unicode="&#x14b;" horiz-adv-x="656" 
d="M344 507c66 0 118.667 -20.001 158 -60.001s59 -97.667 59 -173v-288c0 -61.333 -17.833 -106.666 -53.5 -135.999s-77.5 -42.666 -125.5 -39.999l-13 1l2 15h10c44.667 0 82.667 12.333 114 37s47.333 65.667 48 123l-1 289c0 70.667 -17.667 124.167 -53 160.5
s-83.666 54.5 -144.999 54.5c-68 0 -122.667 -23.333 -164 -70s-62 -109.667 -62 -189v-231h-18v500h19v-149c20 53.333 51.167 92.666 93.5 117.999s86.166 38 131.499 38z" />
    <glyph glyph-name="Omacron" unicode="&#x14c;" horiz-adv-x="874" 
d="M561 750h-246v17h246v-17zM436 707c98.667 0 182.834 -34.833 252.501 -104.5s104.5 -153.834 104.5 -252.501s-34.833 -182.834 -104.5 -252.501s-153.834 -104.5 -252.501 -104.5s-182.667 34.833 -252 104.5s-104 153.834 -104 252.501s34.667 182.834 104 252.501
s153.333 104.5 252 104.5zM436 691c-94 0 -173.833 -33.167 -239.5 -99.5s-98.5 -146.833 -98.5 -241.5c0 -95.333 32.833 -176 98.5 -242s145.5 -99 239.5 -99s174 33 240 99s99 146.667 99 242c0 94.667 -33 175.167 -99 241.5s-146 99.5 -240 99.5z" />
    <glyph glyph-name="omacron" unicode="&#x14d;" 
d="M449 580h-246v17h246v-17zM326 507c70.667 0 131.167 -25.167 181.5 -75.5s75.5 -110.833 75.5 -181.5s-25 -131 -75 -181s-110.667 -75 -182 -75c-70.667 0 -131 25 -181 75s-75 110.333 -75 181c0 71.333 25 132 75 182s110.333 75 181 75zM327 490
c-66.667 0 -123 -23.1689 -169 -69.502s-69 -103.166 -69 -170.499c0 -66.667 23 -123.167 69 -169.5s102.333 -69.5 169 -69.5c66 0 122.167 23.167 168.5 69.5s69.5 102.833 69.5 169.5s-23.167 123.334 -69.5 170.001s-102.5 70 -168.5 70z" />
    <glyph glyph-name="Ohungarumlaut" unicode="&#x150;" horiz-adv-x="874" 
d="M393 750h-21l60 87h40zM494 750h-21l60 87h40zM436 707c98.667 0 182.834 -34.833 252.501 -104.5s104.5 -153.834 104.5 -252.501s-34.833 -182.834 -104.5 -252.501s-153.834 -104.5 -252.501 -104.5s-182.667 34.833 -252 104.5s-104 153.834 -104 252.501
s34.667 182.834 104 252.501s153.333 104.5 252 104.5zM436 691c-94 0 -173.833 -33.167 -239.5 -99.5s-98.5 -146.833 -98.5 -241.5c0 -95.333 32.833 -176 98.5 -242s145.5 -99 239.5 -99s174 33 240 99s99 146.667 99 242c0 94.667 -33 175.167 -99 241.5
s-146 99.5 -240 99.5z" />
    <glyph glyph-name="ohungarumlaut" unicode="&#x151;" 
d="M276 580h-21l60 88h40zM378 580h-21l60 88h40zM326 507c70.667 0 131.167 -25.167 181.5 -75.5s75.5 -110.833 75.5 -181.5s-25 -131 -75 -181s-110.667 -75 -182 -75c-70.667 0 -131 25 -181 75s-75 110.333 -75 181c0 71.333 25 132 75 182s110.333 75 181 75zM327 490
c-66.667 0 -123 -23.1689 -169 -69.502s-69 -103.166 -69 -170.499c0 -66.667 23 -123.167 69 -169.5s102.333 -69.5 169 -69.5c66 0 122.167 23.167 168.5 69.5s69.5 102.833 69.5 169.5s-23.167 123.334 -69.5 170.001s-102.5 70 -168.5 70z" />
    <glyph glyph-name="OE" unicode="&#x152;" horiz-adv-x="1255" 
d="M793 364l384 -0.00195312v-16h-384v-332h401v-16h-419v234c-24.667 -71.333 -68 -129.333 -130 -174s-131.667 -67 -209 -67c-98.667 0 -182.667 34.833 -252 104.5s-104 153.834 -104 252.501s34.667 182.834 104 252.501s153.333 104.5 252 104.5
c77.333 0 147 -22.333 209 -67s105.333 -102.667 130 -174v234h419v-16h-401v-320zM436 8.99805c94 0 174 33 240 99s99 146.667 99 242c0 94.667 -33 175.167 -99 241.5s-146 99.5 -240 99.5s-173.833 -33.167 -239.5 -99.5s-98.5 -146.833 -98.5 -241.5
c0 -95.333 32.833 -176 98.5 -242s145.5 -99 239.5 -99z" />
    <glyph glyph-name="oe" unicode="&#x153;" horiz-adv-x="1128" 
d="M821 507c54.667 0 102.167 -14.3311 142.5 -42.998s69.166 -66.667 86.499 -114c5.33301 -15.333 9 -33 11 -53s1.66699 -35.333 -1 -46h-477c0 -74 22.833 -132.5 68.5 -175.5s106.167 -64.5 181.5 -64.5c72.667 -0.666992 137.667 23 195 71l12 -13
c-60.667 -50 -129.667 -75 -207 -75c-66 0.666992 -122.167 17.167 -168.5 49.5s-76.833 76.833 -91.5 133.5c-16 -54 -46.667 -98 -92 -132s-97 -51 -155 -51c-70.667 0 -131 25 -181 75s-75 110.333 -75 181c0 71.333 25 132 75 182s110.333 75 181 75
c58 0 109.833 -17.333 155.5 -52s76.167 -79.334 91.5 -134.001c15.333 55.333 45.333 100.166 90 134.499s97.334 51.5 158.001 51.5zM327 490.002c-66.667 0 -123 -23.1689 -169 -69.502s-69 -103.166 -69 -170.499c0 -66.667 23 -123.167 69 -169.5
s102.333 -69.5 169 -69.5c66 0 122.167 23.167 168.5 69.5s69.5 102.833 69.5 169.5s-23.167 123.334 -69.5 170.001s-102.5 70 -168.5 70zM821 490c-66 0 -120.999 -21.167 -164.999 -63.5s-68 -95.166 -72 -158.499h461c1.33301 27.333 -2.33398 52.666 -11.001 75.999
c-16.667 44.667 -43.5 80.167 -80.5 106.5s-81.167 39.5 -132.5 39.5z" />
    <glyph glyph-name="Racute" unicode="&#x154;" horiz-adv-x="682" 
d="M331 750h-21l60 87h40zM120 700l211 0.000976562c86 0 157.667 -20.333 215 -61s86 -100.334 86 -179.001c0 -62 -18.833 -112.5 -56.5 -151.5s-87.5 -65.167 -149.5 -78.5c46 -13.333 88 -49.333 126 -108l80 -122h-22l-70 109c-29.333 46 -57.833 76.167 -85.5 90.5
s-63.5 21.5 -107.5 21.5h-209v-221h-18v700zM138 684.001v-447h193c82 0 149.667 18.667 203 56s80 93 80 167c0 74.667 -26.667 130.667 -80 168s-121 56 -203 56h-193z" />
    <glyph glyph-name="racute" unicode="&#x155;" horiz-adv-x="421" 
d="M233 580h-21l60 88h40zM380 490l-6.00098 -0.000976562c-89.333 0 -154.333 -26.5 -195 -79.5s-61 -122.167 -61 -207.5v-203h-18v500h19v-161c19.333 56.667 51.333 98.834 96 126.501s98.334 41.5 161.001 41.5h4v-17z" />
    <glyph glyph-name="Rcommaaccent" unicode="&#x156;" horiz-adv-x="682" 
d="M120 700l211 0.000976562c86 0 157.667 -20.333 215 -61s86 -100.334 86 -179.001c0 -62 -18.833 -112.5 -56.5 -151.5s-87.5 -65.167 -149.5 -78.5c46 -13.333 88 -49.333 126 -108l80 -122h-22l-70 109c-29.333 46 -57.833 76.167 -85.5 90.5s-63.5 21.5 -107.5 21.5
h-209v-221h-18v700zM138 684.001v-447h193c82 0 149.667 18.667 203 56s80 93 80 167c0 74.667 -26.667 130.667 -80 168s-121 56 -203 56h-193zM293 -155.999h-21l60 87h40z" />
    <glyph glyph-name="rcommaaccent" unicode="&#x157;" horiz-adv-x="421" 
d="M380 490l-6.00098 -0.000976562c-89.333 0 -154.333 -26.5 -195 -79.5s-61 -122.167 -61 -207.5v-203h-18v500h19v-161c19.333 56.667 51.333 98.834 96 126.501s98.334 41.5 161.001 41.5h4v-17zM188.999 -156.001h-21l60 87h40z" />
    <glyph glyph-name="Rcaron" unicode="&#x158;" horiz-adv-x="682" 
d="M358 750h-9l-123 94h29l99 -76l98 76h29zM120 700l211 0.000976562c86 0 157.667 -20.333 215 -61s86 -100.334 86 -179.001c0 -62 -18.833 -112.5 -56.5 -151.5s-87.5 -65.167 -149.5 -78.5c46 -13.333 88 -49.333 126 -108l80 -122h-22l-70 109
c-29.333 46 -57.833 76.167 -85.5 90.5s-63.5 21.5 -107.5 21.5h-209v-221h-18v700zM138 684.001v-447h193c82 0 149.667 18.667 203 56s80 93 80 167c0 74.667 -26.667 130.667 -80 168s-121 56 -203 56h-193z" />
    <glyph glyph-name="rcaron" unicode="&#x159;" horiz-adv-x="421" 
d="M241 580h-9l-123 94h29l99 -75l98 75h29zM380 490l-6.00098 -0.000976562c-89.333 0 -154.333 -26.5 -195 -79.5s-61 -122.167 -61 -207.5v-203h-18v500h19v-161c19.333 56.667 51.333 98.834 96 126.501s98.334 41.5 161.001 41.5h4v-17z" />
    <glyph glyph-name="Sacute" unicode="&#x15a;" horiz-adv-x="637" 
d="M302 750h-21l60 87h40zM302 707l13.0029 -0.00292969c51.333 0 97.833 -10 139.5 -30s73.5 -49 95.5 -87l-12 -11c-22 36 -52.5 63.667 -91.5 83s-82.833 29 -131.5 29h-13c-55.333 0 -103.333 -15 -144 -45s-61 -70 -61 -120c0 -40 13.5 -71.167 40.5 -93.5
s74.5 -38.166 142.5 -47.499l95 -13c69.333 -9.33301 120.166 -28.666 152.499 -57.999s48.5 -71.333 48.5 -126c0 -57.333 -24 -104.166 -72 -140.499s-105 -54.5 -171 -54.5h-5c-68.667 0 -126.334 14.5 -173.001 43.5s-78.334 69.167 -95.001 120.5l12 10
c16.667 -50 46.834 -88.833 90.501 -116.5s98.834 -41.5 165.501 -41.5h5c61.333 0 114.166 16.333 158.499 49s66.5 76 66.5 130c0 50 -14.333 88.167 -43 114.5s-75 43.833 -139 52.5l-96 13c-72.667 10 -124.334 27.667 -155.001 53s-46 60.333 -46 105
c0 53.333 22.5 96.833 67.5 130.5s96.833 50.5 155.5 50.5z" />
    <glyph glyph-name="sacute" unicode="&#x15b;" horiz-adv-x="546" 
d="M271 580h-21l60 88h40zM265 507l15.0049 -0.00195312c34 0 68.667 -8.66699 104 -26s62 -39.666 80 -66.999l-13 -12c-16.667 26 -41.334 47.167 -74.001 63.5s-65 24.5 -97 24.5h-9c-46.667 0 -85.5 -10.167 -116.5 -30.5s-46.5 -47.166 -46.5 -80.499
c0 -27.333 8.66699 -49.5 26 -66.5s52.666 -28.5 105.999 -34.5l84 -9c20.667 -2.66699 38.167 -5.83398 52.5 -9.50098s30 -10.167 47 -19.5s29.833 -23 38.5 -41s13 -40 13 -66c0 -44 -18.333 -78.333 -55 -103s-81.334 -37 -134.001 -37h-10
c-45.333 0 -87.333 9.83301 -126 29.5s-65.334 44.834 -80.001 75.501l13 12c12.667 -29.333 37.167 -53.333 73.5 -72s76.166 -28 119.499 -28h4c50 0 92 10.5 126 31.5s51 51.5 51 91.5c0 24 -3.83301 44 -11.5 60s-19 27.667 -34 35s-28.5 12.5 -40.5 15.5
s-27.333 5.5 -46 7.5l-85 10c-56.667 6.66699 -96 20.167 -118 40.5s-33 46.5 -33 78.5c0 38.667 17 69.5 51 92.5s75.667 34.5 125 34.5z" />
    <glyph glyph-name="Scedilla" unicode="&#x15e;" horiz-adv-x="637" 
d="M327 -7l-9.00098 -44.001c20.667 5.33301 38.167 2.66602 52.5 -8.00098s21.5 -27 21.5 -49c0 -24.667 -11.833 -41.667 -35.5 -51s-48.167 -6 -73.5 10v20c20.667 -16 40.834 -21.333 60.501 -16s29.5 17.666 29.5 36.999c0 18.667 -7.16699 31.167 -21.5 37.5
s-33.5 4.83301 -57.5 -4.5l15 68c-64 2.66699 -117.667 18.5 -161 47.5s-72.666 67.833 -87.999 116.5l12 10c16.667 -50 46.834 -88.833 90.501 -116.5s98.834 -41.5 165.501 -41.5h5c61.333 0 114.166 16.333 158.499 49s66.5 76 66.5 130c0 50 -14.333 88.167 -43 114.5
s-75 43.833 -139 52.5l-96 13c-72.667 10 -124.334 27.667 -155.001 53s-46 60.333 -46 105c0 53.333 22.5 96.833 67.5 130.5s96.833 50.5 155.5 50.5h13c51.333 0 97.833 -10 139.5 -30s73.5 -49 95.5 -87l-12 -11c-22 36 -52.5 63.667 -91.5 83s-82.833 29 -131.5 29h-13
c-55.333 0 -103.333 -15 -144 -45s-61 -70 -61 -120c0 -40 13.5 -71.167 40.5 -93.5s74.5 -38.166 142.5 -47.499l95 -13c69.333 -9.33301 120.166 -28.666 152.499 -57.999s48.5 -71.333 48.5 -126c0 -57.333 -24 -104.166 -72 -140.499s-105 -54.5 -171 -54.5h-6z" />
    <glyph glyph-name="scedilla" unicode="&#x15f;" horiz-adv-x="546" 
d="M285 -7l-8.99805 -43.999c20.667 5.33301 38.167 2.66602 52.5 -8.00098s21.5 -27 21.5 -49c0 -24.667 -11.833 -41.667 -35.5 -51s-48.167 -6 -73.5 10v20c20.667 -16 40.834 -21.333 60.501 -16s29.5 17.666 29.5 36.999c0 18.667 -7.16699 31.167 -21.5 37.5
s-33.5 4.83301 -57.5 -4.5l15 68c-44 1.33301 -84.333 11.833 -121 31.5s-62 44.167 -76 73.5l13 12c12.667 -29.333 37.167 -53.333 73.5 -72s76.166 -28 119.499 -28h4c50 0 92 10.5 126 31.5s51 51.5 51 91.5c0 24 -3.83301 44 -11.5 60s-19 27.667 -34 35
s-28.5 12.5 -40.5 15.5s-27.333 5.5 -46 7.5l-85 10c-56.667 6.66699 -96 20.167 -118 40.5s-33 46.5 -33 78.5c0 38.667 17 69.5 51 92.5s75.667 34.5 125 34.5h15c34 0 68.667 -8.66699 104 -26s62 -39.666 80 -66.999l-13 -12c-16.667 26 -41.334 47.167 -74.001 63.5
s-65 24.5 -97 24.5h-9c-46.667 0 -85.5 -10.167 -116.5 -30.5s-46.5 -47.166 -46.5 -80.499c0 -27.333 8.66699 -49.5 26 -66.5s52.666 -28.5 105.999 -34.5l84 -9c20.667 -2.66699 38.167 -5.83398 52.5 -9.50098s30 -10.167 47 -19.5s29.833 -23 38.5 -41s13 -40 13 -66
c0 -44 -18.333 -78.333 -55 -103s-81.667 -37 -135 -37z" />
    <glyph glyph-name="Scaron" unicode="&#x160;" horiz-adv-x="637" 
d="M313 750h-9l-123 94h29l99 -76l98 76h29zM302 707l13.0029 -0.00292969c51.333 0 97.833 -10 139.5 -30s73.5 -49 95.5 -87l-12 -11c-22 36 -52.5 63.667 -91.5 83s-82.833 29 -131.5 29h-13c-55.333 0 -103.333 -15 -144 -45s-61 -70 -61 -120
c0 -40 13.5 -71.167 40.5 -93.5s74.5 -38.166 142.5 -47.499l95 -13c69.333 -9.33301 120.166 -28.666 152.499 -57.999s48.5 -71.333 48.5 -126c0 -57.333 -24 -104.166 -72 -140.499s-105 -54.5 -171 -54.5h-5c-68.667 0 -126.334 14.5 -173.001 43.5
s-78.334 69.167 -95.001 120.5l12 10c16.667 -50 46.834 -88.833 90.501 -116.5s98.834 -41.5 165.501 -41.5h5c61.333 0 114.166 16.333 158.499 49s66.5 76 66.5 130c0 50 -14.333 88.167 -43 114.5s-75 43.833 -139 52.5l-96 13c-72.667 10 -124.334 27.667 -155.001 53
s-46 60.333 -46 105c0 53.333 22.5 96.833 67.5 130.5s96.833 50.5 155.5 50.5z" />
    <glyph glyph-name="scaron" unicode="&#x161;" horiz-adv-x="546" 
d="M276 580h-9l-123 94h29l99 -75l98 75h29zM265 507l15.0049 -0.00195312c34 0 68.667 -8.66699 104 -26s62 -39.666 80 -66.999l-13 -12c-16.667 26 -41.334 47.167 -74.001 63.5s-65 24.5 -97 24.5h-9c-46.667 0 -85.5 -10.167 -116.5 -30.5s-46.5 -47.166 -46.5 -80.499
c0 -27.333 8.66699 -49.5 26 -66.5s52.666 -28.5 105.999 -34.5l84 -9c20.667 -2.66699 38.167 -5.83398 52.5 -9.50098s30 -10.167 47 -19.5s29.833 -23 38.5 -41s13 -40 13 -66c0 -44 -18.333 -78.333 -55 -103s-81.334 -37 -134.001 -37h-10
c-45.333 0 -87.333 9.83301 -126 29.5s-65.334 44.834 -80.001 75.501l13 12c12.667 -29.333 37.167 -53.333 73.5 -72s76.166 -28 119.499 -28h4c50 0 92 10.5 126 31.5s51 51.5 51 91.5c0 24 -3.83301 44 -11.5 60s-19 27.667 -34 35s-28.5 12.5 -40.5 15.5
s-27.333 5.5 -46 7.5l-85 10c-56.667 6.66699 -96 20.167 -118 40.5s-33 46.5 -33 78.5c0 38.667 17 69.5 51 92.5s75.667 34.5 125 34.5z" />
    <glyph glyph-name="Tcedilla" unicode="&#x162;" horiz-adv-x="601" 
d="M309 684l-0.000976562 -683.998h1l-11 -51c20.667 5.33301 38.167 2.66602 52.5 -8.00098s21.5 -27 21.5 -49c0 -24.667 -11.833 -41.667 -35.5 -51s-48.167 -6 -73.5 10v20c20.667 -16 40.834 -21.333 60.501 -16s29.5 17.666 29.5 36.999
c0 18.667 -7.16699 31.167 -21.5 37.5s-33.5 4.83301 -57.5 -4.5l16 75v684h-241v16h500v-16h-241z" />
    <glyph glyph-name="tcedilla" unicode="&#x163;" horiz-adv-x="310" 
d="M168 484l-0.000976562 -483.998h2l-11 -51c20.667 5.33301 38.167 2.66602 52.5 -8.00098s21.5 -27 21.5 -49c0 -24.667 -11.833 -41.667 -35.5 -51s-48.167 -6 -73.5 10v20c20.667 -16 40.834 -21.333 60.501 -16s29.5 17.666 29.5 36.999
c0 18.667 -7.16699 31.167 -21.5 37.5s-33.5 4.83301 -57.5 -4.5l16 75h-1v484h-80v16h80v168h18v-168h81v-16h-81z" />
    <glyph glyph-name="Tcaron" unicode="&#x164;" horiz-adv-x="601" 
d="M305 750h-9l-123 94h29l99 -76l98 76h29zM309 684v-684h-18v684h-241v16h500v-16h-241z" />
    <glyph glyph-name="tcaron" unicode="&#x165;" horiz-adv-x="386" 
d="M247 613h-21l60 87h40zM168 484v-484h-18v484h-80v16h80v168h18v-168h81v-16h-81z" />
    <glyph glyph-name="Tbar" unicode="&#x166;" horiz-adv-x="601" 
d="M309 684v-302h114v-17h-114v-365h-18v365h-114v17h114v302h-241v16h500v-16h-241z" />
    <glyph glyph-name="tbar" unicode="&#x167;" horiz-adv-x="310" 
d="M168 484v-133h81v-17h-81v-334h-18v334h-80v17h80v133h-80v16h80v168h18v-168h81v-16h-81z" />
    <glyph glyph-name="Umacron" unicode="&#x16a;" horiz-adv-x="804" 
d="M530 750h-246v17h246v-17zM693 700v-391c0 -94 -25 -170.167 -75 -228.5s-120.667 -87.5 -212 -87.5s-161.833 29.167 -211.5 87.5s-74.5 134.5 -74.5 228.5v391h18v-391c0 -90.667 23 -163.334 69 -218.001s112.333 -82 199 -82s153.167 27.333 199.5 82
s69.5 127.334 69.5 218.001v391h18z" />
    <glyph glyph-name="umacron" unicode="&#x16b;" horiz-adv-x="651" 
d="M437 580h-246v17h246v-17zM556 0l-18.999 0.000976562v149c-20 -52.667 -51.333 -91.834 -94 -117.501s-86.334 -38.5 -131.001 -38.5c-66 0 -118.667 20 -158 60s-59 97.667 -59 173v274h18v-275c0 -70.667 17.667 -124.167 53 -160.5s84 -54.5 146 -54.5
c68 0 122.667 23.333 164 70s62 109.667 62 189v231h18v-500z" />
    <glyph glyph-name="Uring" unicode="&#x16e;" horiz-adv-x="804" 
d="M406 892c19.333 0 36 -7 50 -21s21 -30.333 21 -49c0 -20 -7 -37 -21 -51s-30.667 -21 -50 -21c-20 0 -36.667 7 -50 21s-20 31 -20 51c0 18.667 6.83301 35 20.5 49s30.167 21 49.5 21zM406 874c-14.667 0 -26.667 -5.16895 -36 -15.502s-14 -22.5 -14 -36.5
c0 -15.333 4.5 -28.166 13.5 -38.499s21.167 -15.5 36.5 -15.5s27.833 5.33301 37.5 16s14.5 23.334 14.5 38.001c0 14 -4.83301 26.167 -14.5 36.5s-22.167 15.5 -37.5 15.5zM693 699.998v-391c0 -94 -25 -170.167 -75 -228.5s-120.667 -87.5 -212 -87.5
s-161.833 29.167 -211.5 87.5s-74.5 134.5 -74.5 228.5v391h18v-391c0 -90.667 23 -163.334 69 -218.001s112.333 -82 199 -82s153.167 27.333 199.5 82s69.5 127.334 69.5 218.001v391h18z" />
    <glyph glyph-name="uring" unicode="&#x16f;" horiz-adv-x="651" 
d="M312 722c19.333 0 36 -6.83301 50 -20.5s21 -30.167 21 -49.5c0 -20 -7 -37 -21 -51s-30.667 -21 -50 -21c-20 0 -36.667 7 -50 21s-20 31 -20 51c0 19.333 6.66699 35.833 20 49.5s30 20.5 50 20.5zM311 705c-14.667 0 -26.667 -5.33496 -36 -16.002s-14 -23 -14 -37
c0 -15.333 4.5 -28.166 13.5 -38.499s21.167 -15.5 36.5 -15.5s27.833 5.33301 37.5 16s14.5 23.334 14.5 38.001c0 14 -5 26.333 -15 37s-22.333 16 -37 16zM556 -0.00195312l-18.999 0.000976562v149c-20 -52.667 -51.333 -91.834 -94 -117.501
s-86.334 -38.5 -131.001 -38.5c-66 0 -118.667 20 -158 60s-59 97.667 -59 173v274h18v-275c0 -70.667 17.667 -124.167 53 -160.5s84 -54.5 146 -54.5c68 0 122.667 23.333 164 70s62 109.667 62 189v231h18v-500z" />
    <glyph glyph-name="Uhungarumlaut" unicode="&#x170;" horiz-adv-x="804" 
d="M326 750h-21l60 87h40zM427 750h-21l60 87h40zM693 700v-391c0 -94 -25 -170.167 -75 -228.5s-120.667 -87.5 -212 -87.5s-161.833 29.167 -211.5 87.5s-74.5 134.5 -74.5 228.5v391h18v-391c0 -90.667 23 -163.334 69 -218.001s112.333 -82 199 -82
s153.167 27.333 199.5 82s69.5 127.334 69.5 218.001v391h18z" />
    <glyph glyph-name="uhungarumlaut" unicode="&#x171;" horiz-adv-x="651" 
d="M253 580h-21l60 88h40zM355 580h-21l60 88h40zM556 0l-18.999 0.000976562v149c-20 -52.667 -51.333 -91.834 -94 -117.501s-86.334 -38.5 -131.001 -38.5c-66 0 -118.667 20 -158 60s-59 97.667 -59 173v274h18v-275c0 -70.667 17.667 -124.167 53 -160.5
s84 -54.5 146 -54.5c68 0 122.667 23.333 164 70s62 109.667 62 189v231h18v-500z" />
    <glyph glyph-name="Uogonek" unicode="&#x172;" horiz-adv-x="804" 
d="M693 700v-391.003c0 -83.333 -20 -153.166 -60 -209.499s-97 -90.5 -171 -102.5c-48 -17.333 -72 -43.666 -72 -78.999c0 -21.333 7.5 -37.666 22.5 -48.999s32.5 -17 52.5 -17h2v-17h-2c-25.333 0 -47.333 7.16699 -66 21.5s-28 34.833 -28 61.5
c0 34.667 20.333 60 61 76c-5.33301 -0.666992 -14 -1 -26 -1c-91.333 0 -161.833 29.167 -211.5 87.5s-74.5 134.5 -74.5 228.5v391h18v-391c0 -90.667 23 -163.334 69 -218.001s112.333 -82 199 -82s153.167 27.333 199.5 82s69.5 127.334 69.5 218.001v391h18z" />
    <glyph glyph-name="uogonek" unicode="&#x173;" horiz-adv-x="651" 
d="M556 500l0.000976562 -500c-53.333 -17.333 -80 -44.666 -80 -81.999c0 -21.333 7.5 -37.666 22.5 -48.999s32.5 -17 52.5 -17h2v-17h-2c-25.333 0 -47.333 7.16699 -66 21.5s-28 34.833 -28 61.5c0 39.333 26.333 66.666 79 81.999h1v149
c-20 -52.667 -51.333 -91.834 -94 -117.501s-86.334 -38.5 -131.001 -38.5c-66 0 -118.667 20 -158 60s-59 97.667 -59 173v274h18v-275c0 -70.667 17.667 -124.167 53 -160.5s84 -54.5 146 -54.5c68 0 122.667 23.333 164 70s62 109.667 62 189v231h18z" />
    <glyph glyph-name="Wcircumflex" unicode="&#x174;" horiz-adv-x="1202" 
d="M699 750l-98 76l-99 -76h-29l123 94h9l123 -94h-29zM879 0h-6l-272 661l-272 -661h-6l-273 700h19l257 -661l272 661h6l272 -661l257 661h19z" />
    <glyph glyph-name="wcircumflex" unicode="&#x175;" horiz-adv-x="935" 
d="M566 580l-98 76l-99 -76h-29l123 94h9l123 -94h-29zM680 0h-5l-208 462l-207 -462h-6l-214 500h19l198 -462l209 462h3l208 -462l199 462h19z" />
    <glyph glyph-name="Ycircumflex" unicode="&#x176;" horiz-adv-x="685" 
d="M441 750l-98 76l-99 -76h-29l123 94h9l123 -94h-29zM351 0h-18v245l-283 455h21l272 -436l271 436h21l-284 -454v-246z" />
    <glyph glyph-name="ycircumflex" unicode="&#x177;" horiz-adv-x="656" 
d="M321 674l123 -94h-29l-98 76l-99 -76h-29l123 94h9zM118 500v-274.999c0 -70.667 17.667 -124.167 53 -160.5s84 -54.5 146 -54.5c68 0 122.667 23.333 164 70s62 109.667 62 189v231h18v-439c0 -79.333 -19.833 -141 -59.5 -185s-98.167 -66.333 -175.5 -67
c-78 0 -147.333 25 -208 75l12 13c58.667 -48 124 -71.667 196 -71c144.667 0 217 78.667 217 236v87c-20 -52.667 -51.333 -91.834 -94 -117.501s-86.667 -38.5 -132 -38.5c-66 0 -118.667 20 -158 60s-59 97.333 -59 172v275h18z" />
    <glyph glyph-name="Ydieresis" unicode="&#x178;" horiz-adv-x="685" 
d="M243 750c-4 0 -7.5 1.5 -10.5 4.5s-4.5 6.5 -4.5 10.5c0 4.66699 1.5 8.5 4.5 11.5s6.5 4.5 10.5 4.5c10.667 0 16 -5.33301 16 -16c0 -4 -1.5 -7.5 -4.5 -10.5s-6.83301 -4.5 -11.5 -4.5zM442 750c-4 0 -7.5 1.5 -10.5 4.5s-4.5 6.5 -4.5 10.5
c0 4.66699 1.5 8.5 4.5 11.5s6.5 4.5 10.5 4.5c10.667 0 16 -5.33301 16 -16c0 -4 -1.5 -7.5 -4.5 -10.5s-6.83301 -4.5 -11.5 -4.5zM351 0h-18v245l-283 455h21l272 -436l271 436h21l-284 -454v-246z" />
    <glyph glyph-name="Zacute" unicode="&#x179;" horiz-adv-x="630" 
d="M295 750h-21l60 87h40zM570 0h-510v4l473 680h-433v16h464v-4l-474 -680h480v-16z" />
    <glyph glyph-name="zacute" unicode="&#x17a;" horiz-adv-x="582" 
d="M271 580h-21l60 88h40zM512 0h-442v3l395 481h-360v16h393v-3l-395 -481h409v-16z" />
    <glyph glyph-name="Zdotaccent" unicode="&#x17b;" horiz-adv-x="630" 
d="M311 750c-4 0 -7.5 1.5 -10.5 4.5s-4.5 6.5 -4.5 10.5c0 4.66699 1.5 8.5 4.5 11.5s6.5 4.5 10.5 4.5c10.667 0 16 -5.33301 16 -16c0 -4 -1.5 -7.5 -4.5 -10.5s-6.83301 -4.5 -11.5 -4.5zM570 0h-510v4l473 680h-433v16h464v-4l-474 -680h480v-16z" />
    <glyph glyph-name="zdotaccent" unicode="&#x17c;" horiz-adv-x="582" 
d="M284 580c-4 0 -7.5 1.5 -10.5 4.5s-4.5 6.83301 -4.5 11.5c0 4 1.5 7.5 4.5 10.5s6.5 4.5 10.5 4.5c4.66699 0 8.5 -1.5 11.5 -4.5s4.5 -6.5 4.5 -10.5c0 -10.667 -5.33301 -16 -16 -16zM512 0h-442v3l395 481h-360v16h393v-3l-395 -481h409v-16z" />
    <glyph glyph-name="Zcaron" unicode="&#x17d;" horiz-adv-x="630" 
d="M325 750h-9l-123 94h29l99 -76l98 76h29zM570 0h-510v4l473 680h-433v16h464v-4l-474 -680h480v-16z" />
    <glyph glyph-name="zcaron" unicode="&#x17e;" horiz-adv-x="582" 
d="M301 580h-9l-123 94h29l99 -75l98 75h29zM498 497l-395 -481h409v-16h-442v3l395 481h-360v16h393v-3z" />
    <glyph glyph-name="Acaron" unicode="&#x1cd;" horiz-adv-x="692" 
d="M350 750h-9l-123 94h29l99 -76l98 76h29zM642 0h-19l-102 244h-350l-102 -244h-19l293 700h6zM178 260h337l-169 402z" />
    <glyph glyph-name="acaron" unicode="&#x1ce;" horiz-adv-x="684" 
d="M331 580h-9l-123 94h29l99 -75l98 75h29zM584 0h-19v154c-19.333 -47.333 -50.666 -85.833 -93.999 -115.5s-91.666 -44.5 -144.999 -44.5c-70.667 0 -131 25 -181 75s-75 110.333 -75 181s25 131.167 75 181.5s110.333 75.5 181 75.5
c53.333 0 101.666 -14.833 144.999 -44.5s74.666 -68.5 93.999 -116.5v154h19v-500zM327 11c66 0 122.167 23.165 168.5 69.498s69.5 102.833 69.5 169.5s-23.167 123.334 -69.5 170.001s-102.5 70 -168.5 70c-66.667 0 -123 -23.167 -169 -69.5s-69 -103.166 -69 -170.499
c0 -66.667 23 -123.167 69 -169.5s102.333 -69.5 169 -69.5z" />
    <glyph glyph-name="Icaron" unicode="&#x1cf;" horiz-adv-x="495" 
d="M252 750h-9l-123 94h29l99 -76l98 76h29zM336 684h-80v-668h80v-16h-178v16h80v668h-80v16h178v-16z" />
    <glyph glyph-name="icaron" unicode="&#x1d0;" horiz-adv-x="461" 
d="M237 580h-9l-123 94h30l98 -75l98 75h29zM241 0h-18v500h18v-500z" />
    <glyph glyph-name="Ocaron" unicode="&#x1d1;" horiz-adv-x="874" 
d="M441 750h-9l-123 94h29l99 -76l98 76h29zM436 707c98.667 0 182.834 -34.833 252.501 -104.5s104.5 -153.834 104.5 -252.501s-34.833 -182.834 -104.5 -252.501s-153.834 -104.5 -252.501 -104.5s-182.667 34.833 -252 104.5s-104 153.834 -104 252.501
s34.667 182.834 104 252.501s153.333 104.5 252 104.5zM436 691c-94 0 -173.833 -33.167 -239.5 -99.5s-98.5 -146.833 -98.5 -241.5c0 -95.333 32.833 -176 98.5 -242s145.5 -99 239.5 -99s174 33 240 99s99 146.667 99 242c0 94.667 -33 175.167 -99 241.5
s-146 99.5 -240 99.5z" />
    <glyph glyph-name="ocaron" unicode="&#x1d2;" 
d="M331 580h-9l-123 94h29l99 -75l98 75h29zM326 507c70.667 0 131.167 -25.167 181.5 -75.5s75.5 -110.833 75.5 -181.5s-25 -131 -75 -181s-110.667 -75 -182 -75c-70.667 0 -131 25 -181 75s-75 110.333 -75 181c0 71.333 25 132 75 182s110.333 75 181 75zM327 490
c-66.667 0 -123 -23.1689 -169 -69.502s-69 -103.166 -69 -170.499c0 -66.667 23 -123.167 69 -169.5s102.333 -69.5 169 -69.5c66 0 122.167 23.167 168.5 69.5s69.5 102.833 69.5 169.5s-23.167 123.334 -69.5 170.001s-102.5 70 -168.5 70z" />
    <glyph glyph-name="Ucaron" unicode="&#x1d3;" horiz-adv-x="804" 
d="M411 750h-9l-123 94h29l99 -76l98 76h29zM693 700v-391c0 -94 -25 -170.167 -75 -228.5s-120.667 -87.5 -212 -87.5s-161.833 29.167 -211.5 87.5s-74.5 134.5 -74.5 228.5v391h18v-391c0 -90.667 23 -163.334 69 -218.001s112.333 -82 199 -82s153.167 27.333 199.5 82
s69.5 127.334 69.5 218.001v391h18z" />
    <glyph glyph-name="ucaron" unicode="&#x1d4;" horiz-adv-x="651" 
d="M316 580h-9l-123 94h29l99 -75l98 75h29zM556 0l-18.999 0.000976562v149c-20 -52.667 -51.333 -91.834 -94 -117.501s-86.334 -38.5 -131.001 -38.5c-66 0 -118.667 20 -158 60s-59 97.667 -59 173v274h18v-275c0 -70.667 17.667 -124.167 53 -160.5s84 -54.5 146 -54.5
c68 0 122.667 23.333 164 70s62 109.667 62 189v231h18v-500z" />
    <glyph glyph-name="Udieresismacron" unicode="&#x1d5;" horiz-adv-x="804" 
d="M530 817h-246v17h246v-17zM308 750c-4 0 -7.5 1.5 -10.5 4.5s-4.5 6.5 -4.5 10.5c0 4.66699 1.5 8.5 4.5 11.5s6.5 4.5 10.5 4.5c10.667 0 16 -5.33301 16 -16c0 -4 -1.5 -7.5 -4.5 -10.5s-6.83301 -4.5 -11.5 -4.5zM508 750c-4 0 -7.5 1.5 -10.5 4.5s-4.5 6.5 -4.5 10.5
c0 4.66699 1.5 8.5 4.5 11.5s6.5 4.5 10.5 4.5c10.667 0 16 -5.33301 16 -16c0 -4 -1.5 -7.5 -4.5 -10.5s-6.83301 -4.5 -11.5 -4.5zM693 700v-391c0 -94 -25 -170.167 -75 -228.5s-120.667 -87.5 -212 -87.5s-161.833 29.167 -211.5 87.5s-74.5 134.5 -74.5 228.5v391h18
v-391c0 -90.667 23 -163.334 69 -218.001s112.333 -82 199 -82s153.167 27.333 199.5 82s69.5 127.334 69.5 218.001v391h18z" />
    <glyph glyph-name="udieresismacron" unicode="&#x1d6;" horiz-adv-x="651" 
d="M445 640h-246v17h246v-17zM220 611c4.66699 0 8.5 -1.5 11.5 -4.5s4.5 -6.5 4.5 -10.5c0 -10.667 -5.33301 -16 -16 -16c-4 0 -7.5 1.5 -10.5 4.5s-4.5 6.83301 -4.5 11.5c0 4 1.5 7.5 4.5 10.5s6.5 4.5 10.5 4.5zM420 611c4.66699 0 8.5 -1.5 11.5 -4.5
s4.5 -6.5 4.5 -10.5c0 -10.667 -5.33301 -16 -16 -16c-4 0 -7.5 1.5 -10.5 4.5s-4.5 6.83301 -4.5 11.5c0 4 1.5 7.5 4.5 10.5s6.5 4.5 10.5 4.5zM556 0l-18.999 0.000976562v149c-20 -52.667 -51.333 -91.834 -94 -117.501s-86.334 -38.5 -131.001 -38.5
c-66 0 -118.667 20 -158 60s-59 97.667 -59 173v274h18v-275c0 -70.667 17.667 -124.167 53 -160.5s84 -54.5 146 -54.5c68 0 122.667 23.333 164 70s62 109.667 62 189v231h18v-500z" />
    <glyph glyph-name="Udieresisacute" unicode="&#x1d7;" horiz-adv-x="804" 
d="M408 818h-21l60 87h40zM308 750c-4 0 -7.5 1.5 -10.5 4.5s-4.5 6.5 -4.5 10.5c0 4.66699 1.5 8.5 4.5 11.5s6.5 4.5 10.5 4.5c10.667 0 16 -5.33301 16 -16c0 -4 -1.5 -7.5 -4.5 -10.5s-6.83301 -4.5 -11.5 -4.5zM508 750c-4 0 -7.5 1.5 -10.5 4.5s-4.5 6.5 -4.5 10.5
c0 4.66699 1.5 8.5 4.5 11.5s6.5 4.5 10.5 4.5c10.667 0 16 -5.33301 16 -16c0 -4 -1.5 -7.5 -4.5 -10.5s-6.83301 -4.5 -11.5 -4.5zM693 700v-391c0 -94 -25 -170.167 -75 -228.5s-120.667 -87.5 -212 -87.5s-161.833 29.167 -211.5 87.5s-74.5 134.5 -74.5 228.5v391h18
v-391c0 -90.667 23 -163.334 69 -218.001s112.333 -82 199 -82s153.167 27.333 199.5 82s69.5 127.334 69.5 218.001v391h18z" />
    <glyph glyph-name="udieresisacute" unicode="&#x1d8;" horiz-adv-x="651" 
d="M312 640h-21l60 88h40zM220 611c10.667 0 16 -5.33301 16 -16c0 -4 -1.5 -7.5 -4.5 -10.5s-6.83301 -4.5 -11.5 -4.5c-4 0 -7.5 1.5 -10.5 4.5s-4.5 6.5 -4.5 10.5c0 4.66699 1.5 8.5 4.5 11.5s6.5 4.5 10.5 4.5zM420 611c10.667 0 16 -5.33301 16 -16
c0 -4 -1.5 -7.5 -4.5 -10.5s-6.83301 -4.5 -11.5 -4.5c-4 0 -7.5 1.5 -10.5 4.5s-4.5 6.5 -4.5 10.5c0 4.66699 1.5 8.5 4.5 11.5s6.5 4.5 10.5 4.5zM556 0l-18.999 0.000976562v149c-20 -52.667 -51.333 -91.834 -94 -117.501s-86.334 -38.5 -131.001 -38.5
c-66 0 -118.667 20 -158 60s-59 97.667 -59 173v274h18v-275c0 -70.667 17.667 -124.167 53 -160.5s84 -54.5 146 -54.5c68 0 122.667 23.333 164 70s62 109.667 62 189v231h18v-500z" />
    <glyph glyph-name="Udieresiscaron" unicode="&#x1d9;" horiz-adv-x="804" 
d="M407 836l98 75h29l-123 -94h-9l-123 94h29zM308 781c10.667 0 16 -5.33301 16 -16c0 -4 -1.5 -7.5 -4.5 -10.5s-6.83301 -4.5 -11.5 -4.5c-4 0 -7.5 1.5 -10.5 4.5s-4.5 6.5 -4.5 10.5c0 4.66699 1.5 8.5 4.5 11.5s6.5 4.5 10.5 4.5zM508 781
c10.667 0 16 -5.33301 16 -16c0 -4 -1.5 -7.5 -4.5 -10.5s-6.83301 -4.5 -11.5 -4.5c-4 0 -7.5 1.5 -10.5 4.5s-4.5 6.5 -4.5 10.5c0 4.66699 1.5 8.5 4.5 11.5s6.5 4.5 10.5 4.5zM693 700v-391c0 -94 -25 -170.167 -75 -228.5s-120.667 -87.5 -212 -87.5
s-161.833 29.167 -211.5 87.5s-74.5 134.5 -74.5 228.5v391h18v-391c0 -90.667 23 -163.334 69 -218.001s112.333 -82 199 -82s153.167 27.333 199.5 82s69.5 127.334 69.5 218.001v391h18z" />
    <glyph glyph-name="udieresiscaron" unicode="&#x1da;" horiz-adv-x="651" 
d="M316 640h-9l-123 95h29l99 -76l98 76h29zM220 611c4.66699 0 8.5 -1.5 11.5 -4.5s4.5 -6.5 4.5 -10.5c0 -10.667 -5.33301 -16 -16 -16c-4 0 -7.5 1.5 -10.5 4.5s-4.5 6.83301 -4.5 11.5c0 4 1.5 7.5 4.5 10.5s6.5 4.5 10.5 4.5zM420 611c4.66699 0 8.5 -1.5 11.5 -4.5
s4.5 -6.5 4.5 -10.5c0 -10.667 -5.33301 -16 -16 -16c-4 0 -7.5 1.5 -10.5 4.5s-4.5 6.83301 -4.5 11.5c0 4 1.5 7.5 4.5 10.5s6.5 4.5 10.5 4.5zM556 0l-18.999 0.000976562v149c-20 -52.667 -51.333 -91.834 -94 -117.501s-86.334 -38.5 -131.001 -38.5
c-66 0 -118.667 20 -158 60s-59 97.667 -59 173v274h18v-275c0 -70.667 17.667 -124.167 53 -160.5s84 -54.5 146 -54.5c68 0 122.667 23.333 164 70s62 109.667 62 189v231h18v-500z" />
    <glyph glyph-name="Udieresisgrave" unicode="&#x1db;" horiz-adv-x="804" 
d="M366 905l60 -88h-21l-79 88h40zM308 750c-4 0 -7.5 1.5 -10.5 4.5s-4.5 6.5 -4.5 10.5c0 4.66699 1.5 8.5 4.5 11.5s6.5 4.5 10.5 4.5c10.667 0 16 -5.33301 16 -16c0 -4 -1.5 -7.5 -4.5 -10.5s-6.83301 -4.5 -11.5 -4.5zM508 750c-4 0 -7.5 1.5 -10.5 4.5
s-4.5 6.5 -4.5 10.5c0 4.66699 1.5 8.5 4.5 11.5s6.5 4.5 10.5 4.5c10.667 0 16 -5.33301 16 -16c0 -4 -1.5 -7.5 -4.5 -10.5s-6.83301 -4.5 -11.5 -4.5zM693 700v-391c0 -94 -25 -170.167 -75 -228.5s-120.667 -87.5 -212 -87.5s-161.833 29.167 -211.5 87.5
s-74.5 134.5 -74.5 228.5v391h18v-391c0 -90.667 23 -163.334 69 -218.001s112.333 -82 199 -82s153.167 27.333 199.5 82s69.5 127.334 69.5 218.001v391h18z" />
    <glyph glyph-name="udieresisgrave" unicode="&#x1dc;" horiz-adv-x="651" 
d="M333 640h-21l-79 88h40zM220 611c4.66699 0 8.5 -1.5 11.5 -4.5s4.5 -6.5 4.5 -10.5c0 -10.667 -5.33301 -16 -16 -16c-4 0 -7.5 1.5 -10.5 4.5s-4.5 6.83301 -4.5 11.5c0 4 1.5 7.5 4.5 10.5s6.5 4.5 10.5 4.5zM420 611c4.66699 0 8.5 -1.5 11.5 -4.5
s4.5 -6.5 4.5 -10.5c0 -10.667 -5.33301 -16 -16 -16c-4 0 -7.5 1.5 -10.5 4.5s-4.5 6.83301 -4.5 11.5c0 4 1.5 7.5 4.5 10.5s6.5 4.5 10.5 4.5zM556 0l-18.999 0.000976562v149c-20 -52.667 -51.333 -91.834 -94 -117.501s-86.334 -38.5 -131.001 -38.5
c-66 0 -118.667 20 -158 60s-59 97.667 -59 173v274h18v-275c0 -70.667 17.667 -124.167 53 -160.5s84 -54.5 146 -54.5c68 0 122.667 23.333 164 70s62 109.667 62 189v231h18v-500z" />
    <glyph glyph-name="Scommaaccent" unicode="&#x218;" horiz-adv-x="637" 
d="M302 707l13.0029 -0.00292969c51.333 0 97.833 -10 139.5 -30s73.5 -49 95.5 -87l-12 -11c-22 36 -52.5 63.667 -91.5 83s-82.833 29 -131.5 29h-13c-55.333 0 -103.333 -15 -144 -45s-61 -70 -61 -120c0 -40 13.5 -71.167 40.5 -93.5s74.5 -38.166 142.5 -47.499l95 -13
c69.333 -9.33301 120.166 -28.666 152.499 -57.999s48.5 -71.333 48.5 -126c0 -57.333 -24 -104.166 -72 -140.499s-105 -54.5 -171 -54.5h-5c-68.667 0 -126.334 14.5 -173.001 43.5s-78.334 69.167 -95.001 120.5l12 10c16.667 -50 46.834 -88.833 90.501 -116.5
s98.834 -41.5 165.501 -41.5h5c61.333 0 114.166 16.333 158.499 49s66.5 76 66.5 130c0 50 -14.333 88.167 -43 114.5s-75 43.833 -139 52.5l-96 13c-72.667 10 -124.334 27.667 -155.001 53s-46 60.333 -46 105c0 53.333 22.5 96.833 67.5 130.5s96.833 50.5 155.5 50.5z
M290.003 -156.003h-21l60 87h40z" />
    <glyph glyph-name="scommaaccent" unicode="&#x219;" horiz-adv-x="546" 
d="M265 507l15.0049 -0.00195312c34 0 68.667 -8.66699 104 -26s62 -39.666 80 -66.999l-13 -12c-16.667 26 -41.334 47.167 -74.001 63.5s-65 24.5 -97 24.5h-9c-46.667 0 -85.5 -10.167 -116.5 -30.5s-46.5 -47.166 -46.5 -80.499c0 -27.333 8.66699 -49.5 26 -66.5
s52.666 -28.5 105.999 -34.5l84 -9c20.667 -2.66699 38.167 -5.83398 52.5 -9.50098s30 -10.167 47 -19.5s29.833 -23 38.5 -41s13 -40 13 -66c0 -44 -18.333 -78.333 -55 -103s-81.334 -37 -134.001 -37h-10c-45.333 0 -87.333 9.83301 -126 29.5
s-65.334 44.834 -80.001 75.501l13 12c12.667 -29.333 37.167 -53.333 73.5 -72s76.166 -28 119.499 -28h4c50 0 92 10.5 126 31.5s51 51.5 51 91.5c0 24 -3.83301 44 -11.5 60s-19 27.667 -34 35s-28.5 12.5 -40.5 15.5s-27.333 5.5 -46 7.5l-85 10
c-56.667 6.66699 -96 20.167 -118 40.5s-33 46.5 -33 78.5c0 38.667 17 69.5 51 92.5s75.667 34.5 125 34.5zM239.005 -156.002h-21l60 87h40z" />
    <glyph glyph-name="uni021A" unicode="&#x21a;" horiz-adv-x="601" 
d="M309 684v-684h-18v684h-241v16h500v-16h-241zM273 -156h-21l60 87h40z" />
    <glyph glyph-name="uni021B" unicode="&#x21b;" horiz-adv-x="310" 
d="M168 484v-484h-18v484h-80v16h80v168h18v-168h81v-16h-81zM112 -156h-21l60 87h40z" />
    <glyph glyph-name="circumflex" unicode="&#x2c6;" horiz-adv-x="396" 
d="M296 605l-98 76l-99 -76h-29l123 94h9l123 -94h-29z" />
    <glyph glyph-name="caron" unicode="&#x2c7;" horiz-adv-x="396" 
d="M202 605h-9l-123 94h29l99 -75l98 75h29z" />
    <glyph glyph-name="breve" unicode="&#x2d8;" horiz-adv-x="399" 
d="M311 699h17.001c0 -30.667 -12.5 -56.334 -37.5 -77.001s-55.5 -31 -91.5 -31c-36.667 0 -67.334 10.333 -92.001 31s-37 46.334 -37 77.001h17c0 -26 10.667 -47.5 32 -64.5s48 -25.5 80 -25.5s58.667 8.5 80 25.5s32 38.5 32 64.5z" />
    <glyph glyph-name="dotaccent" unicode="&#x2d9;" horiz-adv-x="171" 
d="M85 676c-4 0 -7.5 1.5 -10.5 4.5s-4.5 6.5 -4.5 10.5c0 4.66699 1.5 8.5 4.5 11.5s6.5 4.5 10.5 4.5c10.667 0 16 -5.33301 16 -16c0 -4 -1.5 -7.5 -4.5 -10.5s-6.83301 -4.5 -11.5 -4.5z" />
    <glyph glyph-name="ring" unicode="&#x2da;" horiz-adv-x="282" 
d="M140 707c19.333 0 36 -7 50 -21s21 -30.333 21 -49c0 -20 -7 -37 -21 -51s-30.667 -21 -50 -21c-20 0 -36.667 7 -50 21s-20 31 -20 51c0 18.667 6.83301 35 20.5 49s30.167 21 49.5 21zM140 689c-14.667 0 -26.667 -5.33301 -36 -16s-14 -23 -14 -37
c0 -14.667 4.66699 -27.334 14 -38.001s21.333 -16 36 -16c15.333 0 27.833 5.33301 37.5 16s14.5 23.334 14.5 38.001c0 14 -5 26.333 -15 37s-22.333 16 -37 16z" />
    <glyph glyph-name="ogonek" unicode="&#x2db;" horiz-adv-x="239" 
d="M149 0l20 -0.000976562c-53.333 -17.333 -80 -44.666 -80 -81.999c0 -21.333 7.5 -37.666 22.5 -48.999s32.5 -17 52.5 -17h2v-17h-2c-25.333 0 -47.333 7.16699 -66 21.5s-28 34.833 -28 61.5c0 39.333 26.333 66.666 79 81.999z" />
    <glyph glyph-name="tilde" unicode="&#x2dc;" horiz-adv-x="407" 
d="M337 700l-9.99902 -33c-13.333 -42 -34.333 -63 -63 -63c-18 0 -34 8 -48 24l-38 43c-10.667 10.667 -22.334 16 -35.001 16c-12 0 -21.333 -3.83301 -28 -11.5s-12.667 -20.5 -18 -38.5l-7 -27h-20l10 34c13.333 42 34.333 63 63 63c17.333 0 33.333 -8 48 -24l38 -43
c11.333 -11.333 23 -17 35 -17s21.333 4 28 12s12.667 20.667 18 38l7 27h20z" />
    <glyph glyph-name="hungarumlaut" unicode="&#x2dd;" horiz-adv-x="342" 
d="M91 612h-21l60 87h40zM192 612h-21l60 87h40z" />
    <glyph glyph-name="commaaccentcomb" unicode="&#x326;" horiz-adv-x="0" 
d="M91 -250h-21l60 87h40z" />
    <glyph glyph-name="uni0401" unicode="&#x401;" horiz-adv-x="600" 
d="M224 750c-4 0 -7.5 1.5 -10.5 4.5s-4.5 6.5 -4.5 10.5c0 4.66699 1.5 8.5 4.5 11.5s6.5 4.5 10.5 4.5c10.667 0 16 -5.33301 16 -16c0 -4 -1.5 -7.5 -4.5 -10.5s-6.83301 -4.5 -11.5 -4.5zM424 750c-4 0 -7.5 1.5 -10.5 4.5s-4.5 6.5 -4.5 10.5
c0 4.66699 1.5 8.5 4.5 11.5s6.5 4.5 10.5 4.5c10.667 0 16 -5.33301 16 -16c0 -4 -1.5 -7.5 -4.5 -10.5s-6.83301 -4.5 -11.5 -4.5zM138 364h384v-16h-384v-332h401v-16h-419v700h419v-16h-401v-320z" />
    <glyph glyph-name="uni0410" unicode="&#x410;" horiz-adv-x="692" 
d="M171 244l-102 -244h-19l293 700h6l293 -700h-19l-102 244h-350zM346 662l-168 -402h337z" />
    <glyph glyph-name="uni0411" unicode="&#x411;" horiz-adv-x="692" 
d="M138 403l265 0.000976562c75.333 0 132.333 -17.333 171 -52s58 -84.334 58 -149.001c0 -66 -18.167 -116.167 -54.5 -150.5s-94.5 -51.5 -174.5 -51.5h-283v700h419v-16h-401v-281zM138 16.001l265 -0.000976562c76 0 130 15.333 162 46s48 77.334 48 140.001
c0 123.333 -70 185 -210 185h-265v-371z" />
    <glyph glyph-name="uni0412" unicode="&#x412;" horiz-adv-x="692" 
d="M120 700l238 0.000976562c45.333 0 83.5 -4.5 114.5 -13.5s54.333 -22 70 -39s26.667 -35 33 -54s9.5 -41.167 9.5 -66.5c0 -82 -40 -134.667 -120 -158c54.667 -8.66699 96.167 -28.834 124.5 -60.501s42.5 -72.167 42.5 -121.5c0 -124.667 -76 -187 -228 -187h-284v700
zM138 684.001v-311.001h220c78 0 132.333 14 163 42s46 65.667 46 113c0 23.333 -2.5 43.333 -7.5 60s-14.5 32.834 -28.5 48.501s-35.5 27.5 -64.5 35.5s-65.167 12 -108.5 12h-220zM138 357v-341h265c75.333 0 129.333 14.5 162 43.5s49 71.5 49 127.5
c0 54 -17.5 95.833 -52.5 125.5s-87.833 44.5 -158.5 44.5h-265z" />
    <glyph glyph-name="uni0413" unicode="&#x413;" horiz-adv-x="590" 
d="M138 684v-684h-18v700h420v-16h-402z" />
    <glyph glyph-name="uni0414" unicode="&#x414;" horiz-adv-x="816" 
d="M787 -129h-18v129h-721v-129h-18v145h89l286 684h6l286 -684h90v-145zM408 662l-270 -646h541z" />
    <glyph glyph-name="uni0415" unicode="&#x415;" horiz-adv-x="600" 
d="M138 364h384v-16h-384v-332h401v-16h-419v700h419v-16h-401v-320z" />
    <glyph glyph-name="uni0416" unicode="&#x416;" horiz-adv-x="1045" 
d="M973 0l-141.004 217.999c-16.667 26 -28 43.333 -34 52s-14.833 20.167 -26.5 34.5s-22.167 23.5 -31.5 27.5s-21 7.83301 -35 11.5s-30.667 5.5 -50 5.5h-123v-349h-18v349h-124c-19.333 0 -36 -1.83301 -50 -5.5s-25.667 -7.5 -35 -11.5s-19.833 -13.167 -31.5 -27.5
s-20.5 -25.833 -26.5 -34.5s-17.333 -26 -34 -52l-141 -218h-22l151 230c16.667 26.667 27.834 44 33.501 52s14.334 19.333 26.001 34s22.167 24.834 31.5 30.501s20.333 10.167 33 13.5c-16.667 7.33301 -32 19.333 -46 36s-31.667 41.667 -53 75l-3 4.5
c-0.666992 1 -1.5 2.33301 -2.5 4s-1.83301 3.16699 -2.5 4.5l-142 216h22l132 -204c16.667 -26 28 -43.333 34 -52s14.833 -20.167 26.5 -34.5s22.167 -23.5 31.5 -27.5s21 -7.83301 35 -11.5s30.667 -5.5 50 -5.5h107v335h18v-335h106c19.333 0 36 1.83301 50 5.5
s25.667 7.5 35 11.5s19.833 13.167 31.5 27.5s20.5 25.833 26.5 34.5s17.333 26 34 52l132 204h22l-142 -216l-12.5 -19c-5.66699 -8.66699 -9.5 -14.667 -11.5 -18s-5.33301 -8.5 -10 -15.5s-8.16699 -12 -10.5 -15l-9.5 -12.5c-4 -5.33301 -7.33301 -9.33301 -10 -12
s-6 -5.83398 -10 -9.50098s-7.5 -6.66699 -10.5 -9s-6.5 -4.66602 -10.5 -6.99902s-8 -4.5 -12 -6.5c16.667 -4.66699 32.334 -13.5 47.001 -26.5s25.834 -25 33.501 -36s22.5 -33.5 44.5 -67.5l150 -230h-22z" />
    <glyph glyph-name="uni0417" unicode="&#x417;" horiz-adv-x="630" 
d="M215 373l102 0.00195312c78 0 132.333 13.833 163 41.5s46 65.167 46 112.5c0 49.333 -16.667 89 -50 119s-84.666 45 -153.999 45h-8c-48.667 0 -92.5 -9.66699 -131.5 -29s-69.5 -47 -91.5 -83l-12 11c22 38 53.833 67 95.5 87s88.167 30 139.5 30h8
c74 0 129.5 -16.833 166.5 -50.5s55.5 -76.834 55.5 -129.501c0 -84.667 -42.667 -138 -128 -160c50.667 -10.667 89 -31.5 115 -62.5s39 -70.167 39 -117.5c0 -60 -22.333 -107.333 -67 -142s-104.334 -52 -179.001 -52h-6c-68.667 0 -126.334 14.5 -173.001 43.5
s-78.334 69.167 -95.001 120.5l12 11c16.667 -50.667 46.834 -89.834 90.501 -117.501s98.834 -41.5 165.501 -41.5h5c71.333 0 127.333 15.667 168 47s61 75 61 131c0 54 -17.5 95.833 -52.5 125.5s-87.5 44.5 -157.5 44.5h-127v16z" />
    <glyph glyph-name="uni0418" unicode="&#x418;" horiz-adv-x="731" 
d="M620 0h-18v653l-486 -653h-6v700h18v-653l486 653h6v-700z" />
    <glyph glyph-name="uni0419" unicode="&#x419;" horiz-adv-x="731" 
d="M366 750c-36.667 0 -67.333 10.333 -92 31s-37 46.334 -37 77.001h17c0 -26 10.833 -47.667 32.5 -65s48.167 -26 79.5 -26s57.833 8.66699 79.5 26s32.5 39 32.5 65h17c0 -30.667 -12.5 -56.334 -37.5 -77.001s-55.5 -31 -91.5 -31zM620.001 0h-18v653l-486 -653h-6v700
h18v-653l486 653h6v-700z" />
    <glyph glyph-name="uni041A" unicode="&#x41a;" horiz-adv-x="691" 
d="M619 0l-141.001 218c-16.667 26 -28 43.333 -34 52s-14.833 20.167 -26.5 34.5s-22.167 23.5 -31.5 27.5s-21 7.83301 -35 11.5s-30.667 5.5 -50 5.5h-163v-349h-18v700h18v-335h145c19.333 0 36.166 1.83301 50.499 5.5s26 7.5 35 11.5s19.5 13.167 31.5 27.5
s20.833 25.833 26.5 34.5l34.5 52l132 204h22l-142 -216c-36 -54.667 -61 -88.667 -75 -102c-10 -9.33301 -20.667 -16.666 -32 -21.999c12.667 -3.33301 23.667 -7.83301 33 -13.5s19.833 -15.834 31.5 -30.501s20.334 -26 26.001 -34s16.834 -25.333 33.501 -52l151 -230
h-22z" />
    <glyph glyph-name="uni041B" unicode="&#x41b;" horiz-adv-x="692" 
d="M346 662l-277 -662h-19l293 700h6l293 -700h-19z" />
    <glyph glyph-name="uni041C" unicode="&#x41c;" horiz-adv-x="889" 
d="M769 0h-18v653l-312 -402l-311 402v-653h-18v700h6l323 -418l324 418h6v-700z" />
    <glyph glyph-name="uni041D" unicode="&#x41d;" horiz-adv-x="731" 
d="M620 0h-18v349h-474v-349h-18v700h18v-335h474v335h18v-700z" />
    <glyph glyph-name="uni041E" unicode="&#x41e;" horiz-adv-x="874" 
d="M436 707c98.667 0 182.834 -34.833 252.501 -104.5s104.5 -153.834 104.5 -252.501s-34.833 -182.834 -104.5 -252.501s-153.834 -104.5 -252.501 -104.5s-182.667 34.833 -252 104.5s-104 153.834 -104 252.501s34.667 182.834 104 252.501s153.333 104.5 252 104.5z
M436 691c-94 0 -173.833 -33.167 -239.5 -99.5s-98.5 -146.833 -98.5 -241.5c0 -95.333 32.833 -176 98.5 -242s145.5 -99 239.5 -99s174 33 240 99s99 146.667 99 242c0 94.667 -33 175.167 -99 241.5s-146 99.5 -240 99.5z" />
    <glyph glyph-name="uni041F" unicode="&#x41f;" horiz-adv-x="731" 
d="M620 0h-18v684h-474v-684h-18v700h510v-700z" />
    <glyph glyph-name="uni0420" unicode="&#x420;" horiz-adv-x="713" 
d="M120 700h211c86.667 0 158.5 -20.667 215.5 -62s85.5 -102.333 85.5 -183c0 -80 -28.5 -140.667 -85.5 -182s-128.833 -62 -215.5 -62h-193v-211h-18v700zM138 227h193c53.333 0 100.5 7.5 141.5 22.5s74.833 40 101.5 75s40 78.5 40 130.5c0 76.667 -26.5 134 -79.5 172
s-120.833 57 -203.5 57h-193v-457z" />
    <glyph glyph-name="uni0421" unicode="&#x421;" horiz-adv-x="761" 
d="M436 707c105.333 0 193.333 -39.002 264 -117.002l-12 -11c-67.333 74.667 -151.333 112 -252 112c-94 0 -173.833 -33.167 -239.5 -99.5s-98.5 -146.833 -98.5 -241.5c0 -95.333 32.833 -176 98.5 -242s145.5 -99 239.5 -99c102 0 186 37.333 252 112l12 -13
c-70 -76.667 -158 -115 -264 -115c-98.667 0 -182.667 34.833 -252 104.5s-104 153.834 -104 252.501s34.667 182.834 104 252.501s153.333 104.5 252 104.5z" />
    <glyph glyph-name="uni0422" unicode="&#x422;" horiz-adv-x="601" 
d="M309 684v-684h-18v684h-241v16h500v-16h-241z" />
    <glyph glyph-name="uni0423" unicode="&#x423;" horiz-adv-x="684" 
d="M198 0h-20l154 247l-282 453h21l272 -436l270 436h21z" />
    <glyph glyph-name="uni0424" unicode="&#x424;" horiz-adv-x="1324" 
d="M948 708c81.333 0 150.833 -28.833 208.5 -86.5s86.5 -127.167 86.5 -208.5c0 -82 -28.833 -151.833 -86.5 -209.5s-127.167 -86.5 -208.5 -86.5c-62 0 -118.167 17.5 -168.5 52.5s-86.833 80.833 -109.5 137.5v-307h-18v307c-22 -56 -58.167 -101.667 -108.5 -137
s-106.5 -53 -168.5 -53c-81.333 0 -150.833 28.833 -208.5 86.5s-86.5 127.5 -86.5 209.5c0 81.333 28.833 150.833 86.5 208.5s127.167 86.5 208.5 86.5c62 0 118.167 -17.667 168.5 -53s86.5 -81.333 108.5 -138v183h18v-183c22 56.667 58.333 102.667 109 138
s107 53 169 53zM375 134c77.333 0 142.835 27.001 196.502 81.001s80.5 120 80.5 198c0 77.333 -26.833 143 -80.5 197s-119.167 81 -196.5 81c-76.667 0 -141.834 -27 -195.501 -81s-80.5 -119.667 -80.5 -197c0 -78.667 26.667 -144.834 80 -198.501
s118.666 -80.5 195.999 -80.5zM949.002 134.001c77.333 0 142.668 26.832 196.001 80.499s80 119.834 80 198.501c0 77.333 -26.833 143 -80.5 197s-118.834 81 -195.501 81c-77.333 0 -142.833 -27 -196.5 -81s-80.5 -119.667 -80.5 -197c0 -78 26.833 -144 80.5 -198
s119.167 -81 196.5 -81z" />
    <glyph glyph-name="uni0425" unicode="&#x425;" horiz-adv-x="650" 
d="M324 343l-251 -343h-23l263 358l-253 342h23l243 -329l241 329h23l-253 -344l263 -356h-23z" />
    <glyph glyph-name="uni0426" unicode="&#x426;" horiz-adv-x="771" 
d="M721 -129h-18v129h-593v700h18v-684h474v684h18v-684h101v-145z" />
    <glyph glyph-name="uni0427" unicode="&#x427;" horiz-adv-x="704" 
d="M584 0h-18v334c-20 -56.667 -52.5 -99.5 -97.5 -128.5s-94.833 -43.5 -149.5 -43.5c-78.667 0 -141.5 23.5 -188.5 70.5s-70.5 120.5 -70.5 220.5v247h18v-247c0 -96.667 21.667 -166.667 65 -210s102 -65 176 -65c68 0 126.167 23.5 174.5 70.5s72.5 116.5 72.5 208.5
v243h18v-700z" />
    <glyph glyph-name="uni0428" unicode="&#x428;" horiz-adv-x="1049" 
d="M939 0h-829v700h18v-684h388v684h18v-684h387v684h18v-700z" />
    <glyph glyph-name="uni0429" unicode="&#x429;" horiz-adv-x="1089" 
d="M1039 -129h-18v129h-911v700h18v-684h388v684h18v-684h387v684h18v-684h100v-145z" />
    <glyph glyph-name="uni042A" unicode="&#x42a;" horiz-adv-x="712" 
d="M168 403l266.001 0.000976562c75.333 0 132.166 -17.333 170.499 -52s57.5 -84.334 57.5 -149.001c0 -66.667 -18 -117 -54 -151s-94 -51 -174 -51h-284v684h-100v16h118v-297zM168.001 16.001l265 -0.000976562c76 0 130.167 15.333 162.5 46s48.5 77.334 48.5 140.001
c0 123.333 -70.333 185 -211 185h-265v-371z" />
    <glyph glyph-name="uni042B" unicode="&#x42b;" horiz-adv-x="890" 
d="M138 403l265 0.000976562c75.333 0 132.333 -17.333 171 -52s58 -84.334 58 -149.001c0 -66.667 -18 -117 -54 -151s-94.333 -51 -175 -51h-283v700h18v-297zM770 0.000976562h-18v700h18v-700zM138 16.001l265 -0.000976562c76 0 130.167 15.333 162.5 46
s48.5 77.334 48.5 140.001c0 123.333 -70.333 185 -211 185h-265v-371z" />
    <glyph glyph-name="uni042C" unicode="&#x42c;" horiz-adv-x="682" 
d="M138 403l265 0.000976562c75.333 0 132.333 -17.333 171 -52s58 -84.334 58 -149.001c0 -66.667 -18 -117 -54 -151s-94.333 -51 -175 -51h-283v700h18v-297zM138 16.001l265 -0.000976562c76 0 130.167 15.333 162.5 46s48.5 77.334 48.5 140.001
c0 123.333 -70.333 185 -211 185h-265v-371z" />
    <glyph glyph-name="uni042D" unicode="&#x42d;" horiz-adv-x="761" 
d="M324 707c98.667 0 182.667 -34.8311 252 -104.498s104 -153.834 104 -252.501s-34.667 -182.834 -104 -252.501s-153.333 -104.5 -252 -104.5c-106 0 -194 38.333 -264 115l12 13c66 -74.667 150 -112 252 -112c93.333 0 172.5 32.167 237.5 96.5s98.5 143.5 100.5 237.5
h-401v16h401c-2.66699 93.333 -36.5 172 -101.5 236s-143.833 96 -236.5 96c-100.667 0 -184.667 -37.333 -252 -112l-12 11c70.667 78 158.667 117 264 117z" />
    <glyph glyph-name="uni042E" unicode="&#x42e;" horiz-adv-x="1088" 
d="M650 707c98.667 0 182.834 -34.832 252.501 -104.499s104.5 -153.834 104.5 -252.501s-34.833 -182.834 -104.5 -252.501s-153.834 -104.5 -252.501 -104.5c-97.333 0 -180.5 34 -249.5 102s-104.5 150.667 -106.5 248h-156v-343h-18v700h18v-341h156
c2.66699 96.667 38.5 178.834 107.5 246.501s151.833 101.5 248.5 101.5zM651 9.00098c94 0 174 33 240 99s99 146.667 99 242c0 94.667 -33 175.167 -99 241.5s-146 99.5 -240 99.5s-173.833 -33.167 -239.5 -99.5s-98.5 -146.833 -98.5 -241.5
c0 -95.333 32.833 -176 98.5 -242s145.5 -99 239.5 -99z" />
    <glyph glyph-name="uni042F" unicode="&#x42f;" horiz-adv-x="682" 
d="M562 0h-18v221h-209c-44 0 -79.833 -7.16699 -107.5 -21.5s-56.167 -44.5 -85.5 -90.5l-70 -109h-22l80 122c38.667 58.667 80.667 94.667 126 108c-62 13.333 -111.833 39.5 -149.5 78.5s-56.5 89.5 -56.5 151.5c0 78 28.667 137.5 86 178.5s129.333 61.5 216 61.5h210
v-700zM544 684h-192c-82.667 0 -150.667 -18.667 -204 -56s-80 -93.333 -80 -168c0 -74 26.667 -129.667 80 -167s121.333 -56 204 -56h192v447z" />
    <glyph glyph-name="uni0430" unicode="&#x430;" horiz-adv-x="684" 
d="M584 0h-19v154c-19.333 -47.333 -50.666 -85.833 -93.999 -115.5s-91.666 -44.5 -144.999 -44.5c-70.667 0 -131 25 -181 75s-75 110.333 -75 181s25 131.167 75 181.5s110.333 75.5 181 75.5c53.333 0 101.666 -14.833 144.999 -44.5s74.666 -68.5 93.999 -116.5v154h19
v-500zM327 11c66 0 122.167 23.165 168.5 69.498s69.5 102.833 69.5 169.5s-23.167 123.334 -69.5 170.001s-102.5 70 -168.5 70c-66.667 0 -123 -23.167 -169 -69.5s-69 -103.166 -69 -170.499c0 -66.667 23 -123.167 69 -169.5s102.333 -69.5 169 -69.5z" />
    <glyph glyph-name="uni0431" unicode="&#x431;" 
d="M515 700h19.001c0 -28 -12.333 -47.333 -37 -58s-64.334 -16 -119.001 -16h-8c-188 0 -282 -77.333 -282 -232v-46c20 47.333 51.5 85.5 94.5 114.5s90.833 43.5 143.5 43.5c71.333 0 132 -25 182 -75s75 -110.333 75 -181c0 -71.333 -24.5 -132 -73.5 -182
s-109.833 -75 -182.5 -75c-73.333 0 -134.5 24.833 -183.5 74.5s-73.5 110.167 -73.5 181.5v146c0 84 26.167 146.5 78.5 187.5s125.833 61.5 220.5 61.5c58 0 96.833 3.83301 116.5 11.5s29.5 22.5 29.5 44.5zM327.001 490c-66 0 -122.167 -23.3301 -168.5 -69.9971
s-69.5 -103.334 -69.5 -170.001c0 -68 22.5 -125 67.5 -171s101.833 -69 170.5 -69s125.5 23.167 170.5 69.5s67.5 103.166 67.5 170.499s-23 124.166 -69 170.499s-102.333 69.5 -169 69.5z" />
    <glyph glyph-name="uni0432" unicode="&#x432;" horiz-adv-x="610" 
d="M100 500h262c51.333 0 89 -11.667 113 -35s36 -52.666 36 -87.999c0 -58.667 -26.333 -96.667 -79 -114c68 -17.333 102 -60 102 -128c0 -42.667 -13.833 -75.834 -41.5 -99.501s-70.5 -35.5 -128.5 -35.5h-264v500zM118 483v-213h244c87.333 0 131 35.667 131 107
c0 31.333 -10.167 56.833 -30.5 76.5s-53.833 29.5 -100.5 29.5h-244zM118 17h246c100.667 0 151 39.333 151 118c0 78 -50.333 117 -151 117l-246 1v-236z" />
    <glyph glyph-name="uni0433" unicode="&#x433;" horiz-adv-x="525" 
d="M118 484v-484h-18v500h395v-16h-377z" />
    <glyph glyph-name="uni0434" unicode="&#x434;" horiz-adv-x="650" 
d="M610 -130h-18v130h-534v-130h-18v146h60l222 484h6l222 -484h60v-146zM325 462l-206 -446h412z" />
    <glyph glyph-name="uni0435" unicode="&#x435;" horiz-adv-x="633" 
d="M326 507c54.667 0 102.167 -14.332 142.5 -42.999s69.5 -66.667 87.5 -114c5.33301 -15.333 9 -33 11 -53s1.66699 -35.333 -1 -46h-478c0 -74 22.833 -132.5 68.5 -175.5s106.167 -64.5 181.5 -64.5c72.667 -0.666992 138 23 196 71l12 -13
c-60.667 -50 -130 -75 -208 -75c-80 0.666992 -144.667 24.167 -194 70.5s-74 108.166 -74 185.499c0 72 24.333 132.833 73 182.5s109.667 74.5 183 74.5zM326 490.001c-66 0 -120.999 -21.167 -164.999 -63.5s-68 -95.166 -72 -158.499h461
c1.33301 27.333 -2.33398 52.666 -11.001 75.999c-16.667 44.667 -43.5 80.167 -80.5 106.5s-81.167 39.5 -132.5 39.5z" />
    <glyph glyph-name="uni0436" unicode="&#x436;" horiz-adv-x="846" 
d="M784 0l-76.9961 120c-16.667 26 -28 43.333 -34 52s-14.833 20.167 -26.5 34.5s-22.167 23.5 -31.5 27.5s-21 7.83301 -35 11.5s-30.667 5.5 -50 5.5h-98v-251h-18v251h-98c-19.333 0 -36 -1.83301 -50 -5.5s-25.667 -7.5 -35 -11.5s-19.833 -13.167 -31.5 -27.5
s-20.5 -25.833 -26.5 -34.5s-17.333 -26 -34 -52l-77 -120h-22l86 132c14 22 23.167 36.167 27.5 42.5s11.666 16.5 21.999 30.5s18.333 23.333 24 28s13.167 10 22.5 16s19 10.333 29 13c-12.667 6 -25.167 15.5 -37.5 28.5s-22.166 24.833 -29.499 35.5l-40 60l-76 114h22
l66 -101l29 -45c4 -6 11.667 -16.5 23 -31.5s19.666 -24 24.999 -27l25 -14.5c11.333 -6.66699 22.666 -10.667 33.999 -12s25 -2 41 -2h81v233h18v-233h81c16 0 29.667 0.666992 41 2s22.666 5.33301 33.999 12l25 14.5c5.33301 3 13.666 12 24.999 27s19 25.5 23 31.5
l29 45l66 101h22l-76 -114l-40 -60c-7.33301 -10.667 -17.166 -22.5 -29.499 -35.5s-24.833 -22.5 -37.5 -28.5c10 -2.66699 19.667 -7 29 -13s16.833 -11.333 22.5 -16s13.667 -14 24 -28s17.666 -24.167 21.999 -30.5s13.5 -20.5 27.5 -42.5l86 -132h-22z" />
    <glyph glyph-name="uni0437" unicode="&#x437;" horiz-adv-x="576" 
d="M394 263c68 -17.333 102 -60 102 -128c0 -46 -18.833 -81.167 -56.5 -105.5s-85.5 -36.5 -143.5 -36.5h-26c-45.333 0 -87.166 9.83301 -125.499 29.5s-64.833 44.834 -79.5 75.501l13 12c12.667 -28.667 37.167 -52.5 73.5 -71.5s76.166 -28.5 119.499 -28.5h25
c54 0 97.667 10.333 131 31s50 52 50 94c0 77.333 -50.333 116.333 -151 117l-95 1v17h93c87.333 0 131 35.667 131 107c0 36 -15.167 63.833 -45.5 83.5s-68.833 29.5 -115.5 29.5h-17c-36.667 0 -72 -7.83301 -106 -23.5s-59 -36.834 -75 -63.501l-13 12
c18 28 45 50.333 81 67s73.333 25 112 25h18c51.333 0 94 -11.833 128 -35.5s51 -55.167 51 -94.5c0 -58.667 -26.333 -96.667 -79 -114z" />
    <glyph glyph-name="uni0438" unicode="&#x438;" horiz-adv-x="634" 
d="M534 0h-18v460l-410 -460h-6v500h18v-460l410 460h6v-500z" />
    <glyph glyph-name="uni0439" unicode="&#x439;" horiz-adv-x="634" 
d="M315 573c-36.667 0 -67.333 10.333 -92 31s-37 46.334 -37 77.001h17c0 -26 10.667 -47.5 32 -64.5s48 -25.5 80 -25.5s58.667 8.5 80 25.5s32 38.5 32 64.5h17c0 -30.667 -12.5 -56.334 -37.5 -77.001s-55.5 -31 -91.5 -31zM534.001 0h-18v460l-410 -460h-6v500h18v-460
l410 460h6v-500z" />
    <glyph glyph-name="uni043A" unicode="&#x43a;" horiz-adv-x="558" 
d="M495 0l-76 120l-34.5 52c-5.66699 8.66699 -14.5 20.167 -26.5 34.5s-22.5 23.5 -31.5 27.5s-20.667 7.83301 -35 11.5s-31.166 5.5 -50.499 5.5h-118v-251h-18v500h18v-233h101c16 0 29.833 0.666992 41.5 2s23 5.16602 34 11.499s19.333 11.333 25 15
s14 12.834 25 27.501s18.667 25.167 23 31.5s13.833 21.166 28.5 44.499l67 101h22l-76 -114c-2 -3.33301 -6.5 -10.166 -13.5 -20.499l-13.5 -20l-11.5 -16.5l-11.5 -16l-10 -13c-4.66699 -6 -8.5 -10.167 -11.5 -12.5s-6.66699 -5.5 -11 -9.5s-8.5 -7.16699 -12.5 -9.5
s-8.33301 -4.5 -13 -6.5c10 -2.66699 19.667 -7 29 -13s16.833 -11.333 22.5 -16s13.667 -14 24 -28s17.666 -24.167 21.999 -30.5s13.5 -20.5 27.5 -42.5l86 -132h-22z" />
    <glyph glyph-name="uni043B" unicode="&#x43b;" horiz-adv-x="545" 
d="M272 462l-213 -462h-19l229 500h6l230 -500h-19z" />
    <glyph glyph-name="uni043C" unicode="&#x43c;" horiz-adv-x="694" 
d="M594 0h-19v460l-228 -257l-229 257v-460h-18v500h6l241 -271l241 271h6v-500z" />
    <glyph glyph-name="uni043D" unicode="&#x43d;" horiz-adv-x="634" 
d="M534 0h-18v242h-398v-242h-18v500h18v-241h398v241h18v-500z" />
    <glyph glyph-name="uni043E" unicode="&#x43e;" 
d="M326 507c70.667 0 131.167 -25.167 181.5 -75.5s75.5 -110.833 75.5 -181.5s-25 -131 -75 -181s-110.667 -75 -182 -75c-70.667 0 -131 25 -181 75s-75 110.333 -75 181c0 71.333 25 132 75 182s110.333 75 181 75zM327 490c-66.667 0 -123 -23.1689 -169 -69.502
s-69 -103.166 -69 -170.499c0 -66.667 23 -123.167 69 -169.5s102.333 -69.5 169 -69.5c66 0 122.167 23.167 168.5 69.5s69.5 102.833 69.5 169.5s-23.167 123.334 -69.5 170.001s-102.5 70 -168.5 70z" />
    <glyph glyph-name="uni043F" unicode="&#x43f;" horiz-adv-x="634" 
d="M534 0h-18v484h-398v-484h-18v500h434v-500z" />
    <glyph glyph-name="uni0440" unicode="&#x440;" horiz-adv-x="689" 
d="M363 507c70.667 0 131.002 -25.167 181.002 -75.5s75 -110.833 75 -181.5s-25 -131 -75 -181s-110.333 -75 -181 -75c-54 0 -102.5 14.833 -145.5 44.5s-74.5 68.5 -94.5 116.5v-339h-18v684h19v-154c19.333 48 50.666 86.833 93.999 116.5s91.666 44.5 144.999 44.5z
M363.002 490c-66 0 -122.167 -23.3311 -168.5 -69.998s-69.5 -103.334 -69.5 -170.001s23.167 -123.167 69.5 -169.5s102.5 -69.5 168.5 -69.5c66.667 0 123 23.167 169 69.5s69 102.833 69 169.5c0 67.333 -23 124.166 -69 170.499s-102.333 69.5 -169 69.5z" />
    <glyph glyph-name="uni0441" unicode="&#x441;" horiz-adv-x="589" 
d="M326 507c80 0 146.001 -30.999 198.001 -92.999l-13 -12c-48 58.667 -109.667 88 -185 88c-66 0 -122.167 -23.333 -168.5 -70s-69.5 -103.334 -69.5 -170.001s23.167 -123.167 69.5 -169.5s102.5 -69.5 168.5 -69.5c76 0 137.667 29 185 87l12 -12
c-50.667 -61.333 -116.334 -92 -197.001 -92c-70.667 0 -131 25 -181 75s-75 110.333 -75 181c0 71.333 25 132 75 182s110.333 75 181 75z" />
    <glyph glyph-name="uni0442" unicode="&#x442;" horiz-adv-x="521" 
d="M269 484v-484h-18v484h-211v16h441v-16h-212z" />
    <glyph glyph-name="uni0443" unicode="&#x443;" horiz-adv-x="656" 
d="M561 500v-438.999c0 -79.333 -19.833 -141 -59.5 -185s-98.167 -66.333 -175.5 -67c-78 0 -147.333 25 -208 75l12 13c58.667 -48 124 -71.667 196 -71c144.667 0 217 78.667 217 236v87c-20 -52.667 -51.333 -91.834 -94 -117.501s-86.667 -38.5 -132 -38.5
c-66 0 -118.667 20 -158 60s-59 97.333 -59 172v275h18v-275c0 -70.667 17.667 -124.167 53 -160.5s84 -54.5 146 -54.5c68 0 122.667 23.333 164 70s62 109.667 62 189v231h18z" />
    <glyph glyph-name="uni0444" unicode="&#x444;" horiz-adv-x="1148" 
d="M821 507c71.333 0 132 -25.166 182 -75.499s75 -110.833 75 -181.5s-25 -131 -75 -181s-110.667 -75 -182 -75c-52.667 0 -100.5 14.5 -143.5 43.5s-74.5 67.167 -94.5 114.5v-315h-18v315c-20 -47.333 -51.667 -85.5 -95 -114.5s-91.333 -43.5 -144 -43.5
c-70.667 0 -131 25 -181 75s-75 110.333 -75 181s25 131.167 75 181.5s110.333 75.5 181 75.5c52.667 0 100.5 -14.5 143.5 -43.5s74.5 -67.167 94.5 -114.5v151h19v-152c20 47.333 51.5 85.666 94.5 114.999s90.833 44 143.5 44zM327 11.001
c66 0 122.167 23.165 168.5 69.498s69.5 102.833 69.5 169.5s-23.167 123.334 -69.5 170.001s-102.5 70 -168.5 70c-66.667 0 -123 -23.167 -169 -69.5s-69 -103.166 -69 -170.499c0 -66.667 23 -123.167 69 -169.5s102.333 -69.5 169 -69.5zM821 10.999
c66.667 0 123 23.1689 169 69.502s69 102.833 69 169.5c0 67.333 -23 124.166 -69 170.499s-102.333 69.5 -169 69.5c-66 0 -122.167 -23.333 -168.5 -70s-69.5 -103.334 -69.5 -170.001s23.167 -123.167 69.5 -169.5s102.5 -69.5 168.5 -69.5z" />
    <glyph glyph-name="uni0445" unicode="&#x445;" horiz-adv-x="552" 
d="M275 244l-212 -244h-23l223 257l-213 243h23l204 -233l202 233h22l-213 -245l223 -255h-23z" />
    <glyph glyph-name="uni0446" unicode="&#x446;" horiz-adv-x="675" 
d="M634 -130h-18v130h-516v500h18v-484h398v484h18v-484h100v-146z" />
    <glyph glyph-name="uni0447" unicode="&#x447;" horiz-adv-x="651" 
d="M551 0l-18.998 0.00195312v235c-16.667 -39.333 -43.167 -69.666 -79.5 -90.999s-78.5 -32 -126.5 -32c-84.667 0 -144.334 21.667 -179.001 65s-52 106.666 -52 189.999v133h18v-134c0 -78.667 15.333 -137.834 46 -177.501s86 -59.5 166 -59.5
c39.333 0 73.166 6.16699 101.499 18.5s49.833 29.166 64.5 50.499s25.167 43.333 31.5 66s9.5 47 9.5 73v163h19v-500z" />
    <glyph glyph-name="uni0448" unicode="&#x448;" horiz-adv-x="916" 
d="M816 0h-716v500h18v-484h331v484h18v-484h330v484h19v-500z" />
    <glyph glyph-name="uni0449" unicode="&#x449;" horiz-adv-x="956" 
d="M916 -130h-18v130h-798v500h18v-484h331v484h18v-484h330v484h19v-484h100v-146z" />
    <glyph glyph-name="uni044A" unicode="&#x44a;" horiz-adv-x="670" 
d="M159 320l229 0.000976562c64 0 111 -14.833 141 -44.5s45 -67.834 45 -114.501c0 -47.333 -15 -86 -45 -116s-77 -45 -141 -45h-248v484h-100v16h119v-180zM159 16.001h229c60 0 103.167 13.333 129.5 40s39.5 61.667 39.5 105c0 42 -13.167 76.167 -39.5 102.5
s-69.5 39.5 -129.5 39.5h-229v-287z" />
    <glyph glyph-name="uni044B" unicode="&#x44b;" horiz-adv-x="728" 
d="M118 320l229 0.000976562c64 0 111.167 -14.833 141.5 -44.5s45.5 -67.834 45.5 -114.501c0 -47.333 -15 -86 -45 -116s-77.333 -45 -142 -45h-247v500h18v-180zM628 0.000976562h-18v500h18v-500zM118 16.001h229c60 0 103.167 13.333 129.5 40s39.5 61.667 39.5 105
c0 42 -13.167 76.167 -39.5 102.5s-69.5 39.5 -129.5 39.5h-229v-287z" />
    <glyph glyph-name="uni044C" unicode="&#x44c;" horiz-adv-x="594" 
d="M118 320l229 0.000976562c64 0 111.167 -14.833 141.5 -44.5s45.5 -67.834 45.5 -114.501c0 -47.333 -15 -86 -45 -116s-77.333 -45 -142 -45h-247v500h18v-180zM118 16.001h229c60 0 103.167 13.333 129.5 40s39.5 61.667 39.5 105c0 42 -13.167 76.167 -39.5 102.5
s-69.5 39.5 -129.5 39.5h-229v-287z" />
    <glyph glyph-name="uni044D" unicode="&#x44d;" horiz-adv-x="589" 
d="M263 507c70.667 0 131.002 -25.1689 181.002 -75.502s75 -110.833 75 -181.5s-25 -131 -75 -181s-110.333 -75 -181 -75c-80.667 0 -146.334 30.667 -197.001 92l11 12c48 -58 110 -87 186 -87c64.667 0 119.834 22.333 165.501 67s69.5 99.334 71.5 164.001h-274v17h274
c-2 64.667 -25.833 119.334 -71.5 164.001s-100.834 67 -165.501 67c-76.667 0 -138.334 -29.333 -185.001 -88l-13 12c51.333 62 117.333 93 198 93z" />
    <glyph glyph-name="uni044E" unicode="&#x44e;" horiz-adv-x="817" 
d="M490 507c70.667 0 131.167 -25.167 181.5 -75.5s75.5 -110.833 75.5 -181.5s-25 -131 -75 -181s-110.667 -75 -182 -75c-69.333 0 -128.833 24 -178.5 72s-75.5 106.667 -77.5 176h-116v-242h-18v500h18v-241h116c2 69.333 27.833 128 77.5 176s109.167 72 178.5 72z
M490 11c66 0 122.167 23.165 168.5 69.498s69.5 102.833 69.5 169.5s-23.167 123.334 -69.5 170.001s-102.5 70 -168.5 70c-66.667 0 -123 -23.167 -169 -69.5s-69 -103.166 -69 -170.499c0 -66.667 23 -123.167 69 -169.5s102.333 -69.5 169 -69.5z" />
    <glyph glyph-name="uni044F" unicode="&#x44f;" horiz-adv-x="596" 
d="M495 0l-17.9971 0.00292969v181h-193c-39.333 -0.666992 -68.333 -8.83398 -87 -24.501s-43.334 -46.834 -74.001 -93.501c-4 -6 -7 -10.667 -9 -14l-32 -49h-22l42 62c4 5.33301 9.66699 13.666 17 24.999s12.666 19.333 15.999 24l14 19c6 8 10.667 14 14 18
s7.66602 8.66699 12.999 14s10.333 9.66602 15 12.999s9.66699 6.33301 15 9c-45.333 8 -80.833 25.833 -106.5 53.5s-38.5 61.834 -38.5 102.501c0 48.667 17.5 87.5 52.5 116.5s82.5 43.5 142.5 43.5h239v-500zM477.003 483.003h-221
c-55.333 0 -98.666 -12.833 -129.999 -38.5s-47 -60.5 -47 -104.5c0 -43.333 15.667 -77.833 47 -103.5s74.666 -38.5 129.999 -38.5h221v285z" />
    <glyph glyph-name="uni0451" unicode="&#x451;" horiz-adv-x="634" 
d="M227 611c4.66699 0 8.5 -1.5 11.5 -4.5s4.5 -6.5 4.5 -10.5c0 -10.667 -5.33301 -16 -16 -16c-4 0 -7.5 1.5 -10.5 4.5s-4.5 6.83301 -4.5 11.5c0 4 1.5 7.5 4.5 10.5s6.5 4.5 10.5 4.5zM427 611c4.66699 0 8.5 -1.5 11.5 -4.5s4.5 -6.5 4.5 -10.5
c0 -10.667 -5.33301 -16 -16 -16c-4 0 -7.5 1.5 -10.5 4.5s-4.5 6.83301 -4.5 11.5c0 4 1.5 7.5 4.5 10.5s6.5 4.5 10.5 4.5zM326 507c54.667 0 102.167 -14.332 142.5 -42.999s69.5 -66.667 87.5 -114c5.33301 -15.333 9 -33 11 -53s1.66699 -35.333 -1 -46h-478
c0 -74 22.833 -132.5 68.5 -175.5s106.167 -64.5 181.5 -64.5c72.667 -0.666992 138 23 196 71l12 -13c-60.667 -50 -130 -75 -208 -75c-80 0.666992 -144.667 24.167 -194 70.5s-74 108.166 -74 185.499c0 72 24.333 132.833 73 182.5s109.667 74.5 183 74.5zM326 490.001
c-66 0 -120.999 -21.167 -164.999 -63.5s-68 -95.166 -72 -158.499h461c1.33301 27.333 -2.33398 52.666 -11.001 75.999c-16.667 44.667 -43.5 80.167 -80.5 106.5s-81.167 39.5 -132.5 39.5z" />
    <glyph glyph-name="Wgrave" unicode="&#x1e80;" horiz-adv-x="1202" 
d="M562 837l60 -87h-21l-79 87h40zM879 0h-6l-272 661l-272 -661h-6l-273 700h19l257 -661l272 661h6l272 -661l257 661h19z" />
    <glyph glyph-name="wgrave" unicode="&#x1e81;" horiz-adv-x="935" 
d="M429 668l60 -88h-21l-79 88h40zM680 0h-5l-208 462l-207 -462h-6l-214 500h19l198 -462l209 462h3l208 -462l199 462h19z" />
    <glyph glyph-name="Wacute" unicode="&#x1e82;" horiz-adv-x="1202" 
d="M601 750h-21l60 87h40zM879 0h-6l-272 661l-272 -661h-6l-273 700h19l257 -661l272 661h6l272 -661l257 661h19z" />
    <glyph glyph-name="wacute" unicode="&#x1e83;" horiz-adv-x="935" 
d="M468 580h-21l60 88h40zM680 0h-5l-208 462l-207 -462h-6l-214 500h19l198 -462l209 462h3l208 -462l199 462h19z" />
    <glyph glyph-name="Wdieresis" unicode="&#x1e84;" horiz-adv-x="1202" 
d="M500 750c-4 0 -7.5 1.5 -10.5 4.5s-4.5 6.5 -4.5 10.5c0 4.66699 1.5 8.5 4.5 11.5s6.5 4.5 10.5 4.5c10.667 0 16 -5.33301 16 -16c0 -4 -1.5 -7.5 -4.5 -10.5s-6.83301 -4.5 -11.5 -4.5zM699 750c-4 0 -7.5 1.5 -10.5 4.5s-4.5 6.5 -4.5 10.5
c0 4.66699 1.5 8.5 4.5 11.5s6.5 4.5 10.5 4.5c10.667 0 16 -5.33301 16 -16c0 -4 -1.5 -7.5 -4.5 -10.5s-6.83301 -4.5 -11.5 -4.5zM879 0h-6l-272 661l-272 -661h-6l-273 700h19l257 -661l272 661h6l272 -661l257 661h19z" />
    <glyph glyph-name="wdieresis" unicode="&#x1e85;" horiz-adv-x="935" 
d="M370 580c-4 0 -7.5 1.5 -10.5 4.5s-4.5 6.83301 -4.5 11.5c0 4 1.5 7.5 4.5 10.5s6.5 4.5 10.5 4.5c4.66699 0 8.5 -1.5 11.5 -4.5s4.5 -6.5 4.5 -10.5c0 -10.667 -5.33301 -16 -16 -16zM570 580c-4 0 -7.5 1.5 -10.5 4.5s-4.5 6.83301 -4.5 11.5c0 4 1.5 7.5 4.5 10.5
s6.5 4.5 10.5 4.5c4.66699 0 8.5 -1.5 11.5 -4.5s4.5 -6.5 4.5 -10.5c0 -10.667 -5.33301 -16 -16 -16zM680 0h-5l-208 462l-207 -462h-6l-214 500h19l198 -462l209 462h3l208 -462l199 462h19z" />
    <glyph glyph-name="Ygrave" unicode="&#x1ef2;" horiz-adv-x="685" 
d="M304 837l60 -87h-21l-79 87h40zM351 0h-18v245l-283 455h21l272 -436l271 436h21l-284 -454v-246z" />
    <glyph glyph-name="ygrave" unicode="&#x1ef3;" horiz-adv-x="656" 
d="M338 580h-21l-79 88h40zM118 500v-274.999c0 -70.667 17.667 -124.167 53 -160.5s84 -54.5 146 -54.5c68 0 122.667 23.333 164 70s62 109.667 62 189v231h18v-439c0 -79.333 -19.833 -141 -59.5 -185s-98.167 -66.333 -175.5 -67c-78 0 -147.333 25 -208 75l12 13
c58.667 -48 124 -71.667 196 -71c144.667 0 217 78.667 217 236v87c-20 -52.667 -51.333 -91.834 -94 -117.501s-86.667 -38.5 -132 -38.5c-66 0 -118.667 20 -158 60s-59 97.333 -59 172v275h18z" />
    <glyph glyph-name="endash" unicode="&#x2013;" horiz-adv-x="513" 
d="M442 280h-372v19h372v-19z" />
    <glyph glyph-name="emdash" unicode="&#x2014;" horiz-adv-x="681" 
d="M610 280h-540v19h540v-19z" />
    <glyph glyph-name="quoteleft" unicode="&#x2018;" horiz-adv-x="206" 
d="M70 575l55 125h10l-35 -125h-30z" />
    <glyph glyph-name="quoteright" unicode="&#x2019;" horiz-adv-x="206" 
d="M135 700l-54 -125h-11l35 125h30z" />
    <glyph glyph-name="quotesinglbase" unicode="&#x201a;" horiz-adv-x="206" 
d="M135 33l-54 -125h-11l35 125h30z" />
    <glyph glyph-name="quotedblleft" unicode="&#x201c;" horiz-adv-x="269" 
d="M70 575l55 125h10l-35 -125h-30zM133 575l55 125h10l-35 -125h-30z" />
    <glyph glyph-name="quotedblright" unicode="&#x201d;" horiz-adv-x="269" 
d="M135 700l-54 -125h-11l35 125h30zM198 700l-54 -125h-11l35 125h30z" />
    <glyph glyph-name="quotedblbase" unicode="&#x201e;" horiz-adv-x="269" 
d="M135 33l-54 -125h-11l35 125h30zM198 33l-54 -125h-11l35 125h30z" />
    <glyph glyph-name="dagger" unicode="&#x2020;" horiz-adv-x="388" 
d="M203 499h114v-17h-114v-542h-19v542h-114v17h114v201h19v-201z" />
    <glyph glyph-name="daggerdbl" unicode="&#x2021;" horiz-adv-x="388" 
d="M203 499h114v-17h-114v-322h114v-17h-114v-203h-19v203h-114v17h114v322h-114v17h114v201h19v-201z" />
    <glyph glyph-name="bullet" unicode="&#x2022;" horiz-adv-x="357" 
d="M178 420c30.667 0 56.334 -10.5 77.001 -31.5s31 -46.5 31 -76.5s-10.333 -55.5 -31 -76.5s-46.334 -31.5 -77.001 -31.5c-30 0 -55.5 10.5 -76.5 31.5s-31.5 46.5 -31.5 76.5s10.5 55.5 31.5 76.5s46.5 31.5 76.5 31.5z" />
    <glyph glyph-name="ellipsis" unicode="&#x2026;" horiz-adv-x="518" 
d="M90 33c5.33301 0 10 -2 14 -6s6 -8.66699 6 -14s-2 -10 -6 -14s-8.66699 -6 -14 -6s-10 2 -14 6s-6 8.66699 -6 14s2 10 6 14s8.66699 6 14 6zM259 33c5.33301 0 10 -2 14 -6s6 -8.66699 6 -14s-2 -10 -6 -14s-8.66699 -6 -14 -6s-10 2 -14 6s-6 8.66699 -6 14s2 10 6 14
s8.66699 6 14 6zM428 33c5.33301 0 10 -2 14 -6s6 -8.66699 6 -14s-2 -10 -6 -14s-8.66699 -6 -14 -6s-10 2 -14 6s-6 8.66699 -6 14s2 10 6 14s8.66699 6 14 6z" />
    <glyph glyph-name="perthousand" unicode="&#x2030;" horiz-adv-x="1198" 
d="M236 707c46 0 85.167 -16.167 117.5 -48.5s48.5 -71.5 48.5 -117.5s-16.167 -85.167 -48.5 -117.5s-71.5 -48.5 -117.5 -48.5s-85.167 16.167 -117.5 48.5s-48.5 71.5 -48.5 117.5s16.167 85.167 48.5 117.5s71.5 48.5 117.5 48.5zM200 0h-23l436 700h23zM237 689
c-44 0 -79.5 -13.667 -106.5 -41s-40.5 -63 -40.5 -107s13.5 -79.667 40.5 -107s62.5 -41 106.5 -41s79.5 13.667 106.5 41s40.5 63 40.5 107s-13.5 79.667 -40.5 107s-62.5 41 -106.5 41zM578 325c46 0 85.167 -16.167 117.5 -48.5s48.5 -71.5 48.5 -117.5
s-16.167 -85.167 -48.5 -117.5s-71.5 -48.5 -117.5 -48.5s-85.167 16.167 -117.5 48.5s-48.5 71.5 -48.5 117.5s16.167 85.167 48.5 117.5s71.5 48.5 117.5 48.5zM962 325c46 0 85.167 -16.167 117.5 -48.5s48.5 -71.5 48.5 -117.5s-16.167 -85.167 -48.5 -117.5
s-71.5 -48.5 -117.5 -48.5s-85.167 16.167 -117.5 48.5s-48.5 71.5 -48.5 117.5s16.167 85.167 48.5 117.5s71.5 48.5 117.5 48.5zM579 308c-44 0 -79.5 -13.833 -106.5 -41.5s-40.5 -63.5 -40.5 -107.5s13.5 -79.667 40.5 -107s62.5 -41 106.5 -41s79.5 13.667 106.5 41
s40.5 63 40.5 107s-13.5 79.833 -40.5 107.5s-62.5 41.5 -106.5 41.5zM962 308c-44 0 -79.5 -13.833 -106.5 -41.5s-40.5 -63.5 -40.5 -107.5s13.5 -79.667 40.5 -107s62.5 -41 106.5 -41s79.5 13.667 106.5 41s40.5 63 40.5 107s-13.5 79.833 -40.5 107.5
s-62.5 41.5 -106.5 41.5z" />
    <glyph glyph-name="guilsinglleft" unicode="&#x2039;" horiz-adv-x="271" 
d="M201 357l-101 -79l101 -78v-24l-131 103l131 103v-25z" />
    <glyph glyph-name="guilsinglright" unicode="&#x203a;" horiz-adv-x="271" 
d="M201 279l-131 -103v24l100 78l-100 79v25z" />
    <glyph glyph-name="fraction" unicode="&#x2044;" horiz-adv-x="434" 
d="M383 700l-314 -700h-19l314 700h19z" />
    <glyph glyph-name="Euro" unicode="&#x20ac;" horiz-adv-x="857" 
d="M522 9c102 0 186.001 37.333 252.001 112l12 -13c-70 -76.667 -158 -115 -264 -115c-84.667 0 -159.334 26.5 -224.001 79.5s-106 120.167 -124 201.5h-104v17h101c-3.33301 21.333 -5 41 -5 59c0 22 2 43 6 63h-102v17h105c18 80 59.333 146.167 124 198.5
s139 78.5 223 78.5c105.333 0 193.333 -39 264 -117l-12 -11c-67.333 74.667 -151.333 112 -252 112c-80 0 -150.5 -24.5 -211.5 -73.5s-100.167 -111.5 -117.5 -187.5h435l-18 -17h-420c-4 -20 -6 -41 -6 -63c0 -18 1.66699 -37.667 5 -59h300l-18 -17h-279
c17.333 -77.333 56.5 -140.833 117.5 -190.5s131.833 -74.5 212.5 -74.5z" />
    <glyph glyph-name="uni2116" unicode="&#x2116;" horiz-adv-x="1344" 
d="M987 707c71.333 0 132 -25.167 182 -75.5s75 -110.833 75 -181.5s-25 -131 -75 -181s-110.667 -75 -182 -75s-131.833 25 -181.5 75s-74.5 110.333 -74.5 181c0 71.333 25 132 75 182s110.333 75 181 75zM630 0h-6l-486 653v-653h-18v700h6l486 -653v653h18v-700z
M987 690c-66.667 0 -123 -23.1709 -169 -69.5039s-69 -103.166 -69 -170.499s23 -124.166 69 -170.499s102.333 -69.5 169 -69.5c66 0 122.167 23.333 168.5 70s69.5 103.334 69.5 170.001s-23.167 123.334 -69.5 170.001s-102.5 70 -168.5 70zM751 16.9961h473v-17h-473v17
z" />
    <glyph glyph-name="trademark" unicode="&#x2122;" horiz-adv-x="775" 
d="M220 683v-293h-19v293h-131v17h282v-17h-132zM704 390h-19v271l-142 -156l-142 156v-271h-19v310h7l154 -168l155 168h6v-310z" />
    <glyph glyph-name="oneeighth" unicode="&#x215b;" horiz-adv-x="762" 
d="M154 382v275l-69 -83l-15 11l97 115h6v-318h-19zM181 0h-19l314 700h19zM622 172c46.667 -15.333 69.999 -43.6641 69.999 -84.9971c0 -28.667 -11.667 -51.334 -35 -68.001s-53.666 -25.334 -90.999 -26.001h-4c-38 0 -69 8.5 -93 25.5s-36 39.833 -36 68.5
c0 41.333 23.333 69.666 70 84.999c-37.333 13.333 -56 37.333 -56 72c0 25.333 10.5 45 31.5 59s47.167 21.333 78.5 22h5c32.667 0 60.167 -7 82.5 -21s33.5 -34 33.5 -60c0 -34.667 -18.667 -58.667 -56 -72zM562.999 181.002c13.333 0 26.3291 1.16797 38.9961 3.50098
s25.334 8.5 38.001 18.5s19 23.667 19 41c0 20.667 -9.16699 36.5 -27.5 47.5s-41.166 16.5 -68.499 16.5s-50.166 -5.5 -68.499 -16.5s-27.5 -26.833 -27.5 -47.5c0 -20 8.83301 -35.333 26.5 -46s40.834 -16.334 69.501 -17.001zM561.995 11.0029
c32.667 0 59.167 6.83301 79.5 20.5s30.5 32.167 30.5 55.5c0 22.667 -10.167 41 -30.5 55s-46.833 21 -79.5 21s-59.167 -7 -79.5 -21s-30.5 -32.333 -30.5 -55c0 -23.333 10.167 -41.833 30.5 -55.5s46.833 -20.5 79.5 -20.5z" />
    <glyph glyph-name="threeeighths" unicode="&#x215c;" horiz-adv-x="899" 
d="M341 694l-165.998 -131c9.33301 4.66699 26.333 7 51 7c43.333 0 76.5 -8.33301 99.5 -25s34.5 -38.667 34.5 -66c0 -30 -12.833 -54.833 -38.5 -74.5s-58.834 -29.5 -99.501 -29.5h-6c-38 0.666992 -69.5 8.33398 -94.5 23.001s-42.167 30 -51.5 46l14 13
c5.33301 -8.66699 12.166 -17.334 20.499 -26.001s23 -17.334 44 -26.001s44.5 -13 70.5 -13c34 0.666992 62.833 9.33398 86.5 26.001s35.5 37 35.5 61c0 20.667 -10 38 -30 52s-48 21 -84 21c-31.333 0 -56 -3.66699 -74 -11l-17 13l164 129h-193v17h234v-6zM317.002 0
h-19l314 700h19zM758.002 172c46.667 -15.333 69.999 -43.6641 69.999 -84.9971c0 -28.667 -11.667 -51.334 -35 -68.001s-53.666 -25.334 -90.999 -26.001h-4c-38 0 -69 8.5 -93 25.5s-36 39.833 -36 68.5c0 41.333 23.333 69.666 70 84.999
c-37.333 13.333 -56 37.333 -56 72c0 25.333 10.5 45 31.5 59s47.167 21.333 78.5 22h5c32.667 0 60.167 -7 82.5 -21s33.5 -34 33.5 -60c0 -34.667 -18.667 -58.667 -56 -72zM699.001 181.002c13.333 0 26.3291 1.16797 38.9961 3.50098s25.334 8.5 38.001 18.5
s19 23.667 19 41c0 20.667 -9.16699 36.5 -27.5 47.5s-41.166 16.5 -68.499 16.5s-50.166 -5.5 -68.499 -16.5s-27.5 -26.833 -27.5 -47.5c0 -20 8.83301 -35.333 26.5 -46s40.834 -16.334 69.501 -17.001zM698.997 11.0029c32.667 0 59.167 6.83301 79.5 20.5
s30.5 32.167 30.5 55.5c0 22.667 -10.167 41 -30.5 55s-46.833 21 -79.5 21s-59.167 -7 -79.5 -21s-30.5 -32.333 -30.5 -55c0 -23.333 10.167 -41.833 30.5 -55.5s46.833 -20.5 79.5 -20.5z" />
    <glyph glyph-name="fiveeighths" unicode="&#x215d;" horiz-adv-x="870" 
d="M335 682h-212.997v-124c24 14 59 21 105 21c44 0 77.167 -8.66699 99.5 -26s33.5 -42 33.5 -74c0 -30 -12.833 -54.833 -38.5 -74.5s-58.834 -29.5 -99.501 -29.5h-6c-38 0.666992 -69.5 8.33398 -94.5 23.001s-42.167 30 -51.5 46l14 13
c5.33301 -8.66699 12.166 -17.334 20.499 -26.001s23 -17.167 44 -25.5s44.5 -12.5 70.5 -12.5c34 0 62.833 8.33301 86.5 25s35.5 37 35.5 61c0 24.667 -9.83301 44.5 -29.5 59.5s-47.834 22.5 -84.501 22.5c-47.333 0 -83 -7 -107 -21l-17 5v155h232v-18zM289.003 0h-19
l314 700h19zM730.003 172c46.667 -15.333 69.999 -43.6641 69.999 -84.9971c0 -28.667 -11.667 -51.334 -35 -68.001s-53.666 -25.334 -90.999 -26.001h-4c-38 0 -69 8.5 -93 25.5s-36 39.833 -36 68.5c0 41.333 23.333 69.666 70 84.999c-37.333 13.333 -56 37.333 -56 72
c0 25.333 10.5 45 31.5 59s47.167 21.333 78.5 22h5c32.667 0 60.167 -7 82.5 -21s33.5 -34 33.5 -60c0 -34.667 -18.667 -58.667 -56 -72zM671.002 181.002c13.333 0 26.3291 1.16797 38.9961 3.50098s25.334 8.5 38.001 18.5s19 23.667 19 41
c0 20.667 -9.16699 36.5 -27.5 47.5s-41.166 16.5 -68.499 16.5s-50.166 -5.5 -68.499 -16.5s-27.5 -26.833 -27.5 -47.5c0 -20 8.83301 -35.333 26.5 -46s40.834 -16.334 69.501 -17.001zM669.998 11.0029c32.667 0 59.167 6.83301 79.5 20.5s30.5 32.167 30.5 55.5
c0 22.667 -10.167 41 -30.5 55s-46.833 21 -79.5 21s-59.167 -7 -79.5 -21s-30.5 -32.333 -30.5 -55c0 -23.333 10.167 -41.833 30.5 -55.5s46.833 -20.5 79.5 -20.5z" />
    <glyph glyph-name="seveneighths" unicode="&#x215e;" horiz-adv-x="760" 
d="M70 382l206 301h-195v17h226v-6l-215 -312h-22zM178 0h-19l314 700h19zM619 172c46.667 -15.333 69.999 -43.6641 69.999 -84.9971c0 -28.667 -11.667 -51.334 -35 -68.001s-53.666 -25.334 -90.999 -26.001h-4c-38 0 -69 8.5 -93 25.5s-36 39.833 -36 68.5
c0 41.333 23.333 69.666 70 84.999c-37.333 13.333 -56 37.333 -56 72c0 25.333 10.5 45 31.5 59s47.167 21.333 78.5 22h5c32.667 0 60.167 -7 82.5 -21s33.5 -34 33.5 -60c0 -34.667 -18.667 -58.667 -56 -72zM559.999 181.002c13.333 0 26.3291 1.16797 38.9961 3.50098
s25.334 8.5 38.001 18.5s19 23.667 19 41c0 20.667 -9.16699 36.5 -27.5 47.5s-41.166 16.5 -68.499 16.5s-50.166 -5.5 -68.499 -16.5s-27.5 -26.833 -27.5 -47.5c0 -20 8.83301 -35.333 26.5 -46s40.834 -16.334 69.501 -17.001zM559.995 11.0029
c32.667 0 59.167 6.83301 79.5 20.5s30.5 32.167 30.5 55.5c0 22.667 -10.167 41 -30.5 55s-46.833 21 -79.5 21s-59.167 -7 -79.5 -21s-30.5 -32.333 -30.5 -55c0 -23.333 10.167 -41.833 30.5 -55.5s46.833 -20.5 79.5 -20.5z" />
    <glyph glyph-name="partialdiff" unicode="&#x2202;" horiz-adv-x="676" 
d="M370 707l8.00098 0.00390625c40.667 0 76.334 -7.83301 107.001 -23.5s54.5 -36.334 71.5 -62.001s29.667 -55.334 38 -89.001s12.333 -67.834 12 -102.501s-3.83301 -70 -10.5 -106l-15 -80c-12.667 -70 -45.667 -129.333 -99 -178s-119 -73 -197 -73
c-72.667 0 -128.834 22.5 -168.501 67.5s-53.5 101.167 -41.5 168.5c11.333 67.333 44.833 123.833 100.5 169.5s120.167 68.5 193.5 68.5c54 0 99.5 -12.833 136.5 -38.5s61.5 -58.834 73.5 -99.501c6 34 9.33301 67.5 10 100.5s-2.83301 65.5 -10.5 97.5
s-19.5 60 -35.5 84s-38.333 43.333 -67 58s-62.334 22 -101.001 22h-8c-63.333 0 -119 -24.667 -167 -74l-9 11c49.333 52.667 109 79 179 79zM365.001 450.004c-68 0 -127.668 -21.167 -179.001 -63.5s-82.333 -94.833 -93 -157.5c-11.333 -62 1.33398 -114 38.001 -156
s89 -63 157 -63c72.667 0 133.5 22.833 182.5 68.5s79.5 101.167 91.5 166.5c10 55.333 -3.5 103.333 -40.5 144s-89.167 61 -156.5 61z" />
    <glyph glyph-name="emptyset" unicode="&#x2205;" 
d="M573 485l-58.999 -58.999c46 -49.333 69 -108 69 -176c0 -70.667 -25 -131 -75 -181s-110.667 -75 -182 -75c-67.333 0 -125.333 22.667 -174 68l-62 -62l-13 14l61 61c-45.333 49.333 -68 107.666 -68 174.999c0 71.333 25 132 75 182s110.333 75 181 75
c67.333 0 125.666 -22.667 174.999 -68l59 59zM88.001 250.001c0 -63.333 20.667 -117.668 62 -163.001l338 339c-44.667 42.667 -98.667 64 -162 64c-66.667 0 -123 -23.167 -169 -69.5s-69 -103.166 -69 -170.499zM326.001 10.999c66 0 122.167 23.167 168.5 69.5
s69.5 102.833 69.5 169.5c0 62.667 -21 117 -63 163l-337 -339c45.333 -42 99.333 -63 162 -63z" />
    <glyph glyph-name="product" unicode="&#x220f;" horiz-adv-x="690" 
d="M556 684v-849h-18v849h-387v-849h-18v849h-63v16h549v-16h-63z" />
    <glyph glyph-name="summation" unicode="&#x2211;" horiz-adv-x="577" 
d="M507 685h-403l283 -402l-283 -402h403v-16h-437l293 418l-292 417l436 1v-16z" />
    <glyph glyph-name="minus" unicode="&#x2212;" horiz-adv-x="555" 
d="M484 303h-414v19h414v-19z" />
    <glyph glyph-name="radical" unicode="&#x221a;" horiz-adv-x="700" 
d="M345 0h-5l-187 481l-83 -27v16l93 30l179 -461l267 661h20z" />
    <glyph glyph-name="infinity" unicode="&#x221e;" horiz-adv-x="754" 
d="M195 321l7 0.00195312c56 0 114.333 -38.333 175 -115c60.667 76.667 119 115 175 115h6c35.333 0 65 -12.5 89 -37.5s36 -55.5 36 -91.5v-11c0 -36 -12 -66.5 -36 -91.5s-53.667 -37.5 -89 -37.5h-6c-56 0 -114.333 38.333 -175 115
c-60.667 -76.667 -119 -115 -175 -115h-7c-36 0 -65.833 11.667 -89.5 35s-35.5 54.666 -35.5 93.999v11c0 35.333 12.167 65.666 36.5 90.999s53.833 38 88.5 38zM205 304.002h-5.99902c-31.333 0 -57.5 -11.333 -78.5 -34s-31.5 -48.667 -31.5 -78v-11
c0 -34 10.167 -61.167 30.5 -81.5s46.833 -30.5 79.5 -30.5h6c51.333 0 105.666 39.667 162.999 119c-56 77.333 -110.333 116 -163 116zM555.001 304.002h-7.00098c-51.333 0 -105.666 -39 -162.999 -117c54 -78.667 108.333 -118 163 -118h7c31.333 0 57.333 11.333 78 34
s31 48.667 31 78v11c0 29.333 -10.333 55.333 -31 78s-46.667 34 -78 34z" />
    <glyph glyph-name="integral" unicode="&#x222b;" horiz-adv-x="336" 
d="M266 734l-13.999 -0.000976562c-31.333 0 -54.5 -10.667 -69.5 -32s-21.833 -46.666 -20.5 -75.999l30 -640c1.33301 -34 -7.33398 -63.5 -26.001 -88.5s-46.334 -37.5 -83.001 -37.5h-13v16h14c30.667 0 53.667 10.833 69 32.5s22.333 47.167 21 76.5l-30 639
c-1.33301 34 7.33398 63.5 26.001 88.5s46 37.5 82 37.5h14v-16z" />
    <glyph glyph-name="approxequal" unicode="&#x2248;" horiz-adv-x="543" 
d="M70 306l43 52.999c16.667 19.333 37.5 29 62.5 29s49.167 -7 72.5 -21l61 -36c15.333 -10.667 33.833 -15.834 55.5 -15.501s38.834 8.5 51.501 24.5l29 39h28l-44 -53c-10.667 -13.333 -24.167 -22 -40.5 -26s-32.333 -4.16699 -48 -0.5s-30.834 9.83398 -45.501 18.501
l-61 36c-15.333 10.667 -34 15.834 -56 15.501s-39 -8.5 -51 -24.5l-29 -39h-28zM473 256.999l-44.001 -52.999c-16 -19.333 -36.5 -29 -61.5 -29s-49.167 7 -72.5 21l-61 36c-15.333 10.667 -34 15.834 -56 15.501s-39 -8.5 -51 -24.5l-29 -39h-28l43 53
c11.333 13.333 25.166 22 41.499 26s32.333 4.16699 48 0.5s30.834 -9.83398 45.501 -18.501l61 -36c15.333 -10.667 33.833 -15.834 55.5 -15.501s38.834 8.5 51.501 24.5l29 39h28z" />
    <glyph glyph-name="notequal" unicode="&#x2260;" horiz-adv-x="555" 
d="M317 362l-57 -127h224v-19h-233l-56 -124h-19l56 124h-162v19h171l57 127h-228v19h237l54 119h19l-54 -119h158v-19h-167z" />
    <glyph glyph-name="lessequal" unicode="&#x2264;" horiz-adv-x="449" 
d="M378 491l-273 -179l273 -179v-23l-308 202l308 203v-24zM378 0h-308v19h308v-19z" />
    <glyph glyph-name="greaterequal" unicode="&#x2265;" horiz-adv-x="449" 
d="M378 312l-308 -202v23l273 179l-273 179v24zM378 0h-308v19h308v-19z" />
    <glyph glyph-name="lozenge" unicode="&#x25ca;" horiz-adv-x="543" 
d="M271 -28l-201 264l201 264l201 -264zM271 463l-175 -227l175 -228l175 228z" />
    <glyph glyph-name=".null" horiz-adv-x="0" 
 />
    <glyph glyph-name="nonmarkingreturn" horiz-adv-x="333" 
 />
    <glyph glyph-name="K.ss01" horiz-adv-x="675" 
d="M138 349v-349h-18v700h18v-335h208l246 335h23l-253 -344l263 -356h-23l-258 349h-206z" />
    <glyph glyph-name="Kcommaaccent.ss01" horiz-adv-x="675" 
d="M138 349v-349h-18v700h18v-335h208l246 335h23l-253 -344l263 -356h-23l-258 349h-206zM302 -156h-21l60 87h40z" />
    <glyph glyph-name="R.ss01" horiz-adv-x="682" 
d="M120 700l211 0.000976562c86 0 157.667 -20.333 215 -61s86 -100.334 86 -179.001c0 -62.667 -19 -113.5 -57 -152.5s-88.333 -64.833 -151 -77.5l201 -230h-23l-199 226c-20 -3.33301 -38.667 -5 -56 -5h-209v-221h-18v700zM138 684.001v-447h193
c82 0 149.667 18.667 203 56s80 93 80 167c0 74.667 -26.667 130.667 -80 168s-121 56 -203 56h-193z" />
    <glyph glyph-name="Racute.ss01" horiz-adv-x="682" 
d="M331 750h-21l60 87h40zM120 700l211 0.000976562c86 0 157.667 -20.333 215 -61s86 -100.334 86 -179.001c0 -62.667 -19 -113.5 -57 -152.5s-88.333 -64.833 -151 -77.5l201 -230h-23l-199 226c-20 -3.33301 -38.667 -5 -56 -5h-209v-221h-18v700zM138 684.001v-447h193
c82 0 149.667 18.667 203 56s80 93 80 167c0 74.667 -26.667 130.667 -80 168s-121 56 -203 56h-193z" />
    <glyph glyph-name="Rcaron.ss01" horiz-adv-x="682" 
d="M321 750h-9l-123 94h29l99 -76l98 76h29zM120 700l211 0.000976562c86 0 157.667 -20.333 215 -61s86 -100.334 86 -179.001c0 -62.667 -19 -113.5 -57 -152.5s-88.333 -64.833 -151 -77.5l201 -230h-23l-199 226c-20 -3.33301 -38.667 -5 -56 -5h-209v-221h-18v700z
M138 684.001v-447h193c82 0 149.667 18.667 203 56s80 93 80 167c0 74.667 -26.667 130.667 -80 168s-121 56 -203 56h-193z" />
    <glyph glyph-name="Rcommaaccent.ss01" horiz-adv-x="682" 
d="M120 700l211 0.000976562c86 0 157.667 -20.333 215 -61s86 -100.334 86 -179.001c0 -62.667 -19 -113.5 -57 -152.5s-88.333 -64.833 -151 -77.5l201 -230h-23l-199 226c-20 -3.33301 -38.667 -5 -56 -5h-209v-221h-18v700zM138 684.001v-447h193
c82 0 149.667 18.667 203 56s80 93 80 167c0 74.667 -26.667 130.667 -80 168s-121 56 -203 56h-193zM293 -155.999h-21l60 87h40z" />
    <glyph glyph-name="i.loclTRK" horiz-adv-x="236" 
d="M120 580c-4 0 -7.5 1.5 -10.5 4.5s-4.5 6.83301 -4.5 11.5c0 4 1.5 7.5 4.5 10.5s6.5 4.5 10.5 4.5c4.66699 0 8.5 -1.5 11.5 -4.5s4.5 -6.5 4.5 -10.5c0 -10.667 -5.33301 -16 -16 -16zM112 0v500h18v-500h-18z" />
    <glyph glyph-name="k.ss01" horiz-adv-x="558" 
d="M123 246v-246h-18v700h18v-437h155l206 237h23l-213 -245l223 -255h-23l-216 246h-155z" />
    <glyph glyph-name="kcommaaccent.ss01" horiz-adv-x="558" 
d="M123 246v-246h-18v700h18v-437h155l206 237h23l-213 -245l223 -255h-23l-216 246h-155zM312 -69l-79 -87h-21l60 87h40z" />
    <glyph glyph-name="uni0416.ss01" horiz-adv-x="1045" 
d="M985 700l-253 -344l263 -356h-23l-257 349h-183v-349h-18v349h-184l-257 -349h-23l263 356l-253 344h23l245 -335h186v335h18v-335h185l245 335h23z" />
    <glyph glyph-name="uni041A.ss01" horiz-adv-x="675" 
d="M138 349v-349h-18v700h18v-335h208l246 335h23l-253 -344l263 -356h-23l-258 349h-206z" />
    <glyph glyph-name="uni042F.ss01" horiz-adv-x="682" 
d="M562 0h-18v221h-209c-17.333 0 -36 1.66699 -56 5l-199 -226h-23l201 230c-62.667 12.667 -113 38.5 -151 77.5s-57 89.833 -57 152.5c0 78 28.667 137.5 86 178.5s129.333 61.5 216 61.5h210v-700zM544 684h-192c-82.667 0 -150.667 -18.667 -204 -56
s-80 -93.333 -80 -168c0 -74 26.667 -129.667 80 -167s121.333 -56 204 -56h192v447z" />
    <glyph glyph-name="uni0436.ss01" horiz-adv-x="836" 
d="M427 246v-246h-18v246h-130l-216 -246h-23l224 255l-214 245h23l206 -237h130v237h18v-237h130l206 237h23l-213 -245l223 -255h-23l-216 246h-130z" />
    <glyph glyph-name="uni043A.ss01" horiz-adv-x="558" 
d="M123 246v-246h-18v500h18v-237h155l206 237h23l-213 -245l223 -255h-23l-216 246h-155z" />
    <glyph glyph-name="uni044F.ss01" horiz-adv-x="586" 
d="M485 0h-18.001v181h-235l-159 -181h-23l160 182c-49.333 6 -88.166 23.167 -116.499 51.5s-42.5 63.833 -42.5 106.5c0 48.667 17.5 87.5 52.5 116.5s82.5 43.5 142.5 43.5h239v-500zM466.999 483h-221c-55.333 0 -98.666 -12.833 -129.999 -38.5s-47 -60.5 -47 -104.5
c0 -43.333 15.667 -77.833 47 -103.5s74.666 -38.5 129.999 -38.5h221v285z" />
    <glyph glyph-name="zero.lf" horiz-adv-x="874" 
d="M436 707c98.667 0 182.834 -34.833 252.501 -104.5s104.5 -153.834 104.5 -252.501s-34.833 -182.834 -104.5 -252.501s-153.834 -104.5 -252.501 -104.5s-182.667 34.833 -252 104.5s-104 153.834 -104 252.501s34.667 182.834 104 252.501s153.333 104.5 252 104.5z
M436 691c-94 0 -173.833 -33.167 -239.5 -99.5s-98.5 -146.833 -98.5 -241.5c0 -95.333 32.833 -176 98.5 -242s145.5 -99 239.5 -99s174 33 240 99s99 146.667 99 242c0 94.667 -33 175.167 -99 241.5s-146 99.5 -240 99.5z" />
    <glyph glyph-name="one.lf" horiz-adv-x="308" 
d="M187 0h-18v656l-104 -124l-15 11l132 157h5v-700z" />
    <glyph glyph-name="two.lf" horiz-adv-x="629" 
d="M569 0h-509.001v6l327 305c58 53.333 96.333 93.833 115 121.5s28 58.834 28 93.501c0 49.333 -20.5 89.166 -61.5 119.499s-88.833 45.5 -143.5 45.5h-13c-48.667 0 -92.667 -9.66699 -132 -29s-70 -47 -92 -83l-12 11c22 38 54 67 96 87s88.667 30 140 30h13
c58.667 0 110.5 -16.833 155.5 -50.5s67.5 -77.167 67.5 -130.5c0 -27.333 -6.16699 -53 -18.5 -77s-28.166 -46.5 -47.499 -67.5s-51.333 -52.5 -96 -94.5l-291 -271h474v-16z" />
    <glyph glyph-name="three.lf" horiz-adv-x="633" 
d="M555 694l-325.002 -286.001c28 9.33301 65.667 14.333 113 15c74 0 130.667 -17.667 170 -53s59 -82 59 -140c0 -70 -22.5 -126.667 -67.5 -170s-102.167 -65.666 -171.5 -66.999h-11c-67.333 0.666992 -123.666 15.5 -168.999 44.5s-76.333 68.833 -93 119.5l12 10
c16.667 -50 46.834 -88.833 90.501 -116.5s98.5 -41.5 164.5 -41.5h7c64.667 1.33301 117.5 21.833 158.5 61.5s61.5 92.5 61.5 158.5c0 54.667 -17.5 97.667 -52.5 129s-87.5 47 -157.5 47c-58.667 0 -107 -9.33301 -145 -28l-15 11l334 296h-398v16h435v-6z" />
    <glyph glyph-name="four.lf" horiz-adv-x="631" 
d="M491 162v-162h-18v162h-423v5l435 533h6v-522h90v-16h-90zM473 656l-393 -478h393v478z" />
    <glyph glyph-name="five.lf" horiz-adv-x="633" 
d="M512 684l-383.002 -0.000976562v-298c52 38 123.667 57 215 57c69.333 0 124.666 -19.167 165.999 -57.5s62 -90.5 62 -156.5c0 -70 -22.667 -126.833 -68 -170.5s-102 -65.5 -170 -65.5h-12c-67.333 0.666992 -123.666 15.5 -168.999 44.5s-76.333 68.833 -93 119.5
l12 10c16.667 -50 46.834 -88.833 90.501 -116.5s98.5 -41.5 164.5 -41.5h7c64.667 1.33301 117.5 21.833 158.5 61.5s61.5 92.5 61.5 158.5c0 62.667 -18.667 111.334 -56 146.001s-88.666 52 -153.999 52c-98 0 -171.333 -22.333 -220 -67l-14 11v329h402v-16z" />
    <glyph glyph-name="six.lf" horiz-adv-x="625" 
d="M312 467c73.333 0 133.834 -22.835 181.501 -68.502s71.5 -102.167 71.5 -169.5s-23.833 -123.5 -71.5 -168.5s-108.167 -67.5 -181.5 -67.5c-78 0 -139.333 24.333 -184 73s-67 108 -67 178l-1 80c0 37.333 2.33301 72.833 7 106.5s13.167 67.834 25.5 102.501
s28.166 64.5 47.499 89.5s45 45.333 77 61s68.333 23.5 109 23.5h7c88.667 0 157 -32 205 -96l-12 -11c-47.333 60.667 -111.666 91 -192.999 91h-7c-48 0 -89.167 -10.833 -123.5 -32.5s-60 -51.167 -77 -88.5s-29.167 -75.333 -36.5 -114s-11 -81 -11 -127
c19.333 40.667 49.666 73.834 90.999 99.501s89 38.5 143 38.5zM313.001 9.99805c68 0 124 21 168 63s66 94 66 156c0 62.667 -22 115.167 -66 157.5s-100 63.5 -168 63.5c-67.333 0 -123 -20.333 -167 -61s-66 -88.667 -66 -144c0 -65.333 20.667 -120.833 62 -166.5
s98.333 -68.5 171 -68.5z" />
    <glyph glyph-name="seven.lf" horiz-adv-x="541" 
d="M491 694l-420 -694h-21l412 684h-405v16h434v-6z" />
    <glyph glyph-name="eight.lf" horiz-adv-x="604" 
d="M380 381c50 -11.333 89.667 -33.334 119 -66.001s44 -74 44 -124c0 -61.333 -21.5 -109.333 -64.5 -144s-99.167 -52.667 -168.5 -54h-9c-71.333 0 -129.333 17.333 -174 52s-67 83.334 -67 146.001c0 50 14.667 91.333 44 124s69 54.667 119 66
c-40 10.667 -72.167 29.167 -96.5 55.5s-36.5 60.5 -36.5 102.5c0 54 19.167 95 57.5 123s85.5 43 141.5 45h12c37.333 0 71.5 -5.5 102.5 -16.5s57 -29.5 78 -55.5s31.5 -58 31.5 -96c0 -42 -12.167 -76.167 -36.5 -102.5s-56.5 -44.833 -96.5 -55.5zM109 539.999
c0 -50.667 18.5 -88.5 55.5 -113.5s82.833 -37.5 137.5 -37.5c54 0 99.667 12.5 137 37.5s56 62.833 56 113.5s-18.667 88.5 -56 113.5s-83 37.5 -137 37.5s-99.667 -12.5 -137 -37.5s-56 -62.833 -56 -113.5zM302 9.99902c66 0 119.668 15.667 161.001 47s62 76 62 134
c0 57.333 -20 101.5 -60 132.5s-94.333 47.167 -163 48.5c-16 0 -32.333 -1.16699 -49 -3.5s-35.834 -7.33301 -57.501 -15s-40.667 -17.667 -57 -30s-30.333 -30 -42 -53s-17.5 -49.5 -17.5 -79.5c0 -58 20.667 -102.667 62 -134s95 -47 161 -47z" />
    <glyph glyph-name="nine.lf" horiz-adv-x="625" 
d="M313 234c-73.333 0 -133.834 22.6689 -181.501 68.002s-71.5 101.666 -71.5 168.999s23.833 123.5 71.5 168.5s107.834 67.5 180.501 67.5c78 0 139.5 -24.333 184.5 -73s67.5 -108 67.5 -178l1 -80c0 -37.333 -2.33301 -72.833 -7 -106.5
s-13.167 -67.834 -25.5 -102.501s-28.166 -64.5 -47.499 -89.5s-45 -45.333 -77 -61s-68.333 -23.5 -109 -23.5h-8c-88 0 -156 32 -204 96l12 11c46 -60.667 110 -91 192 -91h8c38.667 0 73 7.5 103 22.5s53.833 34.167 71.5 57.5s32.167 51.333 43.5 84s19 65 23 97
s6 65.667 6 101c-18.667 -40.667 -48.834 -73.667 -90.501 -99s-89.167 -38 -142.5 -38zM311.999 691.002c-68 0 -124 -21.167 -168 -63.5s-66 -94.5 -66 -156.5c0 -62.667 22 -115.167 66 -157.5s100 -63.5 168 -63.5c67.333 0 123 20.5 167 61.5s66 89.167 66 144.5
c0 65.333 -20.667 120.833 -62 166.5s-98.333 68.5 -171 68.5z" />
    <glyph glyph-name="zero.osf" horiz-adv-x="711" 
d="M355 544c76 0 140.833 -26.833 194.5 -80.5s80.5 -118.5 80.5 -194.5c0 -76.667 -26.833 -141.834 -80.5 -195.501s-118.5 -80.5 -194.5 -80.5s-140.833 26.833 -194.5 80.5s-80.5 118.834 -80.5 195.501c0 76 26.833 140.833 80.5 194.5s118.5 80.5 194.5 80.5zM356 528
c-70.667 0 -131.167 -25.333 -181.5 -76s-75.5 -111.667 -75.5 -183s25.167 -132.333 75.5 -183s110.833 -76 181.5 -76c70 0 130.333 25.333 181 76s76 111.667 76 183c0 70.667 -25.333 131.5 -76 182.5s-111 76.5 -181 76.5z" />
    <glyph glyph-name="one.osf" horiz-adv-x="308" 
d="M187 0h-18v494l-104 -125l-15 12l132 156h5v-537z" />
    <glyph glyph-name="two.osf" horiz-adv-x="629" 
d="M569 0l-509 0.000976562v6l337 211c53.333 33.333 88.833 61.333 106.5 84s26.5 50.667 26.5 84c0 38.667 -19 72.167 -57 100.5s-87.667 42.5 -149 42.5h-12c-49.333 0 -93.5 -9.5 -132.5 -28.5s-69.5 -46.5 -91.5 -82.5l-12 10c22 38 54 67 96 87s88.667 30 140 30h12
c65.333 0 119 -15.833 161 -47.5s63 -68.834 63 -111.501c0 -38 -10.833 -70.333 -32.5 -97s-61.5 -58 -119.5 -94l-283 -178h456v-16z" />
    <glyph glyph-name="three.osf" horiz-adv-x="633" 
d="M555 532l-325.002 -287.002c30 10 67.667 15 113 15c74 0 130.667 -17.667 170 -53s59 -82 59 -140c0 -64 -22.667 -116.667 -68 -158s-102.333 -62.666 -171 -63.999h-11c-67.333 0.666992 -123.666 15.5 -168.999 44.5s-76.333 68.833 -93 119.5l12 11
c16.667 -50 46.834 -89 90.501 -117s98.5 -42 164.5 -42h6c64 1.33301 116.833 20.833 158.5 58.5s62.5 86.5 62.5 146.5c0 54.667 -17.5 97.834 -52.5 129.501s-87.5 47.5 -157.5 47.5c-56.667 0 -105 -9.66699 -145 -29l-15 11l334 296h-398v16h435v-5z" />
    <glyph glyph-name="four.osf" horiz-adv-x="631" 
d="M491 14v-162h-18v162h-423v5l435 518h6v-507h90v-16h-90zM473 493l-393 -463h393v463z" />
    <glyph glyph-name="five.osf" horiz-adv-x="633" 
d="M512 521l-383.003 -0.00292969v-298c52 38 123.667 57 215 57c69.333 0 124.666 -19.167 165.999 -57.5s62 -90.166 62 -155.499c0 -64 -22.667 -116.667 -68 -158s-102 -62.666 -170 -63.999h-12c-67.333 0.666992 -123.666 15.5 -168.999 44.5
s-76.333 68.833 -93 119.5l12 11c16.667 -50 46.834 -89 90.501 -117s98.5 -42 164.5 -42h5c64 1.33301 117 20.833 159 58.5s63 86.5 63 146.5c0 62.667 -18.667 111.334 -56 146.001s-88.666 52 -153.999 52c-99.333 0 -172.666 -22.333 -219.999 -67l-14 11v329h402v-16z
" />
    <glyph glyph-name="six.osf" horiz-adv-x="625" 
d="M312 467c73.333 0 133.833 -22.834 181.5 -68.501s71.5 -102.167 71.5 -169.5s-23.833 -123.5 -71.5 -168.5s-108.167 -67.5 -181.5 -67.5c-78 0 -139.333 24.333 -184 73s-67 108 -67 178l-1 81c0 34 2.33301 66.833 7 98.5s13.167 64.167 25.5 97.5
s28.166 62.333 47.499 87s45 44.834 77 60.501s68.333 23.5 109 23.5h7c88.667 0 157 -32 205 -96l-12 -11c-47.333 60.667 -111.666 91 -192.999 91h-7c-38.667 0 -73 -7.33301 -103 -22s-53.833 -33.5 -71.5 -56.5s-32.167 -50.5 -43.5 -82.5
s-19.166 -62.833 -23.499 -92.5s-6.5 -60.834 -6.5 -93.501c19.333 40.667 49.666 73.834 90.999 99.501s89 38.5 143 38.5zM313 9.99902c68 0 124 21 168 63s66 94 66 156c0 62.667 -22 115.167 -66 157.5s-100 63.5 -168 63.5c-67.333 0 -123 -20.333 -167 -61
s-66 -88.667 -66 -144c0 -65.333 20.667 -120.833 62 -166.5s98.333 -68.5 171 -68.5z" />
    <glyph glyph-name="seven.osf" horiz-adv-x="534" 
d="M484 532l-411 -680h-21l403 669h-405v16h434v-5z" />
    <glyph glyph-name="eight.osf" horiz-adv-x="604" 
d="M380 368c50 -11.333 89.667 -32.8311 119 -64.498s44 -71.5 44 -119.5c0 -60 -22.5 -106.833 -67.5 -140.5s-103.167 -50.5 -174.5 -50.5h-4c-70 1.33301 -127 18.666 -171 51.999s-66 79.666 -66 138.999c0 48 14.667 87.833 44 119.5s69 53.167 119 64.5
c-40 10 -72.167 28.333 -96.5 55s-36.5 61 -36.5 103c0 54.667 20 96.167 60 124.5s89 42.833 147 43.5h4c37.333 0 71.5 -5.5 102.5 -16.5s57 -29.5 78 -55.5s31.5 -58 31.5 -96c0 -42 -12.167 -76.333 -36.5 -103s-56.5 -45 -96.5 -55zM109 526.002
c0 -50.667 18.5 -88.334 55.5 -113.001s82.833 -37 137.5 -37c54 0 99.667 12.333 137 37s56 62.334 56 113.001s-18.667 88.667 -56 114s-83 38 -137 38s-99.667 -12.667 -137 -38s-56 -63.333 -56 -114zM302 10.002c66 0 119.669 15.333 161.002 46s62 73.334 62 128.001
s-20 97.167 -60 127.5s-94.333 46.166 -163 47.499c-16 0 -32.333 -1.16699 -49 -3.5s-35.834 -7.16602 -57.501 -14.499s-40.834 -17 -57.501 -29s-30.667 -29.167 -42 -51.5s-17 -47.833 -17 -76.5c0 -54.667 20.667 -97.334 62 -128.001s95 -46 161 -46z" />
    <glyph glyph-name="nine.osf" horiz-adv-x="625" 
d="M313 71c-73.333 0 -133.835 22.6719 -181.502 68.0049s-71.5 101.666 -71.5 168.999s23.833 123.5 71.5 168.5s107.834 67.5 180.501 67.5c78 0 139.5 -24.333 184.5 -73s67.5 -108 67.5 -178l1 -80c0 -34 -2.33301 -67 -7 -99s-13.167 -64.667 -25.5 -98
s-28.166 -62.333 -47.499 -87s-45 -44.834 -77 -60.501s-68.333 -23.5 -109 -23.5h-8c-88 0 -156 32 -204 96l12 11c46 -60.667 110 -91 192 -91h8c48 0 89 10.667 123 32s59.5 50.166 76.5 86.499s29.167 73.166 36.5 110.499s11 76.666 11 117.999
c-18.667 -40.667 -48.667 -73.667 -90 -99s-89 -38 -143 -38zM311.998 528.005c-68 0 -124 -21.167 -168 -63.5s-66 -94.5 -66 -156.5c0 -62.667 22 -115.167 66 -157.5s100 -63.5 168 -63.5c67.333 0 123 20.5 167 61.5s66 89.167 66 144.5
c0 65.333 -20.667 120.833 -62 166.5s-98.333 68.5 -171 68.5z" />
    <glyph glyph-name="zero.tf" horiz-adv-x="853" 
d="M426 707c98.667 0 182.834 -34.833 252.501 -104.5s104.5 -153.834 104.5 -252.501s-34.833 -182.834 -104.5 -252.501s-153.834 -104.5 -252.501 -104.5s-182.667 34.833 -252 104.5s-104 153.834 -104 252.501s34.667 182.834 104 252.501s153.333 104.5 252 104.5z
M426 691c-94 0 -173.833 -33.167 -239.5 -99.5s-98.5 -146.833 -98.5 -241.5c0 -95.333 32.833 -176 98.5 -242s145.5 -99 239.5 -99s174 33 240 99s99 146.667 99 242c0 94.667 -33 175.167 -99 241.5s-146 99.5 -240 99.5z" />
    <glyph glyph-name="one.tf" horiz-adv-x="278" 
d="M207 0h-18v656l-104 -124l-15 11l132 157h5v-700z" />
    <glyph glyph-name="two.tf" horiz-adv-x="649" 
d="M579 0h-509.001v6l327 305c58 53.333 96.333 93.833 115 121.5s28 58.834 28 93.501c0 49.333 -20.5 89.166 -61.5 119.499s-88.833 45.5 -143.5 45.5h-13c-48.667 0 -92.667 -9.66699 -132 -29s-70 -47 -92 -83l-12 11c22 38 54 67 96 87s88.667 30 140 30h13
c58.667 0 110.5 -16.833 155.5 -50.5s67.5 -77.167 67.5 -130.5c0 -27.333 -6.16699 -53 -18.5 -77s-28.166 -46.5 -47.499 -67.5s-51.333 -52.5 -96 -94.5l-291 -271h474v-16z" />
    <glyph glyph-name="three.tf" 
d="M565 694l-325.002 -286.001c28 9.33301 65.667 14.333 113 15c74 0 130.667 -17.667 170 -53s59 -82 59 -140c0 -70 -22.5 -126.667 -67.5 -170s-102.167 -65.666 -171.5 -66.999h-11c-67.333 0.666992 -123.666 15.5 -168.999 44.5s-76.333 68.833 -93 119.5l12 10
c16.667 -50 46.834 -88.833 90.501 -116.5s98.5 -41.5 164.5 -41.5h7c64.667 1.33301 117.5 21.833 158.5 61.5s61.5 92.5 61.5 158.5c0 54.667 -17.5 97.667 -52.5 129s-87.5 47 -157.5 47c-58.667 0 -107 -9.33301 -145 -28l-15 11l334 296h-398v16h435v-6z" />
    <glyph glyph-name="four.tf" horiz-adv-x="671" 
d="M511 162v-162h-18v162h-423v5l435 533h6v-522h90v-16h-90zM493 656l-393 -478h393v478z" />
    <glyph glyph-name="five.tf" 
d="M522 684l-383.002 -0.000976562v-298c52 38 123.667 57 215 57c69.333 0 124.666 -19.167 165.999 -57.5s62 -90.5 62 -156.5c0 -70 -22.667 -126.833 -68 -170.5s-102 -65.5 -170 -65.5h-12c-67.333 0.666992 -123.666 15.5 -168.999 44.5s-76.333 68.833 -93 119.5
l12 10c16.667 -50 46.834 -88.833 90.501 -116.5s98.5 -41.5 164.5 -41.5h7c64.667 1.33301 117.5 21.833 158.5 61.5s61.5 92.5 61.5 158.5c0 62.667 -18.667 111.334 -56 146.001s-88.666 52 -153.999 52c-98 0 -171.333 -22.333 -220 -67l-14 11v329h402v-16z" />
    <glyph glyph-name="six.tf" horiz-adv-x="645" 
d="M322 467c73.333 0 133.834 -22.835 181.501 -68.502s71.5 -102.167 71.5 -169.5s-23.833 -123.5 -71.5 -168.5s-108.167 -67.5 -181.5 -67.5c-78 0 -139.333 24.333 -184 73s-67 108 -67 178l-1 80c0 37.333 2.33301 72.833 7 106.5s13.167 67.834 25.5 102.501
s28.166 64.5 47.499 89.5s45 45.333 77 61s68.333 23.5 109 23.5h7c88.667 0 157 -32 205 -96l-12 -11c-47.333 60.667 -111.666 91 -192.999 91h-7c-48 0 -89.167 -10.833 -123.5 -32.5s-60 -51.167 -77 -88.5s-29.167 -75.333 -36.5 -114s-11 -81 -11 -127
c19.333 40.667 49.666 73.834 90.999 99.501s89 38.5 143 38.5zM323.001 9.99805c68 0 124 21 168 63s66 94 66 156c0 62.667 -22 115.167 -66 157.5s-100 63.5 -168 63.5c-67.333 0 -123 -20.333 -167 -61s-66 -88.667 -66 -144c0 -65.333 20.667 -120.833 62 -166.5
s98.333 -68.5 171 -68.5z" />
    <glyph glyph-name="seven.tf" horiz-adv-x="581" 
d="M511 694l-420 -694h-21l412 684h-405v16h434v-6z" />
    <glyph glyph-name="eight.tf" horiz-adv-x="624" 
d="M390 381c50 -11.333 89.667 -33.334 119 -66.001s44 -74 44 -124c0 -61.333 -21.5 -109.333 -64.5 -144s-99.167 -52.667 -168.5 -54h-9c-71.333 0 -129.333 17.333 -174 52s-67 83.334 -67 146.001c0 50 14.667 91.333 44 124s69 54.667 119 66
c-40 10.667 -72.167 29.167 -96.5 55.5s-36.5 60.5 -36.5 102.5c0 54 19.167 95 57.5 123s85.5 43 141.5 45h12c37.333 0 71.5 -5.5 102.5 -16.5s57 -29.5 78 -55.5s31.5 -58 31.5 -96c0 -42 -12.167 -76.167 -36.5 -102.5s-56.5 -44.833 -96.5 -55.5zM119 539.999
c0 -50.667 18.5 -88.5 55.5 -113.5s82.833 -37.5 137.5 -37.5c54 0 99.667 12.5 137 37.5s56 62.833 56 113.5s-18.667 88.5 -56 113.5s-83 37.5 -137 37.5s-99.667 -12.5 -137 -37.5s-56 -62.833 -56 -113.5zM312 9.99902c66 0 119.668 15.667 161.001 47s62 76 62 134
c0 57.333 -20 101.5 -60 132.5s-94.333 47.167 -163 48.5c-16 0 -32.333 -1.16699 -49 -3.5s-35.834 -7.33301 -57.501 -15s-40.667 -17.667 -57 -30s-30.333 -30 -42 -53s-17.5 -49.5 -17.5 -79.5c0 -58 20.667 -102.667 62 -134s95 -47 161 -47z" />
    <glyph glyph-name="nine.tf" horiz-adv-x="645" 
d="M323 234c-73.333 0 -133.834 22.6689 -181.501 68.002s-71.5 101.666 -71.5 168.999s23.833 123.5 71.5 168.5s107.834 67.5 180.501 67.5c78 0 139.5 -24.333 184.5 -73s67.5 -108 67.5 -178l1 -80c0 -37.333 -2.33301 -72.833 -7 -106.5
s-13.167 -67.834 -25.5 -102.501s-28.166 -64.5 -47.499 -89.5s-45 -45.333 -77 -61s-68.333 -23.5 -109 -23.5h-8c-88 0 -156 32 -204 96l12 11c46 -60.667 110 -91 192 -91h8c38.667 0 73 7.5 103 22.5s53.833 34.167 71.5 57.5s32.167 51.333 43.5 84s19 65 23 97
s6 65.667 6 101c-18.667 -40.667 -48.834 -73.667 -90.501 -99s-89.167 -38 -142.5 -38zM322.999 691.002c-68 0 -124 -21.167 -168 -63.5s-66 -94.5 -66 -156.5c0 -62.667 22 -115.167 66 -157.5s100 -63.5 168 -63.5c67.333 0 123 20.5 167 61.5s66 89.167 66 144.5
c0 65.333 -20.667 120.833 -62 166.5s-98.333 68.5 -171 68.5z" />
    <glyph glyph-name="zero.tosf" horiz-adv-x="691" 
d="M345 548c76 0 140.833 -26.833 194.5 -80.5s80.5 -118.5 80.5 -194.5c0 -76.667 -26.833 -141.834 -80.5 -195.501s-118.5 -80.5 -194.5 -80.5s-140.833 26.833 -194.5 80.5s-80.5 118.834 -80.5 195.501c0 76 26.833 140.833 80.5 194.5s118.5 80.5 194.5 80.5zM345 532
c-70.667 0 -131.167 -25.333 -181.5 -76s-75.5 -111.667 -75.5 -183s25.167 -132.333 75.5 -183s110.833 -76 181.5 -76c70 0 130.333 25.333 181 76s76 111.667 76 183c0 70.667 -25.333 131.5 -76 182.5s-111 76.5 -181 76.5z" />
    <glyph glyph-name="one.tosf" horiz-adv-x="278" 
d="M207 0h-18v498l-104 -125l-15 12l132 156h5v-541z" />
    <glyph glyph-name="two.tosf" horiz-adv-x="649" 
d="M579 0l-509 0.000976562v6l337 211c53.333 33.333 88.833 61.333 106.5 84s26.5 50.667 26.5 84c0 38.667 -19 72.167 -57 100.5s-87.667 42.5 -149 42.5h-12c-49.333 0 -93.5 -9.5 -132.5 -28.5s-69.5 -46.5 -91.5 -82.5l-12 10c22 38 54 67 96 87s88.667 30 140 30h12
c65.333 0 119 -15.833 161 -47.5s63 -68.834 63 -111.501c0 -38 -10.833 -70.333 -32.5 -97s-61.5 -58 -119.5 -94l-283 -178h456v-16z" />
    <glyph glyph-name="three.tosf" 
d="M565 532l-325.002 -287.002c30 10 67.667 15 113 15c74 0 130.667 -17.667 170 -53s59 -82 59 -140c0 -64 -22.667 -116.667 -68 -158s-102.333 -62.666 -171 -63.999h-11c-67.333 0.666992 -123.666 15.5 -168.999 44.5s-76.333 68.833 -93 119.5l12 11
c16.667 -50 46.834 -89 90.501 -117s98.5 -42 164.5 -42h6c64 1.33301 116.833 20.833 158.5 58.5s62.5 86.5 62.5 146.5c0 54.667 -17.5 97.834 -52.5 129.501s-87.5 47.5 -157.5 47.5c-56.667 0 -105 -9.66699 -145 -29l-15 11l334 296h-398v16h435v-5z" />
    <glyph glyph-name="four.tosf" horiz-adv-x="671" 
d="M511 14v-162h-18v162h-423v5l435 518h6v-507h90v-16h-90zM493 493l-393 -463h393v463z" />
    <glyph glyph-name="five.tosf" 
d="M522 521l-383.003 -0.00292969v-298c52 38 123.667 57 215 57c69.333 0 124.666 -19.167 165.999 -57.5s62 -90.166 62 -155.499c0 -64 -22.667 -116.667 -68 -158s-102 -62.666 -170 -63.999h-12c-67.333 0.666992 -123.666 15.5 -168.999 44.5
s-76.333 68.833 -93 119.5l12 11c16.667 -50 46.834 -89 90.501 -117s98.5 -42 164.5 -42h5c64 1.33301 117 20.833 159 58.5s63 86.5 63 146.5c0 62.667 -18.667 111.334 -56 146.001s-88.666 52 -153.999 52c-99.333 0 -172.666 -22.333 -219.999 -67l-14 11v329h402v-16z
" />
    </font>
</defs>
</svg>
